<svg width="30" height="30" viewBox="0 0 30 30" fill="none" xmlns="http://www.w3.org/2000/svg">
<mask id="mask0_62_1657" style="mask-type:alpha" maskUnits="userSpaceOnUse" x="0" y="0" width="30" height="30">
<rect width="30" height="30" fill="#D9D9D9"/>
</mask>
<g mask="url(#mask0_62_1657)">
<path fill-rule="evenodd" clip-rule="evenodd" d="M2.0769 2C2.03443 2 2 2.03443 2 2.0769V14.9997C2 15.0422 2.03443 15.0767 2.0769 15.0767H10.6921C10.7346 15.0767 10.769 15.0422 10.769 14.9997V2.0769C10.769 2.03443 10.7346 2 10.6921 2H2.0769ZM0 2.0769C0 0.929861 0.929861 0 2.0769 0H10.6921C11.8392 0 12.769 0.929861 12.769 2.0769V14.9997C12.769 16.1468 11.8392 17.0767 10.6921 17.0767H2.0769C0.929861 17.0767 0 16.1468 0 14.9997V2.0769ZM19.2303 2.0769C19.2303 2.03443 19.2647 2 19.3072 2H27.9224C27.9649 2 27.9993 2.03443 27.9993 2.0769V6.40606C27.9993 6.44853 27.9649 6.48296 27.9224 6.48296H19.3072C19.2647 6.48296 19.2303 6.44853 19.2303 6.40606V2.0769ZM19.3072 0C18.1602 0 17.2303 0.929861 17.2303 2.0769V6.40606C17.2303 7.5531 18.1602 8.48296 19.3072 8.48296H27.9224C29.0695 8.48296 29.9993 7.5531 29.9993 6.40606V2.0769C29.9993 0.929861 29.0695 0 27.9224 0H19.3072ZM19.2303 14.9996C19.2303 14.9572 19.2647 14.9227 19.3072 14.9227H27.9224C27.9649 14.9227 27.9993 14.9572 27.9993 14.9996V27.9225C27.9993 27.9649 27.9649 27.9994 27.9224 27.9994H19.3072C19.2647 27.9994 19.2303 27.9649 19.2303 27.9225V14.9996ZM19.3072 12.9227C18.1602 12.9227 17.2303 13.8526 17.2303 14.9996V27.9225C17.2303 29.0695 18.1602 29.9994 19.3072 29.9994H27.9224C29.0695 29.9994 29.9993 29.0695 29.9993 27.9225V14.9996C29.9993 13.8526 29.0695 12.9227 27.9224 12.9227H19.3072ZM2 23.594C2 23.5515 2.03443 23.5171 2.0769 23.5171H10.6921C10.7346 23.5171 10.769 23.5515 10.769 23.594V27.9232C10.769 27.9656 10.7346 28.0001 10.6921 28.0001H2.0769C2.03443 28.0001 2 27.9656 2 27.9232V23.594ZM2.0769 21.5171C0.929861 21.5171 0 22.447 0 23.594V27.9232C0 29.0702 0.929861 30.0001 2.0769 30.0001H10.6921C11.8392 30.0001 12.769 29.0702 12.769 27.9232V23.594C12.769 22.447 11.8392 21.5171 10.6921 21.5171H2.0769ZM14.9083 78.3848C12.2213 78.3848 10.043 80.563 10.043 83.2501C10.043 85.9372 12.2213 88.1154 14.9083 88.1154C17.5954 88.1154 19.7737 85.9372 19.7737 83.2501C19.7737 80.563 17.5954 78.3848 14.9083 78.3848ZM15.9082 76.4571V68C15.9082 67.4477 15.4605 67 14.9082 67C14.3559 67 13.9082 67.4477 13.9082 68V76.4571C10.5906 76.9413 8.04297 79.7982 8.04297 83.2501C8.04297 87.0417 11.1167 90.1154 14.9083 90.1154C18.6999 90.1154 21.7737 87.0417 21.7737 83.2501C21.7737 79.7981 19.2259 76.9412 15.9082 76.4571ZM19.8827 71.2994C20.1338 70.8074 20.736 70.6121 21.228 70.8632C23.511 72.0282 25.4276 73.8017 26.7659 75.9877C28.1042 78.1736 28.8123 80.6869 28.8118 83.25V92.6345C28.8118 93.522 28.4593 94.3731 27.8318 95.0006C27.2043 95.6281 26.3532 95.9807 25.4657 95.9807H21.7734V98.4999C21.7734 99.0521 21.3257 99.4999 20.7734 99.4999C20.2212 99.4999 19.7734 99.0521 19.7734 98.4999V94.9807C19.7734 94.4284 20.2212 93.9807 20.7734 93.9807H25.4657C25.8227 93.9807 26.1651 93.8388 26.4176 93.5864C26.67 93.3339 26.8118 92.9915 26.8118 92.6345V83.25C26.8123 81.0555 26.2061 78.9035 25.0602 77.032C23.9144 75.1605 22.2735 73.6421 20.3189 72.6446C19.827 72.3936 19.6317 71.7913 19.8827 71.2994ZM9.49728 72.6448C9.98932 72.394 10.1848 71.7918 9.93401 71.2997C9.68317 70.8077 9.08096 70.6122 8.58892 70.863C6.30494 72.0274 4.38735 73.8005 3.04807 75.9866C1.7088 78.1726 1 80.6863 1 83.25C1 85.8136 1.7088 88.3274 3.04807 90.5134C4.27924 92.523 5.99913 94.1836 8.0431 95.3432V98.4999C8.0431 99.0521 8.49082 99.4999 9.0431 99.4999C9.59539 99.4999 10.0431 99.0521 10.0431 98.4999V94.746C10.0431 94.3701 9.83223 94.0259 9.49728 93.8551C7.54184 92.8583 5.90009 91.3401 4.75347 89.4686C3.60684 87.597 3 85.4449 3 83.25C3 81.0551 3.60684 78.9029 4.75347 77.0314C5.90009 75.1598 7.54184 73.6417 9.49728 72.6448ZM15.4818 139.001C14.3807 138.982 13.2865 139.179 12.2619 139.583C11.2373 139.987 10.3025 140.589 9.51103 141.355C8.71954 142.121 8.08693 143.035 7.64944 144.046C7.21293 145.054 6.97925 146.139 6.96168 147.237V153.501L6.96149 153.521V158.269C6.96149 158.851 6.73052 159.408 6.31939 159.819C5.90826 160.231 5.35066 160.462 4.76924 160.462H2.38473C1.4871 160.462 0.626242 160.105 -0.00847578 159.47C-0.643193 158.836 -0.999774 157.975 -0.999774 157.077V152.308C-0.999774 151.41 -0.643193 150.55 -0.00847578 149.915C0.626242 149.28 1.4871 148.924 2.38473 148.924H4.76924C4.83373 148.924 4.89794 148.926 4.96168 148.932V147.23L4.9618 147.214C4.98241 145.85 5.27201 144.503 5.81402 143.251C6.35602 141.999 7.13977 140.866 8.12036 139.918C9.10095 138.969 10.2591 138.223 11.5285 137.723C12.7923 137.224 14.1416 136.979 15.4997 137.001C16.8578 136.979 18.2071 137.224 19.4709 137.723C20.7403 138.223 21.8985 138.969 22.879 139.918C23.8596 140.866 24.6434 141.999 25.1854 143.251C25.7274 144.503 26.017 145.85 26.0376 147.214L26.0377 147.23V148.932C26.1014 148.926 26.1656 148.923 26.2301 148.923H28.6146C29.5122 148.923 30.3731 149.28 31.0078 149.915C31.6425 150.549 31.9991 151.41 31.9991 152.308V157.077C31.9991 157.975 31.6425 158.835 31.0078 159.47C30.3731 160.105 29.5122 160.461 28.6146 160.461H26.2301C26.1657 160.461 26.1016 160.459 26.0379 160.453V161.25C26.0379 162.78 25.4301 164.248 24.3482 165.329C23.4782 166.199 22.3588 166.763 21.158 166.95C20.9878 167.658 20.6254 168.311 20.1025 168.834C19.356 169.58 18.3435 170 17.2878 170H13.711C12.6553 170 11.6428 169.58 10.8963 168.834C10.1498 168.087 9.73037 167.075 9.73037 166.019C9.73037 164.964 10.1498 163.951 10.8963 163.205C11.6428 162.458 12.6553 162.039 13.711 162.039H17.2878C18.3435 162.039 19.356 162.458 20.1025 163.205C20.5844 163.686 20.9301 164.279 21.1145 164.923C21.7981 164.766 22.4301 164.419 22.934 163.915C23.6409 163.208 24.0379 162.25 24.0379 161.25V158.293L24.0378 158.269V153.515L24.0377 153.501V147.237C24.0202 146.139 23.7865 145.054 23.35 144.046C22.9125 143.035 22.2799 142.121 21.4884 141.355C20.6969 140.589 19.7621 139.987 18.7375 139.583C17.7129 139.179 16.6187 138.982 15.5176 139.001L15.4997 138.002L15.4818 139.001ZM26.0379 158.276V155.885L26.0378 155.869V151.116C26.0378 151.065 26.0581 151.016 26.0941 150.98C26.1302 150.944 26.1791 150.923 26.2301 150.923H28.6146C28.9818 150.923 29.3339 151.069 29.5936 151.329C29.8532 151.589 29.9991 151.941 29.9991 152.308V157.077C29.9991 157.444 29.8532 157.796 29.5936 158.056C29.3339 158.316 28.9818 158.461 28.6146 158.461H26.2301C26.1791 158.461 26.1302 158.441 26.0941 158.405C26.0597 158.371 26.0397 158.325 26.0379 158.276ZM1.40574 151.329C1.66538 151.069 2.01754 150.924 2.38473 150.924H4.76924C4.82022 150.924 4.86912 150.944 4.90518 150.98C4.94123 151.016 4.96149 151.065 4.96149 151.116V158.269C4.96149 158.32 4.94123 158.369 4.90518 158.405C4.86912 158.441 4.82023 158.462 4.76924 158.462H2.38473C2.01754 158.462 1.66538 158.316 1.40574 158.056C1.14609 157.796 1.00023 157.444 1.00023 157.077V152.308C1.00023 151.941 1.14609 151.589 1.40574 151.329ZM13.711 164.039C13.1857 164.039 12.6819 164.247 12.3105 164.619C11.939 164.99 11.7304 165.494 11.7304 166.019C11.7304 166.545 11.939 167.048 12.3105 167.42C12.6819 167.791 13.1857 168 13.711 168H17.2878C17.813 168 18.3168 167.791 18.6883 167.42C19.0597 167.048 19.2684 166.545 19.2684 166.019C19.2684 165.494 19.0597 164.99 18.6883 164.619C18.3168 164.247 17.813 164.039 17.2878 164.039H13.711ZM5.53846 283.538C5.53846 281.032 7.5704 279 10.0769 279C12.5834 279 14.6154 281.032 14.6154 283.538C14.6154 286.045 12.5834 288.077 10.0769 288.077C7.5704 288.077 5.53846 286.045 5.53846 283.538ZM10.0769 277C6.46583 277 3.53846 279.927 3.53846 283.538C3.53846 287.15 6.46583 290.077 10.0769 290.077C13.688 290.077 16.6154 287.15 16.6154 283.538C16.6154 279.927 13.688 277 10.0769 277ZM10.0769 295C7.40436 295 4.84125 296.062 2.95146 297.951C1.06167 299.841 0 302.404 0 305.077V306.538H20.1538V305.077C20.1538 302.404 19.0922 299.841 17.2024 297.951C15.3126 296.062 12.7495 295 10.0769 295ZM1.53725 296.537C3.80211 294.272 6.87392 293 10.0769 293C13.2799 293 16.3517 294.272 18.6166 296.537C20.8815 298.802 22.1538 301.874 22.1538 305.077V307.538C22.1538 308.091 21.7061 308.538 21.1538 308.538H-1C-1.55228 308.538 -2 308.091 -2 307.538V305.077C-2 301.874 -0.727613 298.802 1.53725 296.537ZM19.9231 277C19.3708 277 18.9231 277.448 18.9231 278C18.9231 278.552 19.3708 279 19.9231 279C21.1268 279 22.2811 279.478 23.1323 280.329C23.9834 281.18 24.4615 282.335 24.4615 283.538C24.4615 284.742 23.9834 285.897 23.1323 286.748C22.2811 287.599 21.1268 288.077 19.9231 288.077C19.3708 288.077 18.9231 288.525 18.9231 289.077C18.9231 289.629 19.3708 290.077 19.9231 290.077C21.6572 290.077 23.3203 289.388 24.5465 288.162C25.7727 286.936 26.4615 285.273 26.4615 283.538C26.4615 281.804 25.7727 280.141 24.5465 278.915C23.3203 277.689 21.6572 277 19.9231 277ZM22.9259 294.112C23.1223 293.596 23.6999 293.337 24.2161 293.533C26.5023 294.403 28.4704 295.946 29.8602 297.959C31.25 299.971 31.9958 302.359 31.999 304.805V304.806V307.538C31.999 308.091 31.5513 308.538 30.999 308.538H27.3067C26.7544 308.538 26.3067 308.091 26.3067 307.538C26.3067 306.986 26.7544 306.538 27.3067 306.538H29.999V304.807C29.9962 302.766 29.3739 300.774 28.2144 299.095C27.0548 297.416 25.4125 296.128 23.505 295.402C22.9888 295.206 22.7296 294.628 22.9259 294.112ZM14.0382 206H14.0353C13.365 206.002 12.7095 206.203 12.1546 206.579C11.6 206.954 11.1708 207.487 10.9261 208.111L10.9256 208.112L10.0483 210.34L7.1866 211.937L4.7562 211.573L4.74015 211.57C4.08619 211.483 3.42005 211.589 2.82584 211.875C2.23148 212.162 1.73444 212.617 1.40002 213.185L1.39723 213.19L0.461722 214.801C0.118931 215.377 -0.0396935 216.043 0.00843787 216.712C0.0567281 217.383 0.310642 218.022 0.734194 218.545L0.737906 218.549L2.27065 220.419V223.588L0.781124 225.455L0.778585 225.458C0.356545 225.981 0.103549 226.618 0.0553553 227.288C0.00722337 227.957 0.165851 228.623 0.508646 229.199L1.44413 230.81L1.44695 230.815C1.78135 231.383 2.2784 231.838 2.87276 232.125C3.46697 232.411 4.1331 232.517 4.78707 232.43L4.80312 232.427L7.23031 232.063L10.0471 233.657L10.9256 235.888C11.1703 236.512 11.5998 237.046 12.1546 237.421C12.7095 237.797 13.365 237.998 14.0353 238H14.0382H16.0087H16.0116C16.6819 237.998 17.3374 237.797 17.8923 237.421C18.4473 237.046 18.8766 236.512 19.1213 235.888L19.9998 233.657L22.8166 232.063L25.2438 232.427L25.2598 232.43C25.9138 232.517 26.58 232.411 27.1742 232.125C27.7685 231.838 28.2656 231.383 28.6 230.815L28.6028 230.81L29.5383 229.199C29.8811 228.623 30.0397 227.957 29.9916 227.288C29.9433 226.617 29.6894 225.978 29.2658 225.455L29.2621 225.451L27.7293 223.581V220.412L29.2189 218.545L29.2214 218.542C29.6434 218.019 29.8965 217.382 29.9446 216.712C29.9928 216.043 29.8341 215.377 29.4913 214.8L28.5559 213.19L28.553 213.185C28.2186 212.617 27.7216 212.162 27.1272 211.875C26.533 211.589 25.8669 211.483 25.2129 211.57L25.1969 211.573L22.7697 211.937L19.9529 210.343L19.0744 208.112C18.8297 207.488 18.4003 206.954 17.8454 206.579C17.2905 206.203 16.635 206.002 15.9647 206H15.9618H14.0382ZM14.0398 208H15.9602C16.2345 208.001 16.5008 208.084 16.7242 208.235C16.9477 208.386 17.1169 208.598 17.2125 208.842L17.213 208.843L18.2217 211.405C18.3057 211.618 18.4603 211.796 18.6596 211.909L22.0846 213.847C22.279 213.957 22.5046 213.999 22.7256 213.966L25.4846 213.552C25.7502 213.518 26.0197 213.562 26.2588 213.677C26.4991 213.793 26.6964 213.975 26.828 214.197L26.8293 214.199L27.7647 215.81L27.7711 215.821C27.9068 216.048 27.9685 216.308 27.9498 216.568C27.9311 216.829 27.8326 217.079 27.6648 217.286L27.6602 217.292L25.9477 219.438C25.8063 219.615 25.7293 219.835 25.7293 220.062V223.938C25.7293 224.17 25.8094 224.394 25.956 224.572L27.7117 226.714L27.7133 226.716C27.8801 226.923 27.9781 227.172 27.9967 227.432C28.0154 227.692 27.9537 227.952 27.818 228.179L27.8117 228.19L26.8762 229.801L26.875 229.803C26.7434 230.025 26.546 230.207 26.3057 230.323C26.0666 230.438 25.7972 230.482 25.5316 230.448L22.7725 230.034C22.5516 230.001 22.3259 230.043 22.1315 230.153L18.7065 232.091C18.5072 232.204 18.3526 232.382 18.2687 232.595L17.2599 235.157L17.2594 235.158C17.1639 235.402 16.9946 235.614 16.7711 235.765C16.5477 235.916 16.2814 235.999 16.007 236H14.04C13.7655 235.999 13.4992 235.916 13.2758 235.765C13.0523 235.614 12.8831 235.402 12.7875 235.158L12.787 235.157L11.7783 232.595C11.6943 232.382 11.5397 232.204 11.3404 232.091L7.9154 230.153C7.721 230.043 7.49535 230.001 7.27444 230.034L4.51535 230.448C4.24973 230.482 3.98028 230.438 3.74119 230.323C3.50091 230.207 3.30359 230.025 3.17199 229.803L3.17075 229.801L2.23527 228.19L2.22889 228.179C2.09319 227.952 2.03148 227.692 2.0502 227.432C2.06892 227.171 2.16744 226.921 2.33524 226.714L2.33983 226.708L4.05231 224.562C4.19367 224.385 4.27065 224.165 4.27065 223.938V220.062C4.27065 219.83 4.19056 219.606 4.044 219.428L2.28672 217.284C2.1199 217.077 2.02194 216.828 2.00328 216.568C1.98456 216.308 2.04627 216.048 2.18204 215.821L2.18828 215.81L3.12504 214.197C3.25664 213.975 3.45397 213.793 3.69427 213.677C3.93338 213.562 4.20286 213.518 4.4685 213.552L7.22753 213.966C7.44647 213.999 7.67012 213.958 7.86342 213.85L11.3353 211.912C11.5371 211.799 11.6936 211.62 11.7783 211.405L12.787 208.843L12.7875 208.842C12.8831 208.598 13.0523 208.386 13.2758 208.235C13.4992 208.084 13.7655 208.001 14.0398 208ZM15 216.385C13.4957 216.385 12.0498 216.972 10.9812 218.024C9.91198 219.075 9.30826 220.505 9.30826 222C9.30826 223.114 9.64424 224.202 10.2717 225.126C10.8991 226.05 11.7891 226.767 12.8272 227.19C13.8652 227.613 15.0065 227.724 16.1073 227.508C17.2083 227.293 18.2218 226.761 19.0188 225.976C19.816 225.192 20.3609 224.191 20.5818 223.099C20.8027 222.006 20.6891 220.874 20.2562 219.846C19.8234 218.818 19.0916 217.942 18.1559 217.327C17.2203 216.712 16.1221 216.385 15 216.385ZM12.3837 219.449C13.0748 218.769 14.0156 218.385 15 218.385C15.7338 218.385 16.4498 218.599 17.0573 218.998C17.6647 219.397 18.1356 219.963 18.413 220.622C18.6903 221.28 18.7626 222.004 18.6214 222.702C18.4803 223.4 18.1314 224.044 17.6163 224.551C17.101 225.058 16.4425 225.405 15.7233 225.545C15.0039 225.686 14.2585 225.614 13.5819 225.338C12.9054 225.062 12.3299 224.597 11.9262 224.002C11.5226 223.408 11.3083 222.711 11.3083 222C11.3083 221.046 11.6932 220.129 12.3837 219.449ZM27.6923 374C28.4145 374 29 373.415 29 372.692V347.308C29 346.585 28.4145 346 27.6923 346H2.30769C1.58547 346 1 346.585 1 347.308V372.692C1 373.415 1.58547 374 2.30769 374H27.6923ZM31 372.692C31 374.519 29.5191 376 27.6923 376H2.30769C0.480904 376 -1 374.519 -1 372.692V347.308C-1 345.481 0.480904 344 2.30769 344H27.6923C29.5191 344 31 345.481 31 347.308V372.692ZM5.76976 349.769C5.21748 349.769 4.76976 350.217 4.76976 350.769C4.76976 351.321 5.21748 351.769 5.76976 351.769H10.3851C10.9374 351.769 11.3851 351.321 11.3851 350.769C11.3851 350.217 10.9374 349.769 10.3851 349.769H5.76976ZM4.76976 356.538C4.76976 355.986 5.21748 355.538 5.76976 355.538H16.1544C16.7067 355.538 17.1544 355.986 17.1544 356.538C17.1544 357.091 16.7067 357.538 16.1544 357.538H5.76976C5.21748 357.538 4.76976 357.091 4.76976 356.538ZM26.2426 357.053C26.5268 356.579 26.3732 355.965 25.8996 355.681C25.4261 355.397 24.8118 355.55 24.5277 356.024L18.1082 366.723L10.8813 362.593C10.425 362.332 9.84464 362.469 9.55309 362.907L4.93771 369.83C4.63136 370.289 4.75553 370.91 5.21506 371.217C5.67459 371.523 6.29546 371.399 6.60181 370.939L10.6994 364.793L17.9659 368.945C18.4382 369.215 19.0397 369.058 19.3196 368.591L26.2426 357.053Z" fill="url(#paint0_linear_62_1657)"/>
</g>
<defs>
<linearGradient id="paint0_linear_62_1657" x1="14.9995" y1="0" x2="14.9995" y2="376" gradientUnits="userSpaceOnUse">
<stop stop-color="#1FB8EC"/>
<stop offset="1" stop-color="#F3348F"/>
</linearGradient>
</defs>
</svg>
