<svg width="32" height="32" viewBox="0 0 32 32" fill="none" xmlns="http://www.w3.org/2000/svg">
<mask id="mask0_62_1672" style="mask-type:alpha" maskUnits="userSpaceOnUse" x="0" y="0" width="32" height="32">
<rect width="32" height="32" fill="#D9D9D9"/>
</mask>
<g mask="url(#mask0_62_1672)">
<path fill-rule="evenodd" clip-rule="evenodd" d="M3.0769 -342C3.03443 -342 3 -341.966 3 -341.923V-329C3 -328.958 3.03443 -328.923 3.0769 -328.923H11.6921C11.7346 -328.923 11.769 -328.958 11.769 -329V-341.923C11.769 -341.966 11.7346 -342 11.6921 -342H3.0769ZM1 -341.923C1 -343.07 1.92986 -344 3.0769 -344H11.6921C12.8392 -344 13.769 -343.07 13.769 -341.923V-329C13.769 -327.853 12.8392 -326.923 11.6921 -326.923H3.0769C1.92986 -326.923 1 -327.853 1 -329V-341.923ZM20.2303 -341.923C20.2303 -341.966 20.2647 -342 20.3072 -342H28.9224C28.9649 -342 28.9993 -341.966 28.9993 -341.923V-337.594C28.9993 -337.551 28.9649 -337.517 28.9224 -337.517H20.3072C20.2647 -337.517 20.2303 -337.551 20.2303 -337.594V-341.923ZM20.3072 -344C19.1602 -344 18.2303 -343.07 18.2303 -341.923V-337.594C18.2303 -336.447 19.1602 -335.517 20.3072 -335.517H28.9224C30.0695 -335.517 30.9993 -336.447 30.9993 -337.594V-341.923C30.9993 -343.07 30.0695 -344 28.9224 -344H20.3072ZM20.2303 -329C20.2303 -329.043 20.2647 -329.077 20.3072 -329.077H28.9224C28.9649 -329.077 28.9993 -329.043 28.9993 -329V-316.078C28.9993 -316.035 28.9649 -316.001 28.9224 -316.001H20.3072C20.2647 -316.001 20.2303 -316.035 20.2303 -316.078V-329ZM20.3072 -331.077C19.1602 -331.077 18.2303 -330.147 18.2303 -329V-316.078C18.2303 -314.93 19.1602 -314.001 20.3072 -314.001H28.9224C30.0695 -314.001 30.9993 -314.93 30.9993 -316.078V-329C30.9993 -330.147 30.0695 -331.077 28.9224 -331.077H20.3072ZM3 -320.406C3 -320.448 3.03443 -320.483 3.0769 -320.483H11.6921C11.7346 -320.483 11.769 -320.448 11.769 -320.406V-316.077C11.769 -316.034 11.7346 -316 11.6921 -316H3.0769C3.03443 -316 3 -316.034 3 -316.077V-320.406ZM3.0769 -322.483C1.92986 -322.483 1 -321.553 1 -320.406V-316.077C1 -314.93 1.92986 -314 3.0769 -314H11.6921C12.8392 -314 13.769 -314.93 13.769 -316.077V-320.406C13.769 -321.553 12.8392 -322.483 11.6921 -322.483H3.0769ZM15.9083 -265.615C13.2213 -265.615 11.043 -263.437 11.043 -260.75C11.043 -258.063 13.2213 -255.885 15.9083 -255.885C18.5954 -255.885 20.7737 -258.063 20.7737 -260.75C20.7737 -263.437 18.5954 -265.615 15.9083 -265.615ZM16.9082 -267.543V-276C16.9082 -276.552 16.4605 -277 15.9082 -277C15.3559 -277 14.9082 -276.552 14.9082 -276V-267.543C11.5906 -267.059 9.04297 -264.202 9.04297 -260.75C9.04297 -256.958 12.1167 -253.885 15.9083 -253.885C19.6999 -253.885 22.7737 -256.958 22.7737 -260.75C22.7737 -264.202 20.2259 -267.059 16.9082 -267.543ZM20.8827 -272.701C21.1338 -273.193 21.736 -273.388 22.228 -273.137C24.511 -271.972 26.4276 -270.198 27.7659 -268.012C29.1042 -265.826 29.8123 -263.313 29.8118 -260.75V-251.365C29.8118 -250.478 29.4593 -249.627 28.8318 -248.999C28.2043 -248.372 27.3532 -248.019 26.4657 -248.019H22.7734V-245.5C22.7734 -244.948 22.3257 -244.5 21.7734 -244.5C21.2212 -244.5 20.7734 -244.948 20.7734 -245.5V-249.019C20.7734 -249.572 21.2212 -250.019 21.7734 -250.019H26.4657C26.8227 -250.019 27.1651 -250.161 27.4176 -250.414C27.67 -250.666 27.8118 -251.008 27.8118 -251.365V-260.75C27.8123 -262.944 27.2061 -265.096 26.0602 -266.968C24.9144 -268.84 23.2735 -270.358 21.3189 -271.355C20.827 -271.606 20.6317 -272.209 20.8827 -272.701ZM10.4973 -271.355C10.9893 -271.606 11.1848 -272.208 10.934 -272.7C10.6832 -273.192 10.081 -273.388 9.58892 -273.137C7.30494 -271.973 5.38735 -270.199 4.04807 -268.013C2.7088 -265.827 2 -263.314 2 -260.75C2 -258.186 2.7088 -255.673 4.04807 -253.487C5.27924 -251.477 6.99913 -249.816 9.0431 -248.657V-245.5C9.0431 -244.948 9.49082 -244.5 10.0431 -244.5C10.5954 -244.5 11.0431 -244.948 11.0431 -245.5V-249.254C11.0431 -249.63 10.8322 -249.974 10.4973 -250.145C8.54184 -251.142 6.90009 -252.66 5.75347 -254.531C4.60684 -256.403 4 -258.555 4 -260.75C4 -262.945 4.60684 -265.097 5.75347 -266.969C6.90009 -268.84 8.54184 -270.358 10.4973 -271.355ZM16.4818 -204.999C15.3807 -205.018 14.2865 -204.821 13.2619 -204.417C12.2373 -204.013 11.3025 -203.411 10.511 -202.645C9.71954 -201.879 9.08693 -200.965 8.64944 -199.954C8.21293 -198.946 7.97925 -197.861 7.96168 -196.763V-190.499L7.96149 -190.479V-185.731C7.96149 -185.149 7.73052 -184.592 7.31939 -184.181C6.90826 -183.769 6.35066 -183.538 5.76924 -183.538H3.38473C2.4871 -183.538 1.62624 -183.895 0.991524 -184.53C0.356807 -185.164 0.000225663 -186.025 0.000225663 -186.923V-191.692C0.000225663 -192.59 0.356807 -193.45 0.991524 -194.085C1.62624 -194.72 2.4871 -195.076 3.38473 -195.076H5.76924C5.83373 -195.076 5.89794 -195.074 5.96168 -195.068V-196.77L5.9618 -196.786C5.98241 -198.15 6.27201 -199.497 6.81402 -200.749C7.35602 -202.001 8.13977 -203.134 9.12036 -204.082C10.101 -205.031 11.2591 -205.777 12.5285 -206.277C13.7923 -206.776 15.1416 -207.021 16.4997 -206.999C17.8578 -207.021 19.2071 -206.776 20.4709 -206.277C21.7403 -205.777 22.8985 -205.031 23.879 -204.082C24.8596 -203.134 25.6434 -202.001 26.1854 -200.749C26.7274 -199.497 27.017 -198.15 27.0376 -196.786L27.0377 -196.77V-195.068C27.1014 -195.074 27.1656 -195.077 27.2301 -195.077H29.6146C30.5122 -195.077 31.3731 -194.72 32.0078 -194.085C32.6425 -193.451 32.9991 -192.59 32.9991 -191.692V-186.923C32.9991 -186.025 32.6425 -185.165 32.0078 -184.53C31.3731 -183.895 30.5122 -183.539 29.6146 -183.539H27.2301C27.1657 -183.539 27.1016 -183.541 27.0379 -183.547V-182.75C27.0379 -181.22 26.4301 -179.752 25.3482 -178.671C24.4782 -177.801 23.3588 -177.237 22.158 -177.05C21.9878 -176.342 21.6254 -175.689 21.1025 -175.166C20.356 -174.42 19.3435 -174 18.2878 -174H14.711C13.6553 -174 12.6428 -174.42 11.8963 -175.166C11.1498 -175.913 10.7304 -176.925 10.7304 -177.981C10.7304 -179.036 11.1498 -180.049 11.8963 -180.795C12.6428 -181.542 13.6553 -181.961 14.711 -181.961H18.2878C19.3435 -181.961 20.356 -181.542 21.1025 -180.795C21.5844 -180.314 21.9301 -179.721 22.1145 -179.077C22.7981 -179.234 23.4301 -179.581 23.934 -180.085C24.6409 -180.792 25.0379 -181.75 25.0379 -182.75V-185.707L25.0378 -185.731V-190.485L25.0377 -190.499V-196.763C25.0202 -197.861 24.7865 -198.946 24.35 -199.954C23.9125 -200.965 23.2799 -201.879 22.4884 -202.645C21.6969 -203.411 20.7621 -204.013 19.7375 -204.417C18.7129 -204.821 17.6187 -205.018 16.5176 -204.999L16.4997 -205.998L16.4818 -204.999ZM27.0379 -185.724V-188.115L27.0378 -188.131V-192.884C27.0378 -192.935 27.0581 -192.984 27.0941 -193.02C27.1302 -193.056 27.1791 -193.077 27.2301 -193.077H29.6146C29.9818 -193.077 30.3339 -192.931 30.5936 -192.671C30.8532 -192.411 30.9991 -192.059 30.9991 -191.692V-186.923C30.9991 -186.556 30.8532 -186.204 30.5936 -185.944C30.3339 -185.684 29.9818 -185.539 29.6146 -185.539H27.2301C27.1791 -185.539 27.1302 -185.559 27.0941 -185.595C27.0597 -185.629 27.0397 -185.675 27.0379 -185.724ZM2.40574 -192.671C2.66538 -192.931 3.01754 -193.076 3.38473 -193.076H5.76924C5.82022 -193.076 5.86912 -193.056 5.90518 -193.02C5.94123 -192.984 5.96149 -192.935 5.96149 -192.884V-185.731C5.96149 -185.68 5.94123 -185.631 5.90518 -185.595C5.86912 -185.559 5.82023 -185.538 5.76924 -185.538H3.38473C3.01754 -185.538 2.66538 -185.684 2.40574 -185.944C2.14609 -186.204 2.00023 -186.556 2.00023 -186.923V-191.692C2.00023 -192.059 2.14609 -192.411 2.40574 -192.671ZM14.711 -179.961C14.1857 -179.961 13.6819 -179.753 13.3105 -179.381C12.939 -179.01 12.7304 -178.506 12.7304 -177.981C12.7304 -177.455 12.939 -176.952 13.3105 -176.58C13.6819 -176.209 14.1857 -176 14.711 -176H18.2878C18.813 -176 19.3168 -176.209 19.6883 -176.58C20.0597 -176.952 20.2684 -177.455 20.2684 -177.981C20.2684 -178.506 20.0597 -179.01 19.6883 -179.381C19.3168 -179.753 18.813 -179.961 18.2878 -179.961H14.711ZM6.53846 -60.4615C6.53846 -62.968 8.5704 -65 11.0769 -65C13.5834 -65 15.6154 -62.968 15.6154 -60.4615C15.6154 -57.955 13.5834 -55.9231 11.0769 -55.9231C8.5704 -55.9231 6.53846 -57.955 6.53846 -60.4615ZM11.0769 -67C7.46583 -67 4.53846 -64.0726 4.53846 -60.4615C4.53846 -56.8504 7.46583 -53.9231 11.0769 -53.9231C14.688 -53.9231 17.6154 -56.8504 17.6154 -60.4615C17.6154 -64.0726 14.688 -67 11.0769 -67ZM11.0769 -49C8.40436 -49 5.84125 -47.9383 3.95146 -46.0485C2.06167 -44.1588 1 -41.5956 1 -38.9231V-37.4615H21.1538V-38.9231C21.1538 -41.5956 20.0922 -44.1588 18.2024 -46.0485C16.3126 -47.9383 13.7495 -49 11.0769 -49ZM2.53725 -47.4627C4.80211 -49.7276 7.87392 -51 11.0769 -51C14.2799 -51 17.3517 -49.7276 19.6166 -47.4627C21.8815 -45.1979 23.1538 -42.1261 23.1538 -38.9231V-36.4615C23.1538 -35.9092 22.7061 -35.4615 22.1538 -35.4615H0C-0.552285 -35.4615 -1 -35.9092 -1 -36.4615V-38.9231C-1 -42.1261 0.272387 -45.1979 2.53725 -47.4627ZM20.9231 -67C20.3708 -67 19.9231 -66.5523 19.9231 -66C19.9231 -65.4477 20.3708 -65 20.9231 -65C22.1268 -65 23.2811 -64.5219 24.1323 -63.6707C24.9834 -62.8196 25.4615 -61.6652 25.4615 -60.4615C25.4615 -59.2579 24.9834 -58.1035 24.1323 -57.2523C23.2811 -56.4012 22.1268 -55.9231 20.9231 -55.9231C20.3708 -55.9231 19.9231 -55.4754 19.9231 -54.9231C19.9231 -54.3708 20.3708 -53.9231 20.9231 -53.9231C22.6572 -53.9231 24.3203 -54.6119 25.5465 -55.8381C26.7727 -57.0644 27.4615 -58.7274 27.4615 -60.4615C27.4615 -62.1956 26.7727 -63.8587 25.5465 -65.0849C24.3203 -66.3111 22.6572 -67 20.9231 -67ZM23.9259 -49.888C24.1223 -50.4042 24.6999 -50.6635 25.2161 -50.4671C27.5023 -49.5974 29.4704 -48.0541 30.8602 -46.0414C32.25 -44.0286 32.9958 -41.6413 32.999 -39.1953V-39.194V-36.4617C32.999 -35.9094 32.5513 -35.4617 31.999 -35.4617H28.3067C27.7544 -35.4617 27.3067 -35.9094 27.3067 -36.4617C27.3067 -37.014 27.7544 -37.4617 28.3067 -37.4617H30.999V-39.1934C30.9962 -41.234 30.3739 -43.2257 29.2144 -44.905C28.0548 -46.5844 26.4125 -47.8722 24.505 -48.5978C23.9888 -48.7942 23.7296 -49.3718 23.9259 -49.888ZM15.0382 -138H15.0353C14.365 -137.998 13.7095 -137.797 13.1546 -137.421C12.6 -137.046 12.1708 -136.513 11.9261 -135.889L11.9256 -135.888L11.0483 -133.66L8.1866 -132.063L5.7562 -132.427L5.74015 -132.43C5.08619 -132.517 4.42005 -132.411 3.82584 -132.125C3.23148 -131.838 2.73444 -131.383 2.40002 -130.815L2.39723 -130.81L1.46172 -129.199C1.11893 -128.623 0.960307 -127.957 1.00844 -127.288C1.05673 -126.617 1.31064 -125.978 1.73419 -125.455L1.73791 -125.451L3.27065 -123.581V-120.412L1.78112 -118.545L1.77858 -118.542C1.35654 -118.019 1.10355 -117.382 1.05536 -116.712C1.00722 -116.043 1.16585 -115.377 1.50865 -114.801L2.44413 -113.19L2.44695 -113.185C2.78135 -112.617 3.2784 -112.162 3.87276 -111.875C4.46697 -111.589 5.1331 -111.483 5.78707 -111.57L5.80312 -111.573L8.23031 -111.937L11.0471 -110.343L11.9256 -108.112C12.1703 -107.488 12.5998 -106.954 13.1546 -106.579C13.7095 -106.203 14.365 -106.002 15.0353 -106H15.0382H17.0087H17.0116C17.6819 -106.002 18.3374 -106.203 18.8923 -106.579C19.4473 -106.954 19.8766 -107.488 20.1213 -108.112L20.9998 -110.343L23.8166 -111.937L26.2438 -111.573L26.2598 -111.57C26.9138 -111.483 27.58 -111.589 28.1742 -111.875C28.7685 -112.162 29.2656 -112.617 29.6 -113.185L29.6028 -113.19L30.5383 -114.801C30.8811 -115.377 31.0397 -116.043 30.9916 -116.712C30.9433 -117.383 30.6894 -118.022 30.2658 -118.545L30.2621 -118.549L28.7293 -120.419V-123.588L30.2189 -125.455L30.2214 -125.458C30.6434 -125.981 30.8965 -126.618 30.9446 -127.288C30.9928 -127.957 30.8341 -128.623 30.4913 -129.2L29.5559 -130.81L29.553 -130.815C29.2186 -131.383 28.7216 -131.838 28.1272 -132.125C27.533 -132.411 26.8669 -132.517 26.2129 -132.43L26.1969 -132.427L23.7697 -132.063L20.9529 -133.657L20.0744 -135.888C19.8297 -136.512 19.4003 -137.046 18.8454 -137.421C18.2905 -137.797 17.635 -137.998 16.9647 -138H16.9618H15.0382ZM15.0398 -136H16.9602C17.2345 -135.999 17.5008 -135.916 17.7242 -135.765C17.9477 -135.614 18.1169 -135.402 18.2125 -135.158L18.213 -135.157L19.2217 -132.595C19.3057 -132.382 19.4603 -132.204 19.6596 -132.091L23.0846 -130.153C23.279 -130.043 23.5046 -130.001 23.7256 -130.034L26.4846 -130.448C26.7502 -130.482 27.0197 -130.438 27.2588 -130.323C27.4991 -130.207 27.6964 -130.025 27.828 -129.803L27.8293 -129.801L28.7647 -128.19L28.7711 -128.179C28.9068 -127.952 28.9685 -127.692 28.9498 -127.432C28.9311 -127.171 28.8326 -126.921 28.6648 -126.714L28.6602 -126.708L26.9477 -124.562C26.8063 -124.385 26.7293 -124.165 26.7293 -123.938V-120.062C26.7293 -119.83 26.8094 -119.606 26.956 -119.428L28.7117 -117.286L28.7133 -117.284C28.8801 -117.077 28.9781 -116.828 28.9967 -116.568C29.0154 -116.308 28.9537 -116.048 28.818 -115.821L28.8117 -115.81L27.8762 -114.199L27.875 -114.197C27.7434 -113.975 27.546 -113.793 27.3057 -113.677C27.0666 -113.562 26.7972 -113.518 26.5316 -113.552L23.7725 -113.966C23.5516 -113.999 23.3259 -113.957 23.1315 -113.847L19.7065 -111.909C19.5072 -111.796 19.3526 -111.618 19.2687 -111.405L18.2599 -108.843L18.2594 -108.842C18.1639 -108.598 17.9946 -108.386 17.7711 -108.235C17.5477 -108.084 17.2814 -108.001 17.007 -108H15.04C14.7655 -108.001 14.4992 -108.084 14.2758 -108.235C14.0523 -108.386 13.8831 -108.598 13.7875 -108.842L13.787 -108.843L12.7783 -111.405C12.6943 -111.618 12.5397 -111.796 12.3404 -111.909L8.9154 -113.847C8.721 -113.957 8.49535 -113.999 8.27444 -113.966L5.51535 -113.552C5.24973 -113.518 4.98028 -113.562 4.74119 -113.677C4.50091 -113.793 4.30359 -113.975 4.17199 -114.197L4.17075 -114.199L3.23527 -115.81L3.22889 -115.821C3.09319 -116.048 3.03148 -116.308 3.0502 -116.568C3.06892 -116.829 3.16744 -117.079 3.33524 -117.286L3.33983 -117.292L5.05231 -119.438C5.19367 -119.615 5.27065 -119.835 5.27065 -120.062V-123.938C5.27065 -124.17 5.19056 -124.394 5.044 -124.572L3.28672 -126.716C3.1199 -126.923 3.02194 -127.172 3.00328 -127.432C2.98456 -127.692 3.04627 -127.952 3.18204 -128.179L3.18828 -128.19L4.12504 -129.803C4.25664 -130.025 4.45397 -130.207 4.69427 -130.323C4.93338 -130.438 5.20286 -130.482 5.4685 -130.448L8.22753 -130.034C8.44647 -130.001 8.67012 -130.042 8.86342 -130.15L12.3353 -132.088C12.5371 -132.201 12.6936 -132.38 12.7783 -132.595L13.787 -135.157L13.7875 -135.158C13.8831 -135.402 14.0523 -135.614 14.2758 -135.765C14.4992 -135.916 14.7655 -135.999 15.0398 -136ZM16 -127.615C14.4957 -127.615 13.0498 -127.028 11.9812 -125.976C10.912 -124.925 10.3083 -123.495 10.3083 -122C10.3083 -120.886 10.6442 -119.798 11.2717 -118.874C11.8991 -117.95 12.7891 -117.233 13.8272 -116.81C14.8652 -116.387 16.0065 -116.276 17.1073 -116.492C18.2083 -116.707 19.2218 -117.239 20.0188 -118.024C20.816 -118.808 21.3609 -119.809 21.5818 -120.901C21.8027 -121.994 21.6891 -123.126 21.2562 -124.154C20.8234 -125.182 20.0916 -126.058 19.1559 -126.673C18.2203 -127.288 17.1221 -127.615 16 -127.615ZM13.3837 -124.551C14.0748 -125.231 15.0156 -125.615 16 -125.615C16.7338 -125.615 17.4498 -125.401 18.0573 -125.002C18.6647 -124.603 19.1356 -124.037 19.413 -123.378C19.6903 -122.72 19.7626 -121.996 19.6214 -121.298C19.4803 -120.6 19.1314 -119.956 18.6163 -119.449C18.101 -118.942 17.4425 -118.595 16.7233 -118.455C16.0039 -118.314 15.2585 -118.386 14.5819 -118.662C13.9054 -118.938 13.3299 -119.403 12.9262 -119.998C12.5226 -120.592 12.3083 -121.289 12.3083 -122C12.3083 -122.954 12.6932 -123.871 13.3837 -124.551ZM28.6923 30C29.4145 30 30 29.4145 30 28.6923V3.30768C30 2.58548 29.4145 2 28.6923 2H3.30769C2.58547 2 2 2.58548 2 3.30768V28.6923C2 29.4145 2.58547 30 3.30769 30H28.6923ZM32 28.6923C32 30.5191 30.5191 32 28.6923 32H3.30769C1.4809 32 0 30.5191 0 28.6923V3.30768C0 1.4809 1.4809 0 3.30769 0H28.6923C30.5191 0 32 1.4809 32 3.30768V28.6923ZM6.76976 5.7692C6.21748 5.7692 5.76976 6.21689 5.76976 6.7692C5.76976 7.32147 6.21748 7.7692 6.76976 7.7692H11.3851C11.9374 7.7692 12.3851 7.32147 12.3851 6.7692C12.3851 6.21689 11.9374 5.7692 11.3851 5.7692H6.76976ZM5.76976 12.5384C5.76976 11.9861 6.21748 11.5384 6.76976 11.5384H17.1544C17.7067 11.5384 18.1544 11.9861 18.1544 12.5384C18.1544 13.0907 17.7067 13.5384 17.1544 13.5384H6.76976C6.21748 13.5384 5.76976 13.0907 5.76976 12.5384ZM27.2426 13.0529C27.5268 12.5793 27.3732 11.965 26.8996 11.6809C26.4261 11.3967 25.8118 11.5503 25.5277 12.0239L19.1082 22.7229L11.8813 18.5932C11.425 18.3325 10.8446 18.4695 10.5531 18.9067L5.93771 25.8298C5.63136 26.2894 5.75553 26.9102 6.21506 27.2166C6.67459 27.5229 7.29546 27.3987 7.60181 26.9392L11.6994 20.7928L18.9659 24.9451C19.4382 25.215 20.0397 25.0578 20.3196 24.5913L27.2426 13.0529Z" fill="url(#paint0_linear_62_1672)"/>
</g>
<defs>
<linearGradient id="paint0_linear_62_1672" x1="15.9995" y1="-344" x2="15.9995" y2="32" gradientUnits="userSpaceOnUse">
<stop stop-color="#1FB8EC"/>
<stop offset="1" stop-color="#F3348F"/>
</linearGradient>
</defs>
</svg>
