<svg width="30" height="32" viewBox="0 0 30 32" fill="none" xmlns="http://www.w3.org/2000/svg">
<mask id="mask0_62_1666" style="mask-type:alpha" maskUnits="userSpaceOnUse" x="0" y="0" width="30" height="32">
<rect width="30" height="32" fill="#D9D9D9"/>
</mask>
<g mask="url(#mask0_62_1666)">
<path fill-rule="evenodd" clip-rule="evenodd" d="M2.0769 -204C2.03443 -204 2 -203.966 2 -203.923V-191C2 -190.958 2.03443 -190.923 2.0769 -190.923H10.6921C10.7346 -190.923 10.769 -190.958 10.769 -191V-203.923C10.769 -203.966 10.7346 -204 10.6921 -204H2.0769ZM0 -203.923C0 -205.07 0.929861 -206 2.0769 -206H10.6921C11.8392 -206 12.769 -205.07 12.769 -203.923V-191C12.769 -189.853 11.8392 -188.923 10.6921 -188.923H2.0769C0.929861 -188.923 0 -189.853 0 -191V-203.923ZM19.2303 -203.923C19.2303 -203.966 19.2647 -204 19.3072 -204H27.9224C27.9649 -204 27.9993 -203.966 27.9993 -203.923V-199.594C27.9993 -199.551 27.9649 -199.517 27.9224 -199.517H19.3072C19.2647 -199.517 19.2303 -199.551 19.2303 -199.594V-203.923ZM19.3072 -206C18.1602 -206 17.2303 -205.07 17.2303 -203.923V-199.594C17.2303 -198.447 18.1602 -197.517 19.3072 -197.517H27.9224C29.0695 -197.517 29.9993 -198.447 29.9993 -199.594V-203.923C29.9993 -205.07 29.0695 -206 27.9224 -206H19.3072ZM19.2303 -191C19.2303 -191.043 19.2647 -191.077 19.3072 -191.077H27.9224C27.9649 -191.077 27.9993 -191.043 27.9993 -191V-178.078C27.9993 -178.035 27.9649 -178.001 27.9224 -178.001H19.3072C19.2647 -178.001 19.2303 -178.035 19.2303 -178.078V-191ZM19.3072 -193.077C18.1602 -193.077 17.2303 -192.147 17.2303 -191V-178.078C17.2303 -176.93 18.1602 -176.001 19.3072 -176.001H27.9224C29.0695 -176.001 29.9993 -176.93 29.9993 -178.078V-191C29.9993 -192.147 29.0695 -193.077 27.9224 -193.077H19.3072ZM2 -182.406C2 -182.448 2.03443 -182.483 2.0769 -182.483H10.6921C10.7346 -182.483 10.769 -182.448 10.769 -182.406V-178.077C10.769 -178.034 10.7346 -178 10.6921 -178H2.0769C2.03443 -178 2 -178.034 2 -178.077V-182.406ZM2.0769 -184.483C0.929861 -184.483 0 -183.553 0 -182.406V-178.077C0 -176.93 0.929861 -176 2.0769 -176H10.6921C11.8392 -176 12.769 -176.93 12.769 -178.077V-182.406C12.769 -183.553 11.8392 -184.483 10.6921 -184.483H2.0769ZM14.9083 -127.615C12.2213 -127.615 10.043 -125.437 10.043 -122.75C10.043 -120.063 12.2213 -117.885 14.9083 -117.885C17.5954 -117.885 19.7737 -120.063 19.7737 -122.75C19.7737 -125.437 17.5954 -127.615 14.9083 -127.615ZM15.9082 -129.543V-138C15.9082 -138.552 15.4605 -139 14.9082 -139C14.3559 -139 13.9082 -138.552 13.9082 -138V-129.543C10.5906 -129.059 8.04297 -126.202 8.04297 -122.75C8.04297 -118.958 11.1167 -115.885 14.9083 -115.885C18.6999 -115.885 21.7737 -118.958 21.7737 -122.75C21.7737 -126.202 19.2259 -129.059 15.9082 -129.543ZM19.8827 -134.701C20.1338 -135.193 20.736 -135.388 21.228 -135.137C23.511 -133.972 25.4276 -132.198 26.7659 -130.012C28.1042 -127.826 28.8123 -125.313 28.8118 -122.75V-113.365C28.8118 -112.478 28.4593 -111.627 27.8318 -110.999C27.2043 -110.372 26.3532 -110.019 25.4657 -110.019H21.7734V-107.5C21.7734 -106.948 21.3257 -106.5 20.7734 -106.5C20.2212 -106.5 19.7734 -106.948 19.7734 -107.5V-111.019C19.7734 -111.572 20.2212 -112.019 20.7734 -112.019H25.4657C25.8227 -112.019 26.1651 -112.161 26.4176 -112.414C26.67 -112.666 26.8118 -113.008 26.8118 -113.365V-122.75C26.8123 -124.944 26.2061 -127.096 25.0602 -128.968C23.9144 -130.84 22.2735 -132.358 20.3189 -133.355C19.827 -133.606 19.6317 -134.209 19.8827 -134.701ZM9.49728 -133.355C9.98932 -133.606 10.1848 -134.208 9.93401 -134.7C9.68317 -135.192 9.08096 -135.388 8.58892 -135.137C6.30494 -133.973 4.38735 -132.199 3.04807 -130.013C1.7088 -127.827 1 -125.314 1 -122.75C1 -120.186 1.7088 -117.673 3.04807 -115.487C4.27924 -113.477 5.99913 -111.816 8.0431 -110.657V-107.5C8.0431 -106.948 8.49082 -106.5 9.0431 -106.5C9.59539 -106.5 10.0431 -106.948 10.0431 -107.5V-111.254C10.0431 -111.63 9.83223 -111.974 9.49728 -112.145C7.54184 -113.142 5.90009 -114.66 4.75347 -116.531C3.60684 -118.403 3 -120.555 3 -122.75C3 -124.945 3.60684 -127.097 4.75347 -128.969C5.90009 -130.84 7.54184 -132.358 9.49728 -133.355ZM15.4818 -66.9987C14.3807 -67.0184 13.2865 -66.8207 12.2619 -66.4168C11.2373 -66.0129 10.3025 -65.4109 9.51103 -64.6451C8.71954 -63.8793 8.08693 -62.9649 7.64944 -61.9543C7.21293 -60.9458 6.97925 -59.8614 6.96168 -58.7627V-52.4992L6.96149 -52.4792V-47.7307C6.96149 -47.1493 6.73052 -46.5917 6.31939 -46.1806C5.90826 -45.7694 5.35066 -45.5385 4.76924 -45.5385H2.38473C1.4871 -45.5385 0.626242 -45.8951 -0.00847578 -46.5298C-0.643193 -47.1645 -0.999774 -48.0253 -0.999774 -48.923V-53.692C-0.999774 -54.5896 -0.643193 -55.4505 -0.00847578 -56.0852C0.626242 -56.7199 1.4871 -57.0765 2.38473 -57.0765H4.76924C4.83373 -57.0765 4.89794 -57.0736 4.96168 -57.068V-58.7705L4.9618 -58.7856C4.98241 -60.1498 5.27201 -61.4966 5.81402 -62.7487C6.35602 -64.0009 7.13977 -65.1338 8.12036 -66.0825C9.10095 -67.0312 10.2591 -67.7771 11.5285 -68.2775C12.7923 -68.7756 14.1416 -69.0206 15.4997 -68.9986C16.8578 -69.0206 18.2071 -68.7756 19.4709 -68.2775C20.7403 -67.7771 21.8985 -67.0312 22.879 -66.0825C23.8596 -65.1338 24.6434 -64.0009 25.1854 -62.7487C25.7274 -61.4966 26.017 -60.1498 26.0376 -58.7856L26.0377 -58.7705V-57.0681C26.1014 -57.0737 26.1656 -57.0765 26.2301 -57.0765H28.6146C29.5122 -57.0765 30.3731 -56.7199 31.0078 -56.0852C31.6425 -55.4505 31.9991 -54.5896 31.9991 -53.692V-48.923C31.9991 -48.0254 31.6425 -47.1645 31.0078 -46.5298C30.3731 -45.8951 29.5122 -45.5385 28.6146 -45.5385H26.2301C26.1657 -45.5385 26.1016 -45.5413 26.0379 -45.5469V-44.7499C26.0379 -43.2198 25.4301 -41.7525 24.3482 -40.6706C23.4782 -39.8005 22.3588 -39.2371 21.158 -39.0498C20.9878 -38.3424 20.6254 -37.6889 20.1025 -37.166C19.356 -36.4195 18.3435 -36.0001 17.2878 -36.0001H13.711C12.6553 -36.0001 11.6428 -36.4195 10.8963 -37.166C10.1498 -37.9125 9.73037 -38.925 9.73037 -39.9808C9.73037 -41.0365 10.1498 -42.049 10.8963 -42.7955C11.6428 -43.542 12.6553 -43.9614 13.711 -43.9614H17.2878C18.3435 -43.9614 19.356 -43.542 20.1025 -42.7955C20.5844 -42.3135 20.9301 -41.7207 21.1145 -41.0769C21.7981 -41.2343 22.4301 -41.5808 22.934 -42.0848C23.6409 -42.7916 24.0379 -43.7503 24.0379 -44.7499V-47.7069L24.0378 -47.7308V-52.485L24.0377 -52.4992V-58.7627C24.0202 -59.8614 23.7865 -60.9458 23.35 -61.9543C22.9125 -62.9649 22.2799 -63.8793 21.4884 -64.6451C20.6969 -65.4109 19.7621 -66.0129 18.7375 -66.4168C17.7129 -66.8207 16.6187 -67.0184 15.5176 -66.9987L15.4997 -67.9985L15.4818 -66.9987ZM26.0379 -47.7237V-50.115L26.0378 -50.1313V-54.8843C26.0378 -54.9353 26.0581 -54.9842 26.0941 -55.0202C26.1302 -55.0563 26.1791 -55.0765 26.2301 -55.0765H28.6146C28.9818 -55.0765 29.3339 -54.9307 29.5936 -54.671C29.8532 -54.4114 29.9991 -54.0592 29.9991 -53.692V-48.923C29.9991 -48.5558 29.8532 -48.2037 29.5936 -47.944C29.3339 -47.6844 28.9818 -47.5385 28.6146 -47.5385H26.2301C26.1791 -47.5385 26.1302 -47.5588 26.0941 -47.5948C26.0597 -47.6292 26.0397 -47.6753 26.0379 -47.7237ZM1.40574 -54.671C1.66538 -54.9306 2.01754 -55.0765 2.38473 -55.0765H4.76924C4.82022 -55.0765 4.86912 -55.0562 4.90518 -55.0202C4.94123 -54.9841 4.96149 -54.9352 4.96149 -54.8842V-47.7307C4.96149 -47.6797 4.94123 -47.6308 4.90518 -47.5948C4.86912 -47.5587 4.82023 -47.5385 4.76924 -47.5385H2.38473C2.01754 -47.5385 1.66538 -47.6843 1.40574 -47.944C1.14609 -48.2036 1.00023 -48.5558 1.00023 -48.923V-53.692C1.00023 -54.0592 1.14609 -54.4113 1.40574 -54.671ZM13.711 -41.9614C13.1857 -41.9614 12.6819 -41.7527 12.3105 -41.3813C11.939 -41.0098 11.7304 -40.5061 11.7304 -39.9808C11.7304 -39.4555 11.939 -38.9517 12.3105 -38.5802C12.6819 -38.2088 13.1857 -38.0001 13.711 -38.0001H17.2878C17.813 -38.0001 18.3168 -38.2088 18.6883 -38.5802C19.0597 -38.9517 19.2684 -39.4555 19.2684 -39.9808C19.2684 -40.5061 19.0597 -41.0098 18.6883 -41.3813C18.3168 -41.7527 17.813 -41.9614 17.2878 -41.9614H13.711ZM5.53846 77.5385C5.53846 75.032 7.5704 73 10.0769 73C12.5834 73 14.6154 75.032 14.6154 77.5385C14.6154 80.045 12.5834 82.0769 10.0769 82.0769C7.5704 82.0769 5.53846 80.045 5.53846 77.5385ZM10.0769 71C6.46583 71 3.53846 73.9274 3.53846 77.5385C3.53846 81.1496 6.46583 84.0769 10.0769 84.0769C13.688 84.0769 16.6154 81.1496 16.6154 77.5385C16.6154 73.9274 13.688 71 10.0769 71ZM10.0769 89C7.40436 89 4.84125 90.0617 2.95146 91.9515C1.06167 93.8412 0 96.4044 0 99.0769V100.538H20.1538V99.0769C20.1538 96.4044 19.0922 93.8412 17.2024 91.9515C15.3126 90.0617 12.7495 89 10.0769 89ZM1.53725 90.5373C3.80211 88.2724 6.87392 87 10.0769 87C13.2799 87 16.3517 88.2724 18.6166 90.5373C20.8815 92.8021 22.1538 95.8739 22.1538 99.0769V101.538C22.1538 102.091 21.7061 102.538 21.1538 102.538H-1C-1.55228 102.538 -2 102.091 -2 101.538V99.0769C-2 95.8739 -0.727613 92.8021 1.53725 90.5373ZM19.9231 71C19.3708 71 18.9231 71.4477 18.9231 72C18.9231 72.5523 19.3708 73 19.9231 73C21.1268 73 22.2811 73.4781 23.1323 74.3293C23.9834 75.1804 24.4615 76.3348 24.4615 77.5385C24.4615 78.7421 23.9834 79.8965 23.1323 80.7477C22.2811 81.5988 21.1268 82.0769 19.9231 82.0769C19.3708 82.0769 18.9231 82.5246 18.9231 83.0769C18.9231 83.6292 19.3708 84.0769 19.9231 84.0769C21.6572 84.0769 23.3203 83.3881 24.5465 82.1619C25.7727 80.9356 26.4615 79.2726 26.4615 77.5385C26.4615 75.8044 25.7727 74.1413 24.5465 72.9151C23.3203 71.6889 21.6572 71 19.9231 71ZM22.9259 88.112C23.1223 87.5958 23.6999 87.3365 24.2161 87.5329C26.5023 88.4026 28.4704 89.9459 29.8602 91.9586C31.25 93.9714 31.9958 96.3587 31.999 98.8047V98.806V101.538C31.999 102.091 31.5513 102.538 30.999 102.538H27.3067C26.7544 102.538 26.3067 102.091 26.3067 101.538C26.3067 100.986 26.7544 100.538 27.3067 100.538H29.999V98.8066C29.9962 96.766 29.3739 94.7743 28.2144 93.095C27.0548 91.4156 25.4125 90.1278 23.505 89.4022C22.9888 89.2058 22.7296 88.6282 22.9259 88.112ZM14.0382 0H14.0353C13.365 0.00195312 12.7095 0.202927 12.1546 0.578552C11.6 0.954071 11.1708 1.48734 10.9261 2.11052L10.9256 2.11176L10.0483 4.33954L7.1866 5.93732L4.7562 5.57262L4.74015 5.57034C4.08619 5.48302 3.42005 5.58875 2.82584 5.87517C2.23148 6.16167 1.73444 6.61684 1.40002 7.18521L1.39723 7.19002L0.461722 8.80052C0.118931 9.3768 -0.0396935 10.0432 0.00843787 10.712C0.0567281 11.383 0.310642 12.0219 0.734194 12.5448L0.737906 12.5494L2.27065 14.4191V17.5884L0.781124 19.4552L0.778585 19.4583C0.356545 19.9806 0.103549 20.6184 0.0553553 21.288C0.00722337 21.9568 0.165851 22.6232 0.508646 23.1995L1.44413 24.81L1.44695 24.8148C1.78135 25.3832 2.2784 25.8383 2.87276 26.1248C3.46697 26.4113 4.1331 26.517 4.78707 26.4297L4.80312 26.4274L7.23031 26.0632L10.0471 27.6574L10.9256 29.8882C11.1703 30.5116 11.5998 31.0459 12.1546 31.4214C12.7095 31.7971 13.365 31.998 14.0353 32H14.0382H16.0087H16.0116C16.6819 31.998 17.3374 31.7971 17.8923 31.4214C18.4473 31.0457 18.8766 30.5121 19.1213 29.8884L19.9998 27.6574L22.8166 26.0632L25.2438 26.4274L25.2598 26.4297C25.9138 26.517 26.58 26.4113 27.1742 26.1248C27.7685 25.8383 28.2656 25.3832 28.6 24.8148L28.6028 24.81L29.5383 23.1994C29.8811 22.6232 30.0397 21.9568 29.9916 21.288C29.9433 20.617 29.6894 19.9781 29.2658 19.4552L29.2621 19.4506L27.7293 17.581V14.4116L29.2189 12.5448L29.2214 12.5417C29.6434 12.0194 29.8965 11.3817 29.9446 10.712C29.9928 10.0432 29.8341 9.37677 29.4913 8.80048L28.5559 7.19002L28.553 7.18523C28.2186 6.61684 27.7216 6.16167 27.1272 5.87517C26.533 5.58875 25.8669 5.48302 25.2129 5.57034L25.1969 5.57262L22.7697 5.93683L19.9529 4.34259L19.0744 2.11176C18.8297 1.48827 18.4003 0.954224 17.8454 0.578552C17.2905 0.202927 16.635 0.00195312 15.9647 0H15.9618H14.0382ZM14.0398 2H15.9602C16.2345 2.00105 16.5008 2.08353 16.7242 2.23474C16.9477 2.38605 17.1169 2.5984 17.2125 2.84209L17.213 2.84334L18.2217 5.40488C18.3057 5.61803 18.4603 5.7959 18.6596 5.90874L22.0846 7.8472C22.279 7.95723 22.5046 7.99899 22.7256 7.96585L25.4846 7.55183C25.7502 7.51773 26.0197 7.56152 26.2588 7.67679C26.4991 7.79262 26.6964 7.97459 26.828 8.19733L26.8293 8.19939L27.7647 9.81003L27.7711 9.82068C27.9068 10.0478 27.9685 10.3083 27.9498 10.5684C27.9311 10.8285 27.8326 11.0788 27.6648 11.2859L27.6602 11.2917L25.9477 13.4378C25.8063 13.615 25.7293 13.8349 25.7293 14.0615V17.9385C25.7293 18.1696 25.8094 18.3937 25.956 18.5724L27.7117 20.7141L27.7133 20.7161C27.8801 20.9228 27.9781 21.1723 27.9967 21.4316C28.0154 21.6917 27.9537 21.9522 27.818 22.1793L27.8117 22.19L26.8762 23.8006L26.875 23.8026C26.7434 24.0254 26.546 24.2074 26.3057 24.3232C26.0666 24.4385 25.7972 24.4823 25.5316 24.4482L22.7725 24.0341C22.5516 24.001 22.3259 24.0428 22.1315 24.1528L18.7065 26.0913C18.5072 26.2041 18.3526 26.382 18.2687 26.5951L17.2599 29.1567L17.2594 29.1579C17.1639 29.4016 16.9946 29.614 16.7711 29.7653C16.5477 29.9165 16.2814 29.999 16.007 30H14.04C13.7655 29.999 13.4992 29.9165 13.2758 29.7653C13.0523 29.614 12.8831 29.4016 12.7875 29.1579L12.787 29.1567L11.7783 26.5951C11.6943 26.382 11.5397 26.2041 11.3404 26.0913L7.9154 24.1528C7.721 24.0428 7.49535 24.001 7.27444 24.0341L4.51535 24.4482C4.24973 24.4823 3.98028 24.4385 3.74119 24.3232C3.50091 24.2074 3.30359 24.0254 3.17199 23.8027L3.17075 23.8006L2.23527 22.19L2.22889 22.1793C2.09319 21.9522 2.03148 21.6917 2.0502 21.4316C2.06892 21.1715 2.16744 20.9212 2.33524 20.7141L2.33983 20.7083L4.05231 18.5622C4.19367 18.385 4.27065 18.1651 4.27065 17.9385V14.0615C4.27065 13.8304 4.19056 13.6063 4.044 13.4276L2.28672 11.284C2.1199 11.0772 2.02194 10.8277 2.00328 10.5684C1.98456 10.3083 2.04627 10.0478 2.18204 9.82072L2.18828 9.80998L3.12504 8.19733C3.25664 7.97459 3.45397 7.79262 3.69427 7.67679C3.93338 7.56152 4.20286 7.51773 4.4685 7.55183L7.22753 7.96585C7.44647 7.9987 7.67012 7.95798 7.86342 7.85005L11.3353 5.91159C11.5371 5.79893 11.6936 5.61989 11.7783 5.40488L12.787 2.84334L12.7875 2.84209C12.8831 2.5984 13.0523 2.38605 13.2758 2.23474C13.4992 2.08353 13.7655 2.00105 14.0398 2ZM15 10.3846C13.4957 10.3846 12.0498 10.9723 10.9812 12.0235C9.91198 13.0753 9.30826 14.5054 9.30826 16C9.30826 17.1143 9.64424 18.2022 10.2717 19.126C10.8991 20.0497 11.7891 20.7671 12.8272 21.1901C13.8652 21.6131 15.0065 21.7235 16.1073 21.5081C17.2083 21.2927 18.2218 20.7605 19.0188 19.9765C19.816 19.1922 20.3609 18.191 20.5818 17.0986C20.8027 16.0061 20.6891 14.8738 20.2562 13.8457C19.8234 12.8178 19.0916 11.9419 18.1559 11.3268C17.2203 10.7119 16.1221 10.3846 15 10.3846ZM12.3837 13.4493C13.0748 12.7694 14.0156 12.3846 15 12.3846C15.7338 12.3846 16.4498 12.5987 17.0573 12.9981C17.6647 13.3973 18.1356 13.9631 18.413 14.6218C18.6903 15.2804 18.7626 16.0042 18.6214 16.7022C18.4803 17.4004 18.1314 18.044 17.6163 18.5507C17.101 19.0576 16.4425 19.4046 15.7233 19.5453C15.0039 19.6861 14.2585 19.6137 13.5819 19.338C12.9054 19.0623 12.3299 18.5966 11.9262 18.0023C11.5226 17.4081 11.3083 16.7114 11.3083 16C11.3083 15.0465 11.6932 14.1286 12.3837 13.4493ZM27.6923 168C28.4145 168 29 167.415 29 166.692V141.308C29 140.585 28.4145 140 27.6923 140H2.30769C1.58547 140 1 140.585 1 141.308V166.692C1 167.415 1.58547 168 2.30769 168H27.6923ZM31 166.692C31 168.519 29.5191 170 27.6923 170H2.30769C0.480904 170 -1 168.519 -1 166.692V141.308C-1 139.481 0.480904 138 2.30769 138H27.6923C29.5191 138 31 139.481 31 141.308V166.692ZM5.76976 143.769C5.21748 143.769 4.76976 144.217 4.76976 144.769C4.76976 145.321 5.21748 145.769 5.76976 145.769H10.3851C10.9374 145.769 11.3851 145.321 11.3851 144.769C11.3851 144.217 10.9374 143.769 10.3851 143.769H5.76976ZM4.76976 150.538C4.76976 149.986 5.21748 149.538 5.76976 149.538H16.1544C16.7067 149.538 17.1544 149.986 17.1544 150.538C17.1544 151.091 16.7067 151.538 16.1544 151.538H5.76976C5.21748 151.538 4.76976 151.091 4.76976 150.538ZM26.2426 151.053C26.5268 150.579 26.3732 149.965 25.8996 149.681C25.4261 149.397 24.8118 149.55 24.5277 150.024L18.1082 160.723L10.8813 156.593C10.425 156.332 9.84464 156.469 9.55309 156.907L4.93771 163.83C4.63136 164.289 4.75553 164.91 5.21506 165.217C5.67459 165.523 6.29546 165.399 6.60181 164.939L10.6994 158.793L17.9659 162.945C18.4382 163.215 19.0397 163.058 19.3196 162.591L26.2426 151.053Z" fill="url(#paint0_linear_62_1666)"/>
</g>
<defs>
<linearGradient id="paint0_linear_62_1666" x1="14.9995" y1="-206" x2="14.9995" y2="170" gradientUnits="userSpaceOnUse">
<stop stop-color="#1FB8EC"/>
<stop offset="1" stop-color="#F3348F"/>
</linearGradient>
</defs>
</svg>
