<svg width="34" height="32" viewBox="0 0 34 32" fill="none" xmlns="http://www.w3.org/2000/svg">
<mask id="mask0_62_1670" style="mask-type:alpha" maskUnits="userSpaceOnUse" x="0" y="0" width="34" height="32">
<rect width="34" height="32" fill="#D9D9D9"/>
</mask>
<g mask="url(#mask0_62_1670)">
<path fill-rule="evenodd" clip-rule="evenodd" d="M4.0769 -275C4.03443 -275 4 -274.966 4 -274.923V-262C4 -261.958 4.03443 -261.923 4.0769 -261.923H12.6921C12.7346 -261.923 12.769 -261.958 12.769 -262V-274.923C12.769 -274.966 12.7346 -275 12.6921 -275H4.0769ZM2 -274.923C2 -276.07 2.92986 -277 4.0769 -277H12.6921C13.8392 -277 14.769 -276.07 14.769 -274.923V-262C14.769 -260.853 13.8392 -259.923 12.6921 -259.923H4.0769C2.92986 -259.923 2 -260.853 2 -262V-274.923ZM21.2303 -274.923C21.2303 -274.966 21.2647 -275 21.3072 -275H29.9224C29.9649 -275 29.9993 -274.966 29.9993 -274.923V-270.594C29.9993 -270.551 29.9649 -270.517 29.9224 -270.517H21.3072C21.2647 -270.517 21.2303 -270.551 21.2303 -270.594V-274.923ZM21.3072 -277C20.1602 -277 19.2303 -276.07 19.2303 -274.923V-270.594C19.2303 -269.447 20.1602 -268.517 21.3072 -268.517H29.9224C31.0695 -268.517 31.9993 -269.447 31.9993 -270.594V-274.923C31.9993 -276.07 31.0695 -277 29.9224 -277H21.3072ZM21.2303 -262C21.2303 -262.043 21.2647 -262.077 21.3072 -262.077H29.9224C29.9649 -262.077 29.9993 -262.043 29.9993 -262V-249.078C29.9993 -249.035 29.9649 -249.001 29.9224 -249.001H21.3072C21.2647 -249.001 21.2303 -249.035 21.2303 -249.078V-262ZM21.3072 -264.077C20.1602 -264.077 19.2303 -263.147 19.2303 -262V-249.078C19.2303 -247.93 20.1602 -247.001 21.3072 -247.001H29.9224C31.0695 -247.001 31.9993 -247.93 31.9993 -249.078V-262C31.9993 -263.147 31.0695 -264.077 29.9224 -264.077H21.3072ZM4 -253.406C4 -253.448 4.03443 -253.483 4.0769 -253.483H12.6921C12.7346 -253.483 12.769 -253.448 12.769 -253.406V-249.077C12.769 -249.034 12.7346 -249 12.6921 -249H4.0769C4.03443 -249 4 -249.034 4 -249.077V-253.406ZM4.0769 -255.483C2.92986 -255.483 2 -254.553 2 -253.406V-249.077C2 -247.93 2.92986 -247 4.0769 -247H12.6921C13.8392 -247 14.769 -247.93 14.769 -249.077V-253.406C14.769 -254.553 13.8392 -255.483 12.6921 -255.483H4.0769ZM16.9083 -198.615C14.2213 -198.615 12.043 -196.437 12.043 -193.75C12.043 -191.063 14.2213 -188.885 16.9083 -188.885C19.5954 -188.885 21.7737 -191.063 21.7737 -193.75C21.7737 -196.437 19.5954 -198.615 16.9083 -198.615ZM17.9082 -200.543V-209C17.9082 -209.552 17.4605 -210 16.9082 -210C16.3559 -210 15.9082 -209.552 15.9082 -209V-200.543C12.5906 -200.059 10.043 -197.202 10.043 -193.75C10.043 -189.958 13.1167 -186.885 16.9083 -186.885C20.6999 -186.885 23.7737 -189.958 23.7737 -193.75C23.7737 -197.202 21.2259 -200.059 17.9082 -200.543ZM21.8827 -205.701C22.1338 -206.193 22.736 -206.388 23.228 -206.137C25.511 -204.972 27.4276 -203.198 28.7659 -201.012C30.1042 -198.826 30.8123 -196.313 30.8118 -193.75V-184.365C30.8118 -183.478 30.4593 -182.627 29.8318 -181.999C29.2043 -181.372 28.3532 -181.019 27.4657 -181.019H23.7734V-178.5C23.7734 -177.948 23.3257 -177.5 22.7734 -177.5C22.2212 -177.5 21.7734 -177.948 21.7734 -178.5V-182.019C21.7734 -182.572 22.2212 -183.019 22.7734 -183.019H27.4657C27.8227 -183.019 28.1651 -183.161 28.4176 -183.414C28.67 -183.666 28.8118 -184.008 28.8118 -184.365V-193.75C28.8123 -195.944 28.2061 -198.096 27.0602 -199.968C25.9144 -201.84 24.2735 -203.358 22.3189 -204.355C21.827 -204.606 21.6317 -205.209 21.8827 -205.701ZM11.4973 -204.355C11.9893 -204.606 12.1848 -205.208 11.934 -205.7C11.6832 -206.192 11.081 -206.388 10.5889 -206.137C8.30494 -204.973 6.38735 -203.199 5.04807 -201.013C3.7088 -198.827 3 -196.314 3 -193.75C3 -191.186 3.7088 -188.673 5.04807 -186.487C6.27924 -184.477 7.99913 -182.816 10.0431 -181.657V-178.5C10.0431 -177.948 10.4908 -177.5 11.0431 -177.5C11.5954 -177.5 12.0431 -177.948 12.0431 -178.5V-182.254C12.0431 -182.63 11.8322 -182.974 11.4973 -183.145C9.54184 -184.142 7.90009 -185.66 6.75347 -187.531C5.60684 -189.403 5 -191.555 5 -193.75C5 -195.945 5.60684 -198.097 6.75347 -199.969C7.90009 -201.84 9.54184 -203.358 11.4973 -204.355ZM17.4818 -137.999C16.3807 -138.018 15.2865 -137.821 14.2619 -137.417C13.2373 -137.013 12.3025 -136.411 11.511 -135.645C10.7195 -134.879 10.0869 -133.965 9.64944 -132.954C9.21293 -131.946 8.97925 -130.861 8.96168 -129.763V-123.499L8.96149 -123.479V-118.731C8.96149 -118.149 8.73052 -117.592 8.31939 -117.181C7.90826 -116.769 7.35066 -116.538 6.76924 -116.538H4.38473C3.4871 -116.538 2.62624 -116.895 1.99152 -117.53C1.35681 -118.164 1.00023 -119.025 1.00023 -119.923V-124.692C1.00023 -125.59 1.35681 -126.45 1.99152 -127.085C2.62624 -127.72 3.4871 -128.076 4.38473 -128.076H6.76924C6.83373 -128.076 6.89794 -128.074 6.96168 -128.068V-129.77L6.9618 -129.786C6.98241 -131.15 7.27201 -132.497 7.81402 -133.749C8.35602 -135.001 9.13977 -136.134 10.1204 -137.082C11.101 -138.031 12.2591 -138.777 13.5285 -139.277C14.7923 -139.776 16.1416 -140.021 17.4997 -139.999C18.8578 -140.021 20.2071 -139.776 21.4709 -139.277C22.7403 -138.777 23.8985 -138.031 24.879 -137.082C25.8596 -136.134 26.6434 -135.001 27.1854 -133.749C27.7274 -132.497 28.017 -131.15 28.0376 -129.786L28.0377 -129.77V-128.068C28.1014 -128.074 28.1656 -128.077 28.2301 -128.077H30.6146C31.5122 -128.077 32.3731 -127.72 33.0078 -127.085C33.6425 -126.451 33.9991 -125.59 33.9991 -124.692V-119.923C33.9991 -119.025 33.6425 -118.165 33.0078 -117.53C32.3731 -116.895 31.5122 -116.539 30.6146 -116.539H28.2301C28.1657 -116.539 28.1016 -116.541 28.0379 -116.547V-115.75C28.0379 -114.22 27.4301 -112.752 26.3482 -111.671C25.4782 -110.801 24.3588 -110.237 23.158 -110.05C22.9878 -109.342 22.6254 -108.689 22.1025 -108.166C21.356 -107.42 20.3435 -107 19.2878 -107H15.711C14.6553 -107 13.6428 -107.42 12.8963 -108.166C12.1498 -108.913 11.7304 -109.925 11.7304 -110.981C11.7304 -112.036 12.1498 -113.049 12.8963 -113.795C13.6428 -114.542 14.6553 -114.961 15.711 -114.961H19.2878C20.3435 -114.961 21.356 -114.542 22.1025 -113.795C22.5844 -113.314 22.9301 -112.721 23.1145 -112.077C23.7981 -112.234 24.4301 -112.581 24.934 -113.085C25.6409 -113.792 26.0379 -114.75 26.0379 -115.75V-118.707L26.0378 -118.731V-123.485L26.0377 -123.499V-129.763C26.0202 -130.861 25.7865 -131.946 25.35 -132.954C24.9125 -133.965 24.2799 -134.879 23.4884 -135.645C22.6969 -136.411 21.7621 -137.013 20.7375 -137.417C19.7129 -137.821 18.6187 -138.018 17.5176 -137.999L17.4997 -138.998L17.4818 -137.999ZM28.0379 -118.724V-121.115L28.0378 -121.131V-125.884C28.0378 -125.935 28.0581 -125.984 28.0941 -126.02C28.1302 -126.056 28.1791 -126.077 28.2301 -126.077H30.6146C30.9818 -126.077 31.3339 -125.931 31.5936 -125.671C31.8532 -125.411 31.9991 -125.059 31.9991 -124.692V-119.923C31.9991 -119.556 31.8532 -119.204 31.5936 -118.944C31.3339 -118.684 30.9818 -118.539 30.6146 -118.539H28.2301C28.1791 -118.539 28.1302 -118.559 28.0941 -118.595C28.0597 -118.629 28.0397 -118.675 28.0379 -118.724ZM3.40574 -125.671C3.66538 -125.931 4.01754 -126.076 4.38473 -126.076H6.76924C6.82022 -126.076 6.86912 -126.056 6.90518 -126.02C6.94123 -125.984 6.96149 -125.935 6.96149 -125.884V-118.731C6.96149 -118.68 6.94123 -118.631 6.90518 -118.595C6.86912 -118.559 6.82023 -118.538 6.76924 -118.538H4.38473C4.01754 -118.538 3.66538 -118.684 3.40574 -118.944C3.14609 -119.204 3.00023 -119.556 3.00023 -119.923V-124.692C3.00023 -125.059 3.14609 -125.411 3.40574 -125.671ZM15.711 -112.961C15.1857 -112.961 14.6819 -112.753 14.3105 -112.381C13.939 -112.01 13.7304 -111.506 13.7304 -110.981C13.7304 -110.455 13.939 -109.952 14.3105 -109.58C14.6819 -109.209 15.1857 -109 15.711 -109H19.2878C19.813 -109 20.3168 -109.209 20.6883 -109.58C21.0597 -109.952 21.2684 -110.455 21.2684 -110.981C21.2684 -111.506 21.0597 -112.01 20.6883 -112.381C20.3168 -112.753 19.813 -112.961 19.2878 -112.961H15.711ZM7.53846 6.53845C7.53846 4.03195 9.5704 2 12.0769 2C14.5834 2 16.6154 4.03195 16.6154 6.53845C16.6154 9.04498 14.5834 11.0769 12.0769 11.0769C9.5704 11.0769 7.53846 9.04498 7.53846 6.53845ZM12.0769 0C8.46583 0 5.53846 2.92737 5.53846 6.53845C5.53846 10.1496 8.46583 13.0769 12.0769 13.0769C15.688 13.0769 18.6154 10.1496 18.6154 6.53845C18.6154 2.92737 15.688 0 12.0769 0ZM12.0769 18C9.40436 18 6.84125 19.0617 4.95146 20.9515C3.06167 22.8412 2 25.4044 2 28.0769V29.5385H22.1538V28.0769C22.1538 25.4044 21.0922 22.8412 19.2024 20.9515C17.3126 19.0617 14.7495 18 12.0769 18ZM3.53725 19.5373C5.80211 17.2724 8.87392 16 12.0769 16C15.2799 16 18.3517 17.2724 20.6166 19.5373C22.8815 21.8021 24.1538 24.8739 24.1538 28.0769V30.5385C24.1538 31.0908 23.7061 31.5385 23.1538 31.5385H1C0.447715 31.5385 0 31.0908 0 30.5385V28.0769C0 24.8739 1.27239 21.8021 3.53725 19.5373ZM21.9231 0C21.3708 0 20.9231 0.447723 20.9231 1C20.9231 1.55228 21.3708 2 21.9231 2C23.1268 2 24.2811 2.47815 25.1323 3.32928C25.9834 4.18042 26.4615 5.33478 26.4615 6.53845C26.4615 7.74213 25.9834 8.89651 25.1323 9.74765C24.2811 10.5988 23.1268 11.0769 21.9231 11.0769C21.3708 11.0769 20.9231 11.5246 20.9231 12.0769C20.9231 12.6292 21.3708 13.0769 21.9231 13.0769C23.6572 13.0769 25.3203 12.3881 26.5465 11.1619C27.7727 9.93564 28.4615 8.27258 28.4615 6.53845C28.4615 4.80435 27.7727 3.14127 26.5465 1.91507C25.3203 0.688873 23.6572 0 21.9231 0ZM24.9259 17.112C25.1223 16.5958 25.6999 16.3365 26.2161 16.5329C28.5023 17.4026 30.4704 18.9459 31.8602 20.9586C33.25 22.9714 33.9958 25.3587 33.999 27.8047V27.806V30.5383C33.999 31.0906 33.5513 31.5383 32.999 31.5383H29.3067C28.7544 31.5383 28.3067 31.0906 28.3067 30.5383C28.3067 29.986 28.7544 29.5383 29.3067 29.5383H31.999V27.8066C31.9962 25.766 31.3739 23.7743 30.2144 22.095C29.0548 20.4156 27.4125 19.1278 25.505 18.4022C24.9888 18.2058 24.7296 17.6282 24.9259 17.112ZM16.0382 -71H16.0353C15.365 -70.998 14.7095 -70.7971 14.1546 -70.4214C13.6 -70.0459 13.1708 -69.5127 12.9261 -68.8895L12.9256 -68.8882L12.0483 -66.6605L9.1866 -65.0627L6.7562 -65.4274L6.74015 -65.4297C6.08619 -65.517 5.42005 -65.4113 4.82584 -65.1248C4.23148 -64.8383 3.73444 -64.3832 3.40002 -63.8148L3.39723 -63.81L2.46172 -62.1995C2.11893 -61.6232 1.96031 -60.9568 2.00844 -60.288C2.05673 -59.617 2.31064 -58.9781 2.73419 -58.4552L2.73791 -58.4506L4.27065 -56.5809V-53.4116L2.78112 -51.5448L2.77858 -51.5417C2.35654 -51.0194 2.10355 -50.3816 2.05536 -49.712C2.00722 -49.0432 2.16585 -48.3768 2.50865 -47.8005L3.44413 -46.19L3.44695 -46.1852C3.78135 -45.6168 4.2784 -45.1617 4.87276 -44.8752C5.46697 -44.5887 6.1331 -44.483 6.78707 -44.5703L6.80312 -44.5726L9.23031 -44.9368L12.0471 -43.3426L12.9256 -41.1118C13.1703 -40.4884 13.5998 -39.9541 14.1546 -39.5786C14.7095 -39.2029 15.365 -39.002 16.0353 -39H16.0382H18.0087H18.0116C18.6819 -39.002 19.3374 -39.2029 19.8923 -39.5786C20.4473 -39.9543 20.8766 -40.4879 21.1213 -41.1116L21.9998 -43.3426L24.8166 -44.9368L27.2438 -44.5726L27.2598 -44.5703C27.9138 -44.483 28.58 -44.5887 29.1742 -44.8752C29.7685 -45.1617 30.2656 -45.6168 30.6 -46.1852L30.6028 -46.19L31.5383 -47.8006C31.8811 -48.3768 32.0397 -49.0432 31.9916 -49.712C31.9433 -50.383 31.6894 -51.0219 31.2658 -51.5448L31.2621 -51.5494L29.7293 -53.419V-56.5884L31.2189 -58.4552L31.2214 -58.4583C31.6434 -58.9806 31.8965 -59.6183 31.9446 -60.288C31.9928 -60.9568 31.8341 -61.6232 31.4913 -62.1995L30.5559 -63.81L30.553 -63.8148C30.2186 -64.3832 29.7216 -64.8383 29.1272 -65.1248C28.533 -65.4113 27.8669 -65.517 27.2129 -65.4297L27.1969 -65.4274L24.7697 -65.0632L21.9529 -66.6574L21.0744 -68.8882C20.8297 -69.5117 20.4003 -70.0458 19.8454 -70.4214C19.2905 -70.7971 18.635 -70.998 17.9647 -71H17.9618H16.0382ZM16.0398 -69H17.9602C18.2345 -68.9989 18.5008 -68.9165 18.7242 -68.7653C18.9477 -68.614 19.1169 -68.4016 19.2125 -68.1579L19.213 -68.1567L20.2217 -65.5951C20.3057 -65.382 20.4603 -65.2041 20.6596 -65.0913L24.0846 -63.1528C24.279 -63.0428 24.5046 -63.001 24.7256 -63.0341L27.4846 -63.4482C27.7502 -63.4823 28.0197 -63.4385 28.2588 -63.3232C28.4991 -63.2074 28.6964 -63.0254 28.828 -62.8027L28.8293 -62.8006L29.7647 -61.19L29.7711 -61.1793C29.9068 -60.9522 29.9685 -60.6917 29.9498 -60.4316C29.9311 -60.1715 29.8326 -59.9212 29.6648 -59.7141L29.6602 -59.7083L27.9477 -57.5622C27.8063 -57.385 27.7293 -57.1651 27.7293 -56.9385V-53.0615C27.7293 -52.8304 27.8094 -52.6063 27.956 -52.4276L29.7117 -50.2859L29.7133 -50.2839C29.8801 -50.0772 29.9781 -49.8277 29.9967 -49.5684C30.0154 -49.3083 29.9537 -49.0478 29.818 -48.8207L29.8117 -48.81L28.8762 -47.1994L28.875 -47.1974C28.7434 -46.9746 28.546 -46.7926 28.3057 -46.6768C28.0666 -46.5615 27.7972 -46.5177 27.5316 -46.5518L24.7725 -46.9659C24.5516 -46.999 24.3259 -46.9572 24.1315 -46.8472L20.7065 -44.9087C20.5072 -44.7959 20.3526 -44.618 20.2687 -44.4049L19.2599 -41.8433L19.2594 -41.8421C19.1639 -41.5984 18.9946 -41.386 18.7711 -41.2347C18.5477 -41.0835 18.2814 -41.001 18.007 -41H16.04C15.7655 -41.001 15.4992 -41.0835 15.2758 -41.2347C15.0523 -41.386 14.8831 -41.5984 14.7875 -41.8421L14.787 -41.8433L13.7783 -44.4049C13.6943 -44.618 13.5397 -44.7959 13.3404 -44.9087L9.9154 -46.8472C9.721 -46.9572 9.49535 -46.999 9.27444 -46.9659L6.51535 -46.5518C6.24973 -46.5177 5.98028 -46.5615 5.74119 -46.6768C5.50091 -46.7926 5.30359 -46.9746 5.17199 -47.1973L5.17075 -47.1994L4.23527 -48.81L4.22889 -48.8207C4.09319 -49.0478 4.03148 -49.3083 4.0502 -49.5684C4.06892 -49.8285 4.16744 -50.0788 4.33524 -50.2859L4.33983 -50.2917L6.05231 -52.4378C6.19367 -52.615 6.27065 -52.8349 6.27065 -53.0615V-56.9385C6.27065 -57.1696 6.19056 -57.3937 6.044 -57.5724L4.28672 -59.716C4.1199 -59.9228 4.02194 -60.1723 4.00328 -60.4316C3.98456 -60.6917 4.04627 -60.9522 4.18204 -61.1793L4.18828 -61.19L5.12504 -62.8027C5.25664 -63.0254 5.45397 -63.2074 5.69427 -63.3232C5.93338 -63.4385 6.20286 -63.4823 6.4685 -63.4482L9.22753 -63.0341C9.44647 -63.0013 9.67012 -63.042 9.86342 -63.1499L13.3353 -65.0884C13.5371 -65.2011 13.6936 -65.3801 13.7783 -65.5951L14.787 -68.1567L14.7875 -68.1579C14.8831 -68.4016 15.0523 -68.614 15.2758 -68.7653C15.4992 -68.9165 15.7655 -68.9989 16.0398 -69ZM17 -60.6154C15.4957 -60.6154 14.0498 -60.0277 12.9812 -58.9765C11.912 -57.9247 11.3083 -56.4946 11.3083 -55C11.3083 -53.8857 11.6442 -52.7978 12.2717 -51.874C12.8991 -50.9503 13.7891 -50.2329 14.8272 -49.8099C15.8652 -49.3869 17.0065 -49.2765 18.1073 -49.4919C19.2083 -49.7073 20.2218 -50.2395 21.0188 -51.0235C21.816 -51.8078 22.3609 -52.809 22.5818 -53.9014C22.8027 -54.9939 22.6891 -56.1262 22.2562 -57.1543C21.8234 -58.1822 21.0916 -59.0581 20.1559 -59.6732C19.2203 -60.2881 18.1221 -60.6154 17 -60.6154ZM14.3837 -57.5507C15.0748 -58.2306 16.0156 -58.6154 17 -58.6154C17.7338 -58.6154 18.4498 -58.4013 19.0573 -58.0019C19.6647 -57.6027 20.1356 -57.0369 20.413 -56.3782C20.6903 -55.7196 20.7626 -54.9958 20.6214 -54.2978C20.4803 -53.5996 20.1314 -52.956 19.6163 -52.4493C19.101 -51.9424 18.4425 -51.5954 17.7233 -51.4547C17.0039 -51.3139 16.2585 -51.3863 15.5819 -51.662C14.9054 -51.9377 14.3299 -52.4034 13.9262 -52.9977C13.5226 -53.5919 13.3083 -54.2886 13.3083 -55C13.3083 -55.9535 13.6932 -56.8714 14.3837 -57.5507ZM29.6923 97C30.4145 97 31 96.4145 31 95.6923V70.3077C31 69.5855 30.4145 69 29.6923 69H4.30769C3.58547 69 3 69.5855 3 70.3077V95.6923C3 96.4145 3.58547 97 4.30769 97H29.6923ZM33 95.6923C33 97.5191 31.5191 99 29.6923 99H4.30769C2.4809 99 1 97.5191 1 95.6923V70.3077C1 68.4809 2.4809 67 4.30769 67H29.6923C31.5191 67 33 68.4809 33 70.3077V95.6923ZM7.76976 72.7692C7.21748 72.7692 6.76976 73.2169 6.76976 73.7692C6.76976 74.3215 7.21748 74.7692 7.76976 74.7692H12.3851C12.9374 74.7692 13.3851 74.3215 13.3851 73.7692C13.3851 73.2169 12.9374 72.7692 12.3851 72.7692H7.76976ZM6.76976 79.5384C6.76976 78.9861 7.21748 78.5384 7.76976 78.5384H18.1544C18.7067 78.5384 19.1544 78.9861 19.1544 79.5384C19.1544 80.0907 18.7067 80.5384 18.1544 80.5384H7.76976C7.21748 80.5384 6.76976 80.0907 6.76976 79.5384ZM28.2426 80.0529C28.5268 79.5793 28.3732 78.965 27.8996 78.6809C27.4261 78.3967 26.8118 78.5503 26.5277 79.0239L20.1082 89.7229L12.8813 85.5932C12.425 85.3325 11.8446 85.4695 11.5531 85.9067L6.93771 92.8298C6.63136 93.2894 6.75553 93.9102 7.21506 94.2166C7.67459 94.5229 8.29546 94.3987 8.60181 93.9392L12.6994 87.7928L19.9659 91.9451C20.4382 92.215 21.0397 92.0578 21.3196 91.5913L28.2426 80.0529Z" fill="url(#paint0_linear_62_1670)"/>
</g>
<defs>
<linearGradient id="paint0_linear_62_1670" x1="16.9995" y1="-277" x2="16.9995" y2="99" gradientUnits="userSpaceOnUse">
<stop stop-color="#1FB8EC"/>
<stop offset="1" stop-color="#F3348F"/>
</linearGradient>
</defs>
</svg>
