<svg width="32" height="34" viewBox="0 0 32 34" fill="none" xmlns="http://www.w3.org/2000/svg">
<mask id="mask0_62_1660" style="mask-type:alpha" maskUnits="userSpaceOnUse" x="0" y="0" width="32" height="34">
<rect width="32" height="34" fill="#D9D9D9"/>
</mask>
<g mask="url(#mask0_62_1660)">
<path fill-rule="evenodd" clip-rule="evenodd" d="M3.0769 -64C3.03443 -64 3 -63.9656 3 -63.9231V-51.0003C3 -50.9578 3.03443 -50.9233 3.0769 -50.9233H11.6921C11.7346 -50.9233 11.769 -50.9578 11.769 -51.0003V-63.9231C11.769 -63.9656 11.7346 -64 11.6921 -64H3.0769ZM1 -63.9231C1 -65.0701 1.92986 -66 3.0769 -66H11.6921C12.8392 -66 13.769 -65.0701 13.769 -63.9231V-51.0003C13.769 -49.8532 12.8392 -48.9233 11.6921 -48.9233H3.0769C1.92986 -48.9233 1 -49.8532 1 -51.0003V-63.9231ZM20.2303 -63.9231C20.2303 -63.9656 20.2647 -64 20.3072 -64H28.9224C28.9649 -64 28.9993 -63.9656 28.9993 -63.9231V-59.5939C28.9993 -59.5515 28.9649 -59.517 28.9224 -59.517H20.3072C20.2647 -59.517 20.2303 -59.5515 20.2303 -59.5939V-63.9231ZM20.3072 -66C19.1602 -66 18.2303 -65.0701 18.2303 -63.9231V-59.5939C18.2303 -58.4469 19.1602 -57.517 20.3072 -57.517H28.9224C30.0695 -57.517 30.9993 -58.4469 30.9993 -59.5939V-63.9231C30.9993 -65.0701 30.0695 -66 28.9224 -66H20.3072ZM20.2303 -51.0004C20.2303 -51.0428 20.2647 -51.0773 20.3072 -51.0773H28.9224C28.9649 -51.0773 28.9993 -51.0428 28.9993 -51.0004V-38.0775C28.9993 -38.0351 28.9649 -38.0006 28.9224 -38.0006H20.3072C20.2647 -38.0006 20.2303 -38.0351 20.2303 -38.0775V-51.0004ZM20.3072 -53.0773C19.1602 -53.0773 18.2303 -52.1474 18.2303 -51.0004V-38.0775C18.2303 -36.9305 19.1602 -36.0006 20.3072 -36.0006H28.9224C30.0695 -36.0006 30.9993 -36.9305 30.9993 -38.0775V-51.0004C30.9993 -52.1474 30.0695 -53.0773 28.9224 -53.0773H20.3072ZM3 -42.406C3 -42.4485 3.03443 -42.4829 3.0769 -42.4829H11.6921C11.7346 -42.4829 11.769 -42.4485 11.769 -42.406V-38.0768C11.769 -38.0344 11.7346 -37.9999 11.6921 -37.9999H3.0769C3.03443 -37.9999 3 -38.0344 3 -38.0768V-42.406ZM3.0769 -44.4829C1.92986 -44.4829 1 -43.553 1 -42.406V-38.0768C1 -36.9298 1.92986 -35.9999 3.0769 -35.9999H11.6921C12.8392 -35.9999 13.769 -36.9298 13.769 -38.0768V-42.406C13.769 -43.553 12.8392 -44.4829 11.6921 -44.4829H3.0769ZM15.9083 12.3848C13.2213 12.3848 11.043 14.563 11.043 17.2501C11.043 19.9372 13.2213 22.1154 15.9083 22.1154C18.5954 22.1154 20.7737 19.9372 20.7737 17.2501C20.7737 14.563 18.5954 12.3848 15.9083 12.3848ZM16.9082 10.4571V2C16.9082 1.44772 16.4605 1 15.9082 1C15.3559 1 14.9082 1.44772 14.9082 2V10.4571C11.5906 10.9413 9.04297 13.7982 9.04297 17.2501C9.04297 21.0417 12.1167 24.1154 15.9083 24.1154C19.6999 24.1154 22.7737 21.0417 22.7737 17.2501C22.7737 13.7981 20.2259 10.9412 16.9082 10.4571ZM20.8827 5.29936C21.1338 4.80743 21.736 4.61214 22.228 4.86318C24.511 6.02824 26.4276 7.80171 27.7659 9.98769C29.1042 12.1736 29.8123 14.6869 29.8118 17.25V26.6345C29.8118 27.522 29.4593 28.3731 28.8318 29.0006C28.2043 29.6281 27.3532 29.9807 26.4657 29.9807H22.7734V32.4999C22.7734 33.0521 22.3257 33.4999 21.7734 33.4999C21.2212 33.4999 20.7734 33.0521 20.7734 32.4999V28.9807C20.7734 28.4284 21.2212 27.9807 21.7734 27.9807H26.4657C26.8227 27.9807 27.1651 27.8388 27.4176 27.5864C27.67 27.3339 27.8118 26.9915 27.8118 26.6345V17.25C27.8123 15.0555 27.2061 12.9035 26.0602 11.032C24.9144 9.16047 23.2735 7.6421 21.3189 6.64463C20.827 6.39359 20.6317 5.79129 20.8827 5.29936ZM10.4973 6.64481C10.9893 6.39397 11.1848 5.79176 10.934 5.29972C10.6832 4.80769 10.081 4.61216 9.58892 4.863C7.30494 6.02736 5.38735 7.80054 4.04807 9.98656C2.7088 12.1726 2 14.6863 2 17.25C2 19.8136 2.7088 22.3274 4.04807 24.5134C5.27924 26.523 6.99913 28.1836 9.0431 29.3432V32.4999C9.0431 33.0521 9.49082 33.4999 10.0431 33.4999C10.5954 33.4999 11.0431 33.0521 11.0431 32.4999V28.746C11.0431 28.3701 10.8322 28.0259 10.4973 27.8551C8.54184 26.8583 6.90009 25.3401 5.75347 23.4686C4.60684 21.597 4 19.4449 4 17.25C4 15.0551 4.60684 12.9029 5.75347 11.0314C6.90009 9.15981 8.54184 7.64169 10.4973 6.64481ZM16.4818 73.0013C15.3807 72.9816 14.2865 73.1793 13.2619 73.5832C12.2373 73.9871 11.3025 74.5891 10.511 75.3549C9.71954 76.1207 9.08693 77.0351 8.64944 78.0457C8.21293 79.0542 7.97925 80.1386 7.96168 81.2373V87.5008L7.96149 87.5208V92.2693C7.96149 92.8507 7.73052 93.4083 7.31939 93.8194C6.90826 94.2306 6.35066 94.4615 5.76924 94.4615H3.38473C2.4871 94.4615 1.62624 94.1049 0.991524 93.4702C0.356807 92.8355 0.000225663 91.9747 0.000225663 91.077V86.308C0.000225663 85.4104 0.356807 84.5495 0.991524 83.9148C1.62624 83.2801 2.4871 82.9235 3.38473 82.9235H5.76924C5.83373 82.9235 5.89794 82.9264 5.96168 82.932V81.2295L5.9618 81.2144C5.98241 79.8502 6.27201 78.5034 6.81402 77.2513C7.35602 75.9991 8.13977 74.8662 9.12036 73.9175C10.101 72.9688 11.2591 72.2229 12.5285 71.7225C13.7923 71.2244 15.1416 70.9794 16.4997 71.0014C17.8578 70.9794 19.2071 71.2244 20.4709 71.7225C21.7403 72.2229 22.8985 72.9688 23.879 73.9175C24.8596 74.8662 25.6434 75.9991 26.1854 77.2513C26.7274 78.5034 27.017 79.8502 27.0376 81.2144L27.0377 81.2295V82.9319C27.1014 82.9263 27.1656 82.9235 27.2301 82.9235H29.6146C30.5122 82.9235 31.3731 83.2801 32.0078 83.9148C32.6425 84.5495 32.9991 85.4104 32.9991 86.308V91.077C32.9991 91.9746 32.6425 92.8355 32.0078 93.4702C31.3731 94.1049 30.5122 94.4615 29.6146 94.4615H27.2301C27.1657 94.4615 27.1016 94.4587 27.0379 94.4531V95.2501C27.0379 96.7802 26.4301 98.2475 25.3482 99.3294C24.4782 100.199 23.3588 100.763 22.158 100.95C21.9878 101.658 21.6254 102.311 21.1025 102.834C20.356 103.58 19.3435 104 18.2878 104H14.711C13.6553 104 12.6428 103.58 11.8963 102.834C11.1498 102.087 10.7304 101.075 10.7304 100.019C10.7304 98.9635 11.1498 97.951 11.8963 97.2045C12.6428 96.458 13.6553 96.0386 14.711 96.0386H18.2878C19.3435 96.0386 20.356 96.458 21.1025 97.2045C21.5844 97.6865 21.9301 98.2793 22.1145 98.9231C22.7981 98.7657 23.4301 98.4192 23.934 97.9152C24.6409 97.2084 25.0379 96.2497 25.0379 95.2501V92.2931L25.0378 92.2692V87.515L25.0377 87.5008V81.2373C25.0202 80.1386 24.7865 79.0542 24.35 78.0457C23.9125 77.0351 23.2799 76.1207 22.4884 75.3549C21.6969 74.5891 20.7621 73.9871 19.7375 73.5832C18.7129 73.1793 17.6187 72.9816 16.5176 73.0013L16.4997 72.0015L16.4818 73.0013ZM27.0379 92.2763V89.885L27.0378 89.8687V85.1157C27.0378 85.0647 27.0581 85.0158 27.0941 84.9798C27.1302 84.9437 27.1791 84.9235 27.2301 84.9235H29.6146C29.9818 84.9235 30.3339 85.0693 30.5936 85.329C30.8532 85.5886 30.9991 85.9408 30.9991 86.308V91.077C30.9991 91.4442 30.8532 91.7963 30.5936 92.056C30.3339 92.3156 29.9818 92.4615 29.6146 92.4615H27.2301C27.1791 92.4615 27.1302 92.4412 27.0941 92.4052C27.0597 92.3708 27.0397 92.3247 27.0379 92.2763ZM2.40574 85.329C2.66538 85.0694 3.01754 84.9235 3.38473 84.9235H5.76924C5.82022 84.9235 5.86912 84.9438 5.90518 84.9798C5.94123 85.0159 5.96149 85.0648 5.96149 85.1158V92.2693C5.96149 92.3203 5.94123 92.3692 5.90518 92.4052C5.86912 92.4413 5.82023 92.4615 5.76924 92.4615H3.38473C3.01754 92.4615 2.66538 92.3157 2.40574 92.056C2.14609 91.7964 2.00023 91.4442 2.00023 91.077V86.308C2.00023 85.9408 2.14609 85.5887 2.40574 85.329ZM14.711 98.0386C14.1857 98.0386 13.6819 98.2473 13.3105 98.6187C12.939 98.9902 12.7304 99.4939 12.7304 100.019C12.7304 100.545 12.939 101.048 13.3105 101.42C13.6819 101.791 14.1857 102 14.711 102H18.2878C18.813 102 19.3168 101.791 19.6883 101.42C20.0597 101.048 20.2684 100.545 20.2684 100.019C20.2684 99.4939 20.0597 98.9902 19.6883 98.6187C19.3168 98.2473 18.813 98.0386 18.2878 98.0386H14.711ZM6.53846 217.538C6.53846 215.032 8.5704 213 11.0769 213C13.5834 213 15.6154 215.032 15.6154 217.538C15.6154 220.045 13.5834 222.077 11.0769 222.077C8.5704 222.077 6.53846 220.045 6.53846 217.538ZM11.0769 211C7.46583 211 4.53846 213.927 4.53846 217.538C4.53846 221.15 7.46583 224.077 11.0769 224.077C14.688 224.077 17.6154 221.15 17.6154 217.538C17.6154 213.927 14.688 211 11.0769 211ZM11.0769 229C8.40436 229 5.84125 230.062 3.95146 231.951C2.06167 233.841 1 236.404 1 239.077V240.538H21.1538V239.077C21.1538 236.404 20.0922 233.841 18.2024 231.951C16.3126 230.062 13.7495 229 11.0769 229ZM2.53725 230.537C4.80211 228.272 7.87392 227 11.0769 227C14.2799 227 17.3517 228.272 19.6166 230.537C21.8815 232.802 23.1538 235.874 23.1538 239.077V241.538C23.1538 242.091 22.7061 242.538 22.1538 242.538H0C-0.552285 242.538 -1 242.091 -1 241.538V239.077C-1 235.874 0.272387 232.802 2.53725 230.537ZM20.9231 211C20.3708 211 19.9231 211.448 19.9231 212C19.9231 212.552 20.3708 213 20.9231 213C22.1268 213 23.2811 213.478 24.1323 214.329C24.9834 215.18 25.4615 216.335 25.4615 217.538C25.4615 218.742 24.9834 219.897 24.1323 220.748C23.2811 221.599 22.1268 222.077 20.9231 222.077C20.3708 222.077 19.9231 222.525 19.9231 223.077C19.9231 223.629 20.3708 224.077 20.9231 224.077C22.6572 224.077 24.3203 223.388 25.5465 222.162C26.7727 220.936 27.4615 219.273 27.4615 217.538C27.4615 215.804 26.7727 214.141 25.5465 212.915C24.3203 211.689 22.6572 211 20.9231 211ZM23.9259 228.112C24.1223 227.596 24.6999 227.337 25.2161 227.533C27.5023 228.403 29.4704 229.946 30.8602 231.959C32.25 233.971 32.9958 236.359 32.999 238.805V238.806V241.538C32.999 242.091 32.5513 242.538 31.999 242.538H28.3067C27.7544 242.538 27.3067 242.091 27.3067 241.538C27.3067 240.986 27.7544 240.538 28.3067 240.538H30.999V238.807C30.9962 236.766 30.3739 234.774 29.2144 233.095C28.0548 231.416 26.4125 230.128 24.505 229.402C23.9888 229.206 23.7296 228.628 23.9259 228.112ZM15.0382 140H15.0353C14.365 140.002 13.7095 140.203 13.1546 140.579C12.6 140.954 12.1708 141.487 11.9261 142.111L11.9256 142.112L11.0483 144.34L8.1866 145.937L5.7562 145.573L5.74015 145.57C5.08619 145.483 4.42005 145.589 3.82584 145.875C3.23148 146.162 2.73444 146.617 2.40002 147.185L2.39723 147.19L1.46172 148.801C1.11893 149.377 0.960307 150.043 1.00844 150.712C1.05673 151.383 1.31064 152.022 1.73419 152.545L1.73791 152.549L3.27065 154.419V157.588L1.78112 159.455L1.77858 159.458C1.35654 159.981 1.10355 160.618 1.05536 161.288C1.00722 161.957 1.16585 162.623 1.50865 163.199L2.44413 164.81L2.44695 164.815C2.78135 165.383 3.2784 165.838 3.87276 166.125C4.46697 166.411 5.1331 166.517 5.78707 166.43L5.80312 166.427L8.23031 166.063L11.0471 167.657L11.9256 169.888C12.1703 170.512 12.5998 171.046 13.1546 171.421C13.7095 171.797 14.365 171.998 15.0353 172H15.0382H17.0087H17.0116C17.6819 171.998 18.3374 171.797 18.8923 171.421C19.4473 171.046 19.8766 170.512 20.1213 169.888L20.9998 167.657L23.8166 166.063L26.2438 166.427L26.2598 166.43C26.9138 166.517 27.58 166.411 28.1742 166.125C28.7685 165.838 29.2656 165.383 29.6 164.815L29.6028 164.81L30.5383 163.199C30.8811 162.623 31.0397 161.957 30.9916 161.288C30.9433 160.617 30.6894 159.978 30.2658 159.455L30.2621 159.451L28.7293 157.581V154.412L30.2189 152.545L30.2214 152.542C30.6434 152.019 30.8965 151.382 30.9446 150.712C30.9928 150.043 30.8341 149.377 30.4913 148.8L29.5559 147.19L29.553 147.185C29.2186 146.617 28.7216 146.162 28.1272 145.875C27.533 145.589 26.8669 145.483 26.2129 145.57L26.1969 145.573L23.7697 145.937L20.9529 144.343L20.0744 142.112C19.8297 141.488 19.4003 140.954 18.8454 140.579C18.2905 140.203 17.635 140.002 16.9647 140H16.9618H15.0382ZM15.0398 142H16.9602C17.2345 142.001 17.5008 142.084 17.7242 142.235C17.9477 142.386 18.1169 142.598 18.2125 142.842L18.213 142.843L19.2217 145.405C19.3057 145.618 19.4603 145.796 19.6596 145.909L23.0846 147.847C23.279 147.957 23.5046 147.999 23.7256 147.966L26.4846 147.552C26.7502 147.518 27.0197 147.562 27.2588 147.677C27.4991 147.793 27.6964 147.975 27.828 148.197L27.8293 148.199L28.7647 149.81L28.7711 149.821C28.9068 150.048 28.9685 150.308 28.9498 150.568C28.9311 150.829 28.8326 151.079 28.6648 151.286L28.6602 151.292L26.9477 153.438C26.8063 153.615 26.7293 153.835 26.7293 154.062V157.938C26.7293 158.17 26.8094 158.394 26.956 158.572L28.7117 160.714L28.7133 160.716C28.8801 160.923 28.9781 161.172 28.9967 161.432C29.0154 161.692 28.9537 161.952 28.818 162.179L28.8117 162.19L27.8762 163.801L27.875 163.803C27.7434 164.025 27.546 164.207 27.3057 164.323C27.0666 164.438 26.7972 164.482 26.5316 164.448L23.7725 164.034C23.5516 164.001 23.3259 164.043 23.1315 164.153L19.7065 166.091C19.5072 166.204 19.3526 166.382 19.2687 166.595L18.2599 169.157L18.2594 169.158C18.1639 169.402 17.9946 169.614 17.7711 169.765C17.5477 169.916 17.2814 169.999 17.007 170H15.04C14.7655 169.999 14.4992 169.916 14.2758 169.765C14.0523 169.614 13.8831 169.402 13.7875 169.158L13.787 169.157L12.7783 166.595C12.6943 166.382 12.5397 166.204 12.3404 166.091L8.9154 164.153C8.721 164.043 8.49535 164.001 8.27444 164.034L5.51535 164.448C5.24973 164.482 4.98028 164.438 4.74119 164.323C4.50091 164.207 4.30359 164.025 4.17199 163.803L4.17075 163.801L3.23527 162.19L3.22889 162.179C3.09319 161.952 3.03148 161.692 3.0502 161.432C3.06892 161.171 3.16744 160.921 3.33524 160.714L3.33983 160.708L5.05231 158.562C5.19367 158.385 5.27065 158.165 5.27065 157.938V154.062C5.27065 153.83 5.19056 153.606 5.044 153.428L3.28672 151.284C3.1199 151.077 3.02194 150.828 3.00328 150.568C2.98456 150.308 3.04627 150.048 3.18204 149.821L3.18828 149.81L4.12504 148.197C4.25664 147.975 4.45397 147.793 4.69427 147.677C4.93338 147.562 5.20286 147.518 5.4685 147.552L8.22753 147.966C8.44647 147.999 8.67012 147.958 8.86342 147.85L12.3353 145.912C12.5371 145.799 12.6936 145.62 12.7783 145.405L13.787 142.843L13.7875 142.842C13.8831 142.598 14.0523 142.386 14.2758 142.235C14.4992 142.084 14.7655 142.001 15.0398 142ZM16 150.385C14.4957 150.385 13.0498 150.972 11.9812 152.024C10.912 153.075 10.3083 154.505 10.3083 156C10.3083 157.114 10.6442 158.202 11.2717 159.126C11.8991 160.05 12.7891 160.767 13.8272 161.19C14.8652 161.613 16.0065 161.724 17.1073 161.508C18.2083 161.293 19.2218 160.761 20.0188 159.976C20.816 159.192 21.3609 158.191 21.5818 157.099C21.8027 156.006 21.6891 154.874 21.2562 153.846C20.8234 152.818 20.0916 151.942 19.1559 151.327C18.2203 150.712 17.1221 150.385 16 150.385ZM13.3837 153.449C14.0748 152.769 15.0156 152.385 16 152.385C16.7338 152.385 17.4498 152.599 18.0573 152.998C18.6647 153.397 19.1356 153.963 19.413 154.622C19.6903 155.28 19.7626 156.004 19.6214 156.702C19.4803 157.4 19.1314 158.044 18.6163 158.551C18.101 159.058 17.4425 159.405 16.7233 159.545C16.0039 159.686 15.2585 159.614 14.5819 159.338C13.9054 159.062 13.3299 158.597 12.9262 158.002C12.5226 157.408 12.3083 156.711 12.3083 156C12.3083 155.046 12.6932 154.129 13.3837 153.449ZM28.6923 308C29.4145 308 30 307.415 30 306.692V281.308C30 280.585 29.4145 280 28.6923 280H3.30769C2.58547 280 2 280.585 2 281.308V306.692C2 307.415 2.58547 308 3.30769 308H28.6923ZM32 306.692C32 308.519 30.5191 310 28.6923 310H3.30769C1.4809 310 0 308.519 0 306.692V281.308C0 279.481 1.4809 278 3.30769 278H28.6923C30.5191 278 32 279.481 32 281.308V306.692ZM6.76976 283.769C6.21748 283.769 5.76976 284.217 5.76976 284.769C5.76976 285.321 6.21748 285.769 6.76976 285.769H11.3851C11.9374 285.769 12.3851 285.321 12.3851 284.769C12.3851 284.217 11.9374 283.769 11.3851 283.769H6.76976ZM5.76976 290.538C5.76976 289.986 6.21748 289.538 6.76976 289.538H17.1544C17.7067 289.538 18.1544 289.986 18.1544 290.538C18.1544 291.091 17.7067 291.538 17.1544 291.538H6.76976C6.21748 291.538 5.76976 291.091 5.76976 290.538ZM27.2426 291.053C27.5268 290.579 27.3732 289.965 26.8996 289.681C26.4261 289.397 25.8118 289.55 25.5277 290.024L19.1082 300.723L11.8813 296.593C11.425 296.332 10.8446 296.469 10.5531 296.907L5.93771 303.83C5.63136 304.289 5.75553 304.91 6.21506 305.217C6.67459 305.523 7.29546 305.399 7.60181 304.939L11.6994 298.793L18.9659 302.945C19.4382 303.215 20.0397 303.058 20.3196 302.591L27.2426 291.053Z" fill="url(#paint0_linear_62_1660)"/>
</g>
<defs>
<linearGradient id="paint0_linear_62_1660" x1="15.9995" y1="-66" x2="15.9995" y2="310" gradientUnits="userSpaceOnUse">
<stop stop-color="#1FB8EC"/>
<stop offset="1" stop-color="#F3348F"/>
</linearGradient>
</defs>
</svg>
