<svg width="33" height="35" viewBox="0 0 33 35" fill="none" xmlns="http://www.w3.org/2000/svg">
<mask id="mask0_62_1663" style="mask-type:alpha" maskUnits="userSpaceOnUse" x="0" y="0" width="33" height="35">
<rect width="33" height="35" fill="#D9D9D9"/>
</mask>
<g mask="url(#mask0_62_1663)">
<path fill-rule="evenodd" clip-rule="evenodd" d="M3.0769 -135C3.03443 -135 3 -134.966 3 -134.923V-122C3 -121.958 3.03443 -121.923 3.0769 -121.923H11.6921C11.7346 -121.923 11.769 -121.958 11.769 -122V-134.923C11.769 -134.966 11.7346 -135 11.6921 -135H3.0769ZM1 -134.923C1 -136.07 1.92986 -137 3.0769 -137H11.6921C12.8392 -137 13.769 -136.07 13.769 -134.923V-122C13.769 -120.853 12.8392 -119.923 11.6921 -119.923H3.0769C1.92986 -119.923 1 -120.853 1 -122V-134.923ZM20.2303 -134.923C20.2303 -134.966 20.2647 -135 20.3072 -135H28.9224C28.9649 -135 28.9993 -134.966 28.9993 -134.923V-130.594C28.9993 -130.551 28.9649 -130.517 28.9224 -130.517H20.3072C20.2647 -130.517 20.2303 -130.551 20.2303 -130.594V-134.923ZM20.3072 -137C19.1602 -137 18.2303 -136.07 18.2303 -134.923V-130.594C18.2303 -129.447 19.1602 -128.517 20.3072 -128.517H28.9224C30.0695 -128.517 30.9993 -129.447 30.9993 -130.594V-134.923C30.9993 -136.07 30.0695 -137 28.9224 -137H20.3072ZM20.2303 -122C20.2303 -122.043 20.2647 -122.077 20.3072 -122.077H28.9224C28.9649 -122.077 28.9993 -122.043 28.9993 -122V-109.078C28.9993 -109.035 28.9649 -109.001 28.9224 -109.001H20.3072C20.2647 -109.001 20.2303 -109.035 20.2303 -109.078V-122ZM20.3072 -124.077C19.1602 -124.077 18.2303 -123.147 18.2303 -122V-109.078C18.2303 -107.93 19.1602 -107.001 20.3072 -107.001H28.9224C30.0695 -107.001 30.9993 -107.93 30.9993 -109.078V-122C30.9993 -123.147 30.0695 -124.077 28.9224 -124.077H20.3072ZM3 -113.406C3 -113.448 3.03443 -113.483 3.0769 -113.483H11.6921C11.7346 -113.483 11.769 -113.448 11.769 -113.406V-109.077C11.769 -109.034 11.7346 -109 11.6921 -109H3.0769C3.03443 -109 3 -109.034 3 -109.077V-113.406ZM3.0769 -115.483C1.92986 -115.483 1 -114.553 1 -113.406V-109.077C1 -107.93 1.92986 -107 3.0769 -107H11.6921C12.8392 -107 13.769 -107.93 13.769 -109.077V-113.406C13.769 -114.553 12.8392 -115.483 11.6921 -115.483H3.0769ZM15.9083 -58.6152C13.2213 -58.6152 11.043 -56.437 11.043 -53.7499C11.043 -51.0628 13.2213 -48.8846 15.9083 -48.8846C18.5954 -48.8846 20.7737 -51.0628 20.7737 -53.7499C20.7737 -56.437 18.5954 -58.6152 15.9083 -58.6152ZM16.9082 -60.5429V-69C16.9082 -69.5523 16.4605 -70 15.9082 -70C15.3559 -70 14.9082 -69.5523 14.9082 -69V-60.5429C11.5906 -60.0587 9.04297 -57.2018 9.04297 -53.7499C9.04297 -49.9583 12.1167 -46.8846 15.9083 -46.8846C19.6999 -46.8846 22.7737 -49.9583 22.7737 -53.7499C22.7737 -57.2019 20.2259 -60.0588 16.9082 -60.5429ZM20.8827 -65.7006C21.1338 -66.1926 21.736 -66.3879 22.228 -66.1368C24.511 -64.9718 26.4276 -63.1983 27.7659 -61.0123C29.1042 -58.8264 29.8123 -56.3131 29.8118 -53.75V-44.3655C29.8118 -43.478 29.4593 -42.6269 28.8318 -41.9994C28.2043 -41.3719 27.3532 -41.0193 26.4657 -41.0193H22.7734V-38.5001C22.7734 -37.9479 22.3257 -37.5001 21.7734 -37.5001C21.2212 -37.5001 20.7734 -37.9479 20.7734 -38.5001V-42.0193C20.7734 -42.5716 21.2212 -43.0193 21.7734 -43.0193H26.4657C26.8227 -43.0193 27.1651 -43.1612 27.4176 -43.4136C27.67 -43.6661 27.8118 -44.0085 27.8118 -44.3655V-53.75C27.8123 -55.9445 27.2061 -58.0965 26.0602 -59.968C24.9144 -61.8395 23.2735 -63.3579 21.3189 -64.3554C20.827 -64.6064 20.6317 -65.2087 20.8827 -65.7006ZM10.4973 -64.3552C10.9893 -64.606 11.1848 -65.2082 10.934 -65.7003C10.6832 -66.1923 10.081 -66.3878 9.58892 -66.137C7.30494 -64.9726 5.38735 -63.1995 4.04807 -61.0134C2.7088 -58.8274 2 -56.3137 2 -53.75C2 -51.1864 2.7088 -48.6726 4.04807 -46.4866C5.27924 -44.477 6.99913 -42.8164 9.0431 -41.6568V-38.5001C9.0431 -37.9479 9.49082 -37.5001 10.0431 -37.5001C10.5954 -37.5001 11.0431 -37.9479 11.0431 -38.5001V-42.254C11.0431 -42.6299 10.8322 -42.9741 10.4973 -43.1449C8.54184 -44.1417 6.90009 -45.6599 5.75347 -47.5314C4.60684 -49.403 4 -51.5551 4 -53.75C4 -55.9449 4.60684 -58.0971 5.75347 -59.9686C6.90009 -61.8402 8.54184 -63.3583 10.4973 -64.3552ZM16.4818 2.00134C15.3807 1.9816 14.2865 2.17932 13.2619 2.58319C12.2373 2.98706 11.3025 3.58911 10.511 4.35489C9.71954 5.12065 9.08693 6.03506 8.64944 7.04575C8.21293 8.05417 7.97925 9.13864 7.96168 10.2373V16.5008L7.96149 16.5208V21.2693C7.96149 21.8507 7.73052 22.4083 7.31939 22.8194C6.90826 23.2306 6.35066 23.4615 5.76924 23.4615H3.38473C2.4871 23.4615 1.62624 23.1049 0.991524 22.4702C0.356807 21.8355 0.000225663 20.9747 0.000225663 20.077V15.308C0.000225663 14.4104 0.356807 13.5495 0.991524 12.9148C1.62624 12.2801 2.4871 11.9235 3.38473 11.9235H5.76924C5.83373 11.9235 5.89794 11.9264 5.96168 11.932V10.2295L5.9618 10.2144C5.98241 8.85017 6.27201 7.50339 6.81402 6.25125C7.35602 4.99911 8.13977 3.86623 9.12036 2.91751C10.101 1.96878 11.2591 1.22289 12.5285 0.722534C13.7923 0.224365 15.1416 -0.0206451 16.4997 0.00135803C17.8578 -0.0206451 19.2071 0.224365 20.4709 0.722534C21.7403 1.22289 22.8985 1.96878 23.879 2.91751C24.8596 3.86623 25.6434 4.99911 26.1854 6.25125C26.7274 7.50339 27.017 8.85017 27.0376 10.2144L27.0377 10.2295V11.9319C27.1014 11.9263 27.1656 11.9235 27.2301 11.9235H29.6146C30.5122 11.9235 31.3731 12.2801 32.0078 12.9148C32.6425 13.5495 32.9991 14.4104 32.9991 15.308V20.077C32.9991 20.9746 32.6425 21.8355 32.0078 22.4702C31.3731 23.1049 30.5122 23.4615 29.6146 23.4615H27.2301C27.1657 23.4615 27.1016 23.4587 27.0379 23.4531V24.2501C27.0379 25.7802 26.4301 27.2475 25.3482 28.3294C24.4782 29.1995 23.3588 29.7629 22.158 29.9502C21.9878 30.6576 21.6254 31.3111 21.1025 31.834C20.356 32.5805 19.3435 32.9999 18.2878 32.9999H14.711C13.6553 32.9999 12.6428 32.5805 11.8963 31.834C11.1498 31.0875 10.7304 30.075 10.7304 29.0192C10.7304 27.9635 11.1498 26.951 11.8963 26.2045C12.6428 25.458 13.6553 25.0386 14.711 25.0386H18.2878C19.3435 25.0386 20.356 25.458 21.1025 26.2045C21.5844 26.6865 21.9301 27.2793 22.1145 27.9231C22.7981 27.7657 23.4301 27.4192 23.934 26.9152C24.6409 26.2084 25.0379 25.2497 25.0379 24.2501V21.2931L25.0378 21.2692V16.515L25.0377 16.5008V10.2373C25.0202 9.13863 24.7865 8.05415 24.35 7.04575C23.9125 6.03506 23.2799 5.12065 22.4884 4.35489C21.6969 3.58911 20.7621 2.98706 19.7375 2.58319C18.7129 2.17932 17.6187 1.9816 16.5176 2.00134L16.4997 1.00151L16.4818 2.00134ZM27.0379 21.2763V18.885L27.0378 18.8687V14.1157C27.0378 14.0647 27.0581 14.0158 27.0941 13.9798C27.1302 13.9437 27.1791 13.9235 27.2301 13.9235H29.6146C29.9818 13.9235 30.3339 14.0693 30.5936 14.329C30.8532 14.5886 30.9991 14.9408 30.9991 15.308V20.077C30.9991 20.4442 30.8532 20.7963 30.5936 21.056C30.3339 21.3156 29.9818 21.4615 29.6146 21.4615H27.2301C27.1791 21.4615 27.1302 21.4412 27.0941 21.4052C27.0597 21.3708 27.0397 21.3247 27.0379 21.2763ZM2.40574 14.329C2.66538 14.0694 3.01754 13.9235 3.38473 13.9235H5.76924C5.82022 13.9235 5.86912 13.9438 5.90518 13.9798C5.94123 14.0159 5.96149 14.0648 5.96149 14.1158V21.2693C5.96149 21.3203 5.94123 21.3692 5.90518 21.4052C5.86912 21.4413 5.82023 21.4615 5.76924 21.4615H3.38473C3.01754 21.4615 2.66538 21.3157 2.40574 21.056C2.14609 20.7964 2.00023 20.4442 2.00023 20.077V15.308C2.00023 14.9408 2.14609 14.5887 2.40574 14.329ZM14.711 27.0386C14.1857 27.0386 13.6819 27.2473 13.3105 27.6187C12.939 27.9902 12.7304 28.4939 12.7304 29.0192C12.7304 29.5445 12.939 30.0483 13.3105 30.4198C13.6819 30.7912 14.1857 30.9999 14.711 30.9999H18.2878C18.813 30.9999 19.3168 30.7912 19.6883 30.4198C20.0597 30.0483 20.2684 29.5445 20.2684 29.0192C20.2684 28.4939 20.0597 27.9902 19.6883 27.6187C19.3168 27.2473 18.813 27.0386 18.2878 27.0386H14.711ZM6.53846 146.538C6.53846 144.032 8.5704 142 11.0769 142C13.5834 142 15.6154 144.032 15.6154 146.538C15.6154 149.045 13.5834 151.077 11.0769 151.077C8.5704 151.077 6.53846 149.045 6.53846 146.538ZM11.0769 140C7.46583 140 4.53846 142.927 4.53846 146.538C4.53846 150.15 7.46583 153.077 11.0769 153.077C14.688 153.077 17.6154 150.15 17.6154 146.538C17.6154 142.927 14.688 140 11.0769 140ZM11.0769 158C8.40436 158 5.84125 159.062 3.95146 160.951C2.06167 162.841 1 165.404 1 168.077V169.538H21.1538V168.077C21.1538 165.404 20.0922 162.841 18.2024 160.951C16.3126 159.062 13.7495 158 11.0769 158ZM2.53725 159.537C4.80211 157.272 7.87392 156 11.0769 156C14.2799 156 17.3517 157.272 19.6166 159.537C21.8815 161.802 23.1538 164.874 23.1538 168.077V170.538C23.1538 171.091 22.7061 171.538 22.1538 171.538H0C-0.552285 171.538 -1 171.091 -1 170.538V168.077C-1 164.874 0.272387 161.802 2.53725 159.537ZM20.9231 140C20.3708 140 19.9231 140.448 19.9231 141C19.9231 141.552 20.3708 142 20.9231 142C22.1268 142 23.2811 142.478 24.1323 143.329C24.9834 144.18 25.4615 145.335 25.4615 146.538C25.4615 147.742 24.9834 148.897 24.1323 149.748C23.2811 150.599 22.1268 151.077 20.9231 151.077C20.3708 151.077 19.9231 151.525 19.9231 152.077C19.9231 152.629 20.3708 153.077 20.9231 153.077C22.6572 153.077 24.3203 152.388 25.5465 151.162C26.7727 149.936 27.4615 148.273 27.4615 146.538C27.4615 144.804 26.7727 143.141 25.5465 141.915C24.3203 140.689 22.6572 140 20.9231 140ZM23.9259 157.112C24.1223 156.596 24.6999 156.337 25.2161 156.533C27.5023 157.403 29.4704 158.946 30.8602 160.959C32.25 162.971 32.9958 165.359 32.999 167.805V167.806V170.538C32.999 171.091 32.5513 171.538 31.999 171.538H28.3067C27.7544 171.538 27.3067 171.091 27.3067 170.538C27.3067 169.986 27.7544 169.538 28.3067 169.538H30.999V167.807C30.9962 165.766 30.3739 163.774 29.2144 162.095C28.0548 160.416 26.4125 159.128 24.505 158.402C23.9888 158.206 23.7296 157.628 23.9259 157.112ZM15.0382 69H15.0353C14.365 69.002 13.7095 69.2029 13.1546 69.5786C12.6 69.9541 12.1708 70.4873 11.9261 71.1105L11.9256 71.1118L11.0483 73.3395L8.1866 74.9373L5.7562 74.5726L5.74015 74.5703C5.08619 74.483 4.42005 74.5887 3.82584 74.8752C3.23148 75.1617 2.73444 75.6168 2.40002 76.1852L2.39723 76.19L1.46172 77.8005C1.11893 78.3768 0.960307 79.0432 1.00844 79.712C1.05673 80.383 1.31064 81.0219 1.73419 81.5448L1.73791 81.5494L3.27065 83.4191V86.5884L1.78112 88.4552L1.77858 88.4583C1.35654 88.9806 1.10355 89.6184 1.05536 90.288C1.00722 90.9568 1.16585 91.6232 1.50865 92.1995L2.44413 93.81L2.44695 93.8148C2.78135 94.3832 3.2784 94.8383 3.87276 95.1248C4.46697 95.4113 5.1331 95.517 5.78707 95.4297L5.80312 95.4274L8.23031 95.0632L11.0471 96.6574L11.9256 98.8882C12.1703 99.5116 12.5998 100.046 13.1546 100.421C13.7095 100.797 14.365 100.998 15.0353 101H15.0382H17.0087H17.0116C17.6819 100.998 18.3374 100.797 18.8923 100.421C19.4473 100.046 19.8766 99.5121 20.1213 98.8884L20.9998 96.6574L23.8166 95.0632L26.2438 95.4274L26.2598 95.4297C26.9138 95.517 27.58 95.4113 28.1742 95.1248C28.7685 94.8383 29.2656 94.3832 29.6 93.8148L29.6028 93.81L30.5383 92.1994C30.8811 91.6232 31.0397 90.9568 30.9916 90.288C30.9433 89.617 30.6894 88.9781 30.2658 88.4552L30.2621 88.4506L28.7293 86.581V83.4116L30.2189 81.5448L30.2214 81.5417C30.6434 81.0194 30.8965 80.3817 30.9446 79.712C30.9928 79.0432 30.8341 78.3768 30.4913 77.8005L29.5559 76.19L29.553 76.1852C29.2186 75.6168 28.7216 75.1617 28.1272 74.8752C27.533 74.5887 26.8669 74.483 26.2129 74.5703L26.1969 74.5726L23.7697 74.9368L20.9529 73.3426L20.0744 71.1118C19.8297 70.4883 19.4003 69.9542 18.8454 69.5786C18.2905 69.2029 17.635 69.002 16.9647 69H16.9618H15.0382ZM15.0398 71H16.9602C17.2345 71.0011 17.5008 71.0835 17.7242 71.2347C17.9477 71.386 18.1169 71.5984 18.2125 71.8421L18.213 71.8433L19.2217 74.4049C19.3057 74.618 19.4603 74.7959 19.6596 74.9087L23.0846 76.8472C23.279 76.9572 23.5046 76.999 23.7256 76.9659L26.4846 76.5518C26.7502 76.5177 27.0197 76.5615 27.2588 76.6768C27.4991 76.7926 27.6964 76.9746 27.828 77.1973L27.8293 77.1994L28.7647 78.81L28.7711 78.8207C28.9068 79.0478 28.9685 79.3083 28.9498 79.5684C28.9311 79.8285 28.8326 80.0788 28.6648 80.2859L28.6602 80.2917L26.9477 82.4378C26.8063 82.615 26.7293 82.8349 26.7293 83.0615V86.9385C26.7293 87.1696 26.8094 87.3937 26.956 87.5724L28.7117 89.7141L28.7133 89.7161C28.8801 89.9228 28.9781 90.1723 28.9967 90.4316C29.0154 90.6917 28.9537 90.9522 28.818 91.1793L28.8117 91.19L27.8762 92.8006L27.875 92.8026C27.7434 93.0254 27.546 93.2074 27.3057 93.3232C27.0666 93.4385 26.7972 93.4823 26.5316 93.4482L23.7725 93.0341C23.5516 93.001 23.3259 93.0428 23.1315 93.1528L19.7065 95.0913C19.5072 95.2041 19.3526 95.382 19.2687 95.5951L18.2599 98.1567L18.2594 98.1579C18.1639 98.4016 17.9946 98.614 17.7711 98.7653C17.5477 98.9165 17.2814 98.999 17.007 99H15.04C14.7655 98.999 14.4992 98.9165 14.2758 98.7653C14.0523 98.614 13.8831 98.4016 13.7875 98.1579L13.787 98.1567L12.7783 95.5951C12.6943 95.382 12.5397 95.2041 12.3404 95.0913L8.9154 93.1528C8.721 93.0428 8.49535 93.001 8.27444 93.0341L5.51535 93.4482C5.24973 93.4823 4.98028 93.4385 4.74119 93.3232C4.50091 93.2074 4.30359 93.0254 4.17199 92.8027L4.17075 92.8006L3.23527 91.19L3.22889 91.1793C3.09319 90.9522 3.03148 90.6917 3.0502 90.4316C3.06892 90.1715 3.16744 89.9212 3.33524 89.7141L3.33983 89.7083L5.05231 87.5622C5.19367 87.385 5.27065 87.1651 5.27065 86.9385V83.0615C5.27065 82.8304 5.19056 82.6063 5.044 82.4276L3.28672 80.284C3.1199 80.0772 3.02194 79.8277 3.00328 79.5684C2.98456 79.3083 3.04627 79.0478 3.18204 78.8207L3.18828 78.81L4.12504 77.1973C4.25664 76.9746 4.45397 76.7926 4.69427 76.6768C4.93338 76.5615 5.20286 76.5177 5.4685 76.5518L8.22753 76.9659C8.44647 76.9987 8.67012 76.958 8.86342 76.8501L12.3353 74.9116C12.5371 74.7989 12.6936 74.6199 12.7783 74.4049L13.787 71.8433L13.7875 71.8421C13.8831 71.5984 14.0523 71.386 14.2758 71.2347C14.4992 71.0835 14.7655 71.0011 15.0398 71ZM16 79.3846C14.4957 79.3846 13.0498 79.9723 11.9812 81.0235C10.912 82.0753 10.3083 83.5054 10.3083 85C10.3083 86.1143 10.6442 87.2022 11.2717 88.126C11.8991 89.0497 12.7891 89.7671 13.8272 90.1901C14.8652 90.6131 16.0065 90.7235 17.1073 90.5081C18.2083 90.2927 19.2218 89.7605 20.0188 88.9765C20.816 88.1922 21.3609 87.191 21.5818 86.0986C21.8027 85.0061 21.6891 83.8738 21.2562 82.8457C20.8234 81.8178 20.0916 80.9419 19.1559 80.3268C18.2203 79.7119 17.1221 79.3846 16 79.3846ZM13.3837 82.4493C14.0748 81.7694 15.0156 81.3846 16 81.3846C16.7338 81.3846 17.4498 81.5987 18.0573 81.9981C18.6647 82.3973 19.1356 82.9631 19.413 83.6218C19.6903 84.2804 19.7626 85.0042 19.6214 85.7022C19.4803 86.4004 19.1314 87.044 18.6163 87.5507C18.101 88.0576 17.4425 88.4046 16.7233 88.5453C16.0039 88.6861 15.2585 88.6137 14.5819 88.338C13.9054 88.0623 13.3299 87.5966 12.9262 87.0023C12.5226 86.4081 12.3083 85.7114 12.3083 85C12.3083 84.0465 12.6932 83.1286 13.3837 82.4493ZM28.6923 237C29.4145 237 30 236.415 30 235.692V210.308C30 209.585 29.4145 209 28.6923 209H3.30769C2.58547 209 2 209.585 2 210.308V235.692C2 236.415 2.58547 237 3.30769 237H28.6923ZM32 235.692C32 237.519 30.5191 239 28.6923 239H3.30769C1.4809 239 0 237.519 0 235.692V210.308C0 208.481 1.4809 207 3.30769 207H28.6923C30.5191 207 32 208.481 32 210.308V235.692ZM6.76976 212.769C6.21748 212.769 5.76976 213.217 5.76976 213.769C5.76976 214.321 6.21748 214.769 6.76976 214.769H11.3851C11.9374 214.769 12.3851 214.321 12.3851 213.769C12.3851 213.217 11.9374 212.769 11.3851 212.769H6.76976ZM5.76976 219.538C5.76976 218.986 6.21748 218.538 6.76976 218.538H17.1544C17.7067 218.538 18.1544 218.986 18.1544 219.538C18.1544 220.091 17.7067 220.538 17.1544 220.538H6.76976C6.21748 220.538 5.76976 220.091 5.76976 219.538ZM27.2426 220.053C27.5268 219.579 27.3732 218.965 26.8996 218.681C26.4261 218.397 25.8118 218.55 25.5277 219.024L19.1082 229.723L11.8813 225.593C11.425 225.332 10.8446 225.469 10.5531 225.907L5.93771 232.83C5.63136 233.289 5.75553 233.91 6.21506 234.217C6.67459 234.523 7.29546 234.399 7.60181 233.939L11.6994 227.793L18.9659 231.945C19.4382 232.215 20.0397 232.058 20.3196 231.591L27.2426 220.053Z" fill="url(#paint0_linear_62_1663)"/>
</g>
<defs>
<linearGradient id="paint0_linear_62_1663" x1="15.9995" y1="-137" x2="15.9995" y2="239" gradientUnits="userSpaceOnUse">
<stop stop-color="#1FB8EC"/>
<stop offset="1" stop-color="#F3348F"/>
</linearGradient>
</defs>
</svg>
