<svg xmlns="http://www.w3.org/2000/svg" width="20.782" height="18.469" viewBox="0 0 20.782 18.469">
  <path id="Icon_awesome-edit" data-name="Icon awesome-edit" d="M14.526,3.005,17.78,6.26a.353.353,0,0,1,0,.5L9.9,14.638l-3.348.372a.7.7,0,0,1-.776-.776l.372-3.348,7.88-7.88A.353.353,0,0,1,14.526,3.005Zm5.845-.826L18.61.418a1.411,1.411,0,0,0-1.992,0L15.341,1.7a.353.353,0,0,0,0,.5L18.6,5.448a.353.353,0,0,0,.5,0l1.277-1.277a1.411,1.411,0,0,0,0-1.992ZM13.855,12.494v3.673H2.309V4.622H10.6a.444.444,0,0,0,.307-.126L12.35,3.052a.433.433,0,0,0-.307-.74H1.732A1.732,1.732,0,0,0,0,4.044v12.7a1.732,1.732,0,0,0,1.732,1.732h12.7a1.732,1.732,0,0,0,1.732-1.732V11.051a.434.434,0,0,0-.74-.307l-1.443,1.443A.444.444,0,0,0,13.855,12.494Z" transform="translate(0 -0.007)" opacity="0.294"/>
</svg>
