<svg xmlns="http://www.w3.org/2000/svg" width="25.243" height="25.244" viewBox="0 0 25.243 25.244">
  <path id="Icon_awesome-phone-alt" data-name="Icon awesome-phone-alt" d="M.72,17.839l5.522-2.367a1.183,1.183,0,0,1,1.381.34L10.068,18.8A18.275,18.275,0,0,0,18.8,10.064L15.816,7.618a1.18,1.18,0,0,1-.34-1.381L17.843.716A1.191,1.191,0,0,1,19.2.03l5.128,1.183a1.183,1.183,0,0,1,.917,1.153A22.875,22.875,0,0,1,2.366,25.244a1.183,1.183,0,0,1-1.154-.917L.029,19.2A1.2,1.2,0,0,1,.72,17.839Z" transform="translate(0 0)" fill="#fff" opacity="0.72"/>
</svg>
