<svg width="24" height="25" viewBox="0 0 24 25" fill="none" xmlns="http://www.w3.org/2000/svg">
<path d="M11.8804 25.0001C14.1933 25.0001 15.4576 23.6255 15.4576 21.6885H8.29578C8.29578 23.6255 9.56007 25.0001 11.8804 25.0001Z" fill="#B2B2B2"/>
<path d="M23.4895 18.5142C22.3443 17.2457 20.0908 16.5022 20.0908 10.8224C20.0908 4.99263 17.0268 2.64948 14.171 2.08713C13.9032 2.03089 13.7099 1.95591 13.7099 1.71847V1.53727C13.7099 0.699982 12.8918 -0.0060864 11.8953 0.000161982C10.8987 -0.0123348 10.0806 0.699982 10.0806 1.53727V1.71847C10.0806 1.94966 9.88726 2.03089 9.61953 2.08713C6.75628 2.65573 3.69967 4.99263 3.69967 10.8224C3.69967 16.5022 1.44626 17.2395 0.300961 18.5142C-0.435303 19.3327 0.263775 20.5011 1.48345 20.5011H22.3145C23.5267 20.5011 24.2258 19.3264 23.4895 18.5142Z" fill="#B2B2B2"/>
</svg>
