<svg xmlns="http://www.w3.org/2000/svg" width="11.44" height="20.343" viewBox="0 0 11.44 20.343">
  <path id="Icon_awesome-dollar-sign" data-name="Icon awesome-dollar-sign" d="M8.313,9.274,4.022,8.018a1.172,1.172,0,0,1,.33-2.3H6.986a2.425,2.425,0,0,1,1.359.417.619.619,0,0,0,.775-.079L10.5,4.708a.644.644,0,0,0-.072-.973A5.618,5.618,0,0,0,6.994,2.543V.636A.638.638,0,0,0,6.358,0H5.087a.638.638,0,0,0-.636.636V2.543h-.1A4.353,4.353,0,0,0,.021,7.295a4.548,4.548,0,0,0,3.33,3.838l4.073,1.192a1.172,1.172,0,0,1-.33,2.3H4.459A2.425,2.425,0,0,1,3.1,14.2a.619.619,0,0,0-.775.079L.943,15.635a.644.644,0,0,0,.072.973A5.618,5.618,0,0,0,4.451,17.8v1.907a.638.638,0,0,0,.636.636H6.358a.638.638,0,0,0,.636-.636V17.792a4.488,4.488,0,0,0,4.2-2.889,4.363,4.363,0,0,0-2.881-5.63Z" transform="translate(-0.003)"/>
</svg>
