<svg xmlns="http://www.w3.org/2000/svg" width="36" height="36" viewBox="0 0 36 36">
  <path id="Icon_ionic-ios-cloud-circle" data-name="Icon ionic-ios-cloud-circle" d="M21.375,3.375a18,18,0,1,0,18,18A18,18,0,0,0,21.375,3.375Zm7.148,23.538h-14.3A4.022,4.022,0,0,1,10.3,22.829a4.172,4.172,0,0,1,2.873-4,3.132,3.132,0,0,1,3.089-3.124A2.938,2.938,0,0,1,17.55,16a6.462,6.462,0,0,1,5.409-2.925,6.283,6.283,0,0,1,6.179,5.789,4.06,4.06,0,0,1-.614,8.048Z" transform="translate(-3.375 -3.375)" fill="#4753a7"/>
</svg>
