<svg xmlns="http://www.w3.org/2000/svg" width="36" height="36" viewBox="0 0 36 36">
  <path id="Icon_awesome-recycle" data-name="Icon awesome-recycle" d="M12.977,18.415a1.126,1.126,0,0,1-1.692,1.207L8.42,17.832,4.844,23.556A2.254,2.254,0,0,0,6.751,27h3.655a.844.844,0,0,1,.844.844v2.813a.844.844,0,0,1-.844.844H6.758A6.754,6.754,0,0,1,1.034,21.173L4.608,15.45,1.744,13.661a1.126,1.126,0,0,1,.343-2.05L9.838,9.821a1.125,1.125,0,0,1,1.349.843l1.79,7.751Zm6.93-12.861,2.9,4.646-2.865,1.79a1.126,1.126,0,0,0,.343,2.05l7.751,1.789a1.125,1.125,0,0,0,1.349-.843l1.789-7.751a1.126,1.126,0,0,0-1.692-1.207L26.625,7.816l-2.9-4.646a6.753,6.753,0,0,0-11.448,0L11.013,5.192a.844.844,0,0,0,.269,1.162l2.385,1.49a.844.844,0,0,0,1.163-.268l1.263-2.021A2.252,2.252,0,0,1,19.907,5.554ZM34.966,21.173l-1.935-3.1a.844.844,0,0,0-1.163-.269l-2.381,1.488a.844.844,0,0,0-.268,1.163l1.938,3.1A2.254,2.254,0,0,1,29.249,27H22.5V23.626a1.126,1.126,0,0,0-1.92-.8l-5.625,5.624a1.125,1.125,0,0,0,0,1.591L20.58,35.67a1.126,1.126,0,0,0,1.92-.8V31.5h6.742A6.754,6.754,0,0,0,34.966,21.173Z" fill="#4753a7"/>
</svg>
