<svg xmlns="http://www.w3.org/2000/svg" width="18.244" height="12.168" viewBox="0 0 18.244 12.168">
  <path id="Icon_ionic-ios-arrow-round-forward" data-name="Icon ionic-ios-arrow-round-forward" d="M19.51,11.485a.828.828,0,0,0-.006,1.166l3.853,3.859H8.692a.824.824,0,0,0,0,1.648H23.35L19.5,22.017a.834.834,0,0,0,.006,1.166.82.82,0,0,0,1.16-.006l5.222-5.26h0a.925.925,0,0,0,.171-.26.786.786,0,0,0,.063-.317.826.826,0,0,0-.234-.577L20.663,11.5A.807.807,0,0,0,19.51,11.485Z" transform="translate(-7.875 -11.252)"/>
</svg>
