<svg xmlns="http://www.w3.org/2000/svg" width="18.244" height="12.168" viewBox="0 0 18.244 12.168">
  <path id="Icon_ionic-ios-arrow-round-forward" data-name="Icon ionic-ios-arrow-round-forward" d="M14.485,11.485a.828.828,0,0,1,.006,1.166L10.638,16.51H25.3a.824.824,0,0,1,0,1.648H10.644L14.5,22.017a.834.834,0,0,1-.006,1.166.82.82,0,0,1-1.16-.006l-5.222-5.26h0a.925.925,0,0,1-.171-.26.786.786,0,0,1-.063-.317.826.826,0,0,1,.234-.577l5.222-5.26A.807.807,0,0,1,14.485,11.485Z" transform="translate(-7.875 -11.252)" opacity="0.5"/>
</svg>
