<svg xmlns="http://www.w3.org/2000/svg" width="17" height="20" viewBox="0 0 17 20">
  <g id="Notification" transform="translate(0 -1)">
    <path id="Notification_Icon" data-name="Notification Icon" d="M6,14h4a2,2,0,1,1-4,0ZM1,13a1,1,0,0,1,0-2h.5A4.353,4.353,0,0,0,3,8V5A4.952,4.952,0,0,1,8,0a4.951,4.951,0,0,1,5,5V8a4.351,4.351,0,0,0,1.5,3H15a1,1,0,0,1,0,2Z" transform="translate(0 5)" opacity="0.397"/>
    <path id="Notification_Badge" data-name="Notification Badge" d="M4,0A4,4,0,1,1,0,4,4,4,0,0,1,4,0Z" transform="translate(9 1)" fill="#4753a7"/>
  </g>
</svg>
