<svg xmlns="http://www.w3.org/2000/svg" width="21.893" height="18.244" viewBox="0 0 21.893 18.244">
  <g id="reply_1_" data-name="reply (1)" opacity="0.5">
    <path id="Path_27" data-name="Path 27" d="M21.516,20.244a.684.684,0,0,1-.6-.353l-.93-1.681a8.44,8.44,0,0,0-6.909-4.339v3.863a.684.684,0,0,1-1.147.5l-8.21-7.526a.684.684,0,0,1,0-1.008l8.21-7.526a.684.684,0,0,1,1.147.5v3.9A9.819,9.819,0,0,1,22.2,16.368V19.56a.683.683,0,0,1-.513.662A.7.7,0,0,1,21.516,20.244Zm-9.122-7.754h.21a9.811,9.811,0,0,1,8.228,4.47v-.593a8.447,8.447,0,0,0-8.438-8.438.684.684,0,0,1-.684-.684V4.24L5.2,10.21l6.513,5.97V13.175A.684.684,0,0,1,12.394,12.491Z" transform="translate(-0.307 -2)"/>
    <path id="Path_28" data-name="Path 28" d="M8.666,18.42a.686.686,0,0,1-.47-.186L.214,10.708a.686.686,0,0,1,0-1L8.2,2.186a.685.685,0,1,1,.94,1L1.682,10.21l7.454,7.028a.684.684,0,0,1-.47,1.182Z" transform="translate(0 -2)"/>
  </g>
</svg>
