<svg xmlns="http://www.w3.org/2000/svg" width="21.894" height="18.244" viewBox="0 0 21.894 18.244">
  <path id="reply" d="M21.209,20.244a.684.684,0,0,1-.6-.357l-.019-.035a11.634,11.634,0,0,0-10.174-5.994H9.122v3.877a.684.684,0,0,1-1.16.491L.208,10.7a.683.683,0,0,1,0-.982L7.962,2.193a.684.684,0,0,1,1.16.491V6.563a13.014,13.014,0,0,1,12.771,13,.684.684,0,0,1-.514.663A.675.675,0,0,1,21.209,20.244ZM8.438,12.49h1.978a13.006,13.006,0,0,1,9.819,4.48A11.651,11.651,0,0,0,8.894,7.929H8.438a.684.684,0,0,1-.684-.684V4.3L1.667,10.21l6.087,5.908V13.175a.684.684,0,0,1,.684-.684Z" transform="translate(0 -2)" opacity="0.5"/>
</svg>
