<svg xmlns="http://www.w3.org/2000/svg" width="24.063" height="24.062" viewBox="0 0 24.063 24.062">
  <path id="Icon_material-dns" data-name="Icon material-dns" d="M27.225,17.868H5.837A1.341,1.341,0,0,0,4.5,19.2v8.021a1.341,1.341,0,0,0,1.337,1.337H27.225a1.341,1.341,0,0,0,1.337-1.337V19.2A1.341,1.341,0,0,0,27.225,17.868ZM9.847,25.889a2.674,2.674,0,1,1,2.674-2.674A2.681,2.681,0,0,1,9.847,25.889ZM27.225,4.5H5.837A1.341,1.341,0,0,0,4.5,5.837v8.021a1.341,1.341,0,0,0,1.337,1.337H27.225a1.341,1.341,0,0,0,1.337-1.337V5.837A1.341,1.341,0,0,0,27.225,4.5ZM9.847,12.521a2.674,2.674,0,1,1,2.674-2.674A2.681,2.681,0,0,1,9.847,12.521Z" transform="translate(-4.5 -4.5)" fill="#4f5bae"/>
</svg>
