<svg id="Products_Sold_Graph" data-name="Products Sold Graph" xmlns="http://www.w3.org/2000/svg" xmlns:xlink="http://www.w3.org/1999/xlink" width="1311.015" height="227.309" viewBox="0 0 1311.015 227.309">
  <defs>
    <linearGradient id="linear-gradient" x1="0.5" x2="0.5" y2="1" gradientUnits="objectBoundingBox">
      <stop offset="0" stop-color="#a7a7ff"/>
      <stop offset="1" stop-color="#fff" stop-opacity="0"/>
    </linearGradient>
  </defs>
  <path id="Filled.Graph" d="M330,490.153V401.268s150.105,58.3,270.04,61.963c129.687-3.549,152.143-28.5,253.16-61.963,86.323-27.892,172.41-35.547,255.038-33.576s154.245,32.1,251.848,35.189c172.183-12.44,260.031-75.335,271.664-101.6V523.21L330,523.309Z" transform="translate(-324.998 -296)" opacity="0.7" fill="url(#linear-gradient)"/>
  <path id="Line.Graph" d="M313,346.5s149.158,59.691,267.093,60.976,163.234-30.8,253.565-60.9,176.2-35.23,255.264-34.218,155.917,32.548,253.057,34.221,254.294-54.513,271.77-101.343" transform="translate(-306.998 -241)" fill="none" stroke="#a3a0fb" stroke-width="2"/>
  <g id="Jun.Ellipse" transform="translate(1301.025)" fill="#fff" stroke="#a4a1fb" stroke-width="2">
    <circle cx="4.995" cy="4.995" r="4.995" stroke="none"/>
    <circle cx="4.995" cy="4.995" r="3.995" fill="none"/>
  </g>
  <g id="May.Ellipse" transform="translate(1028.634 101)" fill="#fff" stroke="#a4a1fb" stroke-width="2">
    <circle cx="4.995" cy="4.995" r="4.995" stroke="none"/>
    <circle cx="4.995" cy="4.995" r="3.995" fill="none"/>
  </g>
  <g id="Apr.Ellipse" transform="translate(776.553 67)" fill="#fff" stroke="#a4a1fb" stroke-width="2">
    <circle cx="4.995" cy="4.995" r="4.995" stroke="none"/>
    <circle cx="4.995" cy="4.995" r="3.995" fill="none"/>
  </g>
  <g id="Mar.Ellipse" transform="translate(522.083 101)" fill="#fff" stroke="#a4a1fb" stroke-width="2">
    <circle cx="4.995" cy="4.995" r="4.995" stroke="none"/>
    <circle cx="4.995" cy="4.995" r="3.995" fill="none"/>
  </g>
  <g id="Feb.Ellipse" transform="translate(268.807 162)" fill="#fff" stroke="#a4a1fb" stroke-width="2">
    <circle cx="4.995" cy="4.995" r="4.995" stroke="none"/>
    <circle cx="4.995" cy="4.995" r="3.995" fill="none"/>
  </g>
  <g id="Jan.Ellipse" transform="translate(0 100)" fill="#fff" stroke="#a4a1fb" stroke-width="2">
    <circle cx="4.995" cy="4.995" r="4.995" stroke="none"/>
    <circle cx="4.995" cy="4.995" r="3.995" fill="none"/>
  </g>
</svg>
