<svg xmlns="http://www.w3.org/2000/svg" width="501" height="372" viewBox="0 0 501 372">
  <g id="Group_325" data-name="Group 325" transform="translate(-1194 -236)">
    <g id="Group_58" data-name="Group 58" transform="translate(-6191 -3868)">
      <rect id="Rectangle_326" data-name="Rectangle 326" width="501" height="344" rx="10" transform="translate(7385 4132)" fill="#fff"/>
      <g id="Group_50" data-name="Group 50" transform="translate(491.531 6)">
        <path id="Path_74" data-name="Path 74" d="M699.7,197.268h-487a7.008,7.008,0,0,0-7,7v330a7.008,7.008,0,0,0,7,7h487a7.008,7.008,0,0,0,7-7v-330a7.008,7.008,0,0,0-7-7Zm5,337a5,5,0,0,1-5,5h-487a5,5,0,0,1-5-5v-330a5,5,0,0,1,5-5h487a5,5,0,0,1,5,5Z" transform="translate(6687.772 3928.732)" opacity="0.41"/>
        <rect id="Rectangle_325" data-name="Rectangle 325" width="499" height="2" transform="translate(6894.469 4154.04)" opacity="0.3"/>
        <circle id="Ellipse_35" data-name="Ellipse 35" cx="6" cy="6" r="6" transform="translate(6905.469 4135)" opacity="0.3"/>
        <circle id="Ellipse_36" data-name="Ellipse 36" cx="6" cy="6" r="6" transform="translate(6922.719 4135)" opacity="0.3"/>
        <circle id="Ellipse_37" data-name="Ellipse 37" cx="6" cy="6" r="6" transform="translate(6939.969 4135)" opacity="0.3"/>
        <path id="Path_75" data-name="Path 75" d="M609.524,293.732h-310a15.5,15.5,0,1,1,0-31h310a15.5,15.5,0,0,1,0,31Zm-310-29a13.5,13.5,0,1,0,0,27h310a13.5,13.5,0,0,0,0-27Z" transform="translate(6687.772 3928.732)" opacity="0.198"/>
        <path id="Path_79" data-name="Path 79" d="M388.524,285.232h-84a7,7,0,1,1,0-14h84a7,7,0,0,1,0,14Z" transform="translate(6687.772 3928.732)" fill="#6470c2"/>
        <path id="Path_80" data-name="Path 80" d="M599.024,281.732a7,7,0,1,1,7-7A7,7,0,0,1,599.024,281.732Zm0-12a5,5,0,1,0,5,5,5,5,0,0,0-5-5Z" transform="translate(6687.772 3928.732)" opacity="0.452"/>
        <path id="Path_81" data-name="Path 81" d="M609.852,288.065a1,1,0,0,1-.707-.293l-7.026-7.026a1,1,0,0,1,1.414-1.414l7.026,7.026a1,1,0,0,1-.707,1.707Z" transform="translate(6687.772 3928.732)" opacity="0.452"/>
      </g>
    </g>
    <path id="Rectangle_327" data-name="Rectangle 327" d="M14,0H437a14,14,0,0,1,14,14v0a0,0,0,0,1,0,0H0a0,0,0,0,1,0,0v0A14,14,0,0,1,14,0Z" transform="translate(1220 250)" fill="#e4e4e4" opacity="0.322"/>
    <path id="Rectangle_328" data-name="Rectangle 328" d="M14,0H343a14,14,0,0,1,14,14v0a0,0,0,0,1,0,0H0a0,0,0,0,1,0,0v0A14,14,0,0,1,14,0Z" transform="translate(1268 236)" fill="#e4e4e4" opacity="0.128"/>
    <g id="Group_62" data-name="Group 62" transform="translate(-11324.279 -3070.488)">
      <path id="Path_289" data-name="Path 289" d="M716.276,507.892H523.783a3.036,3.036,0,0,1-3.033-3.033v-83.71a3.036,3.036,0,0,1,3.033-3.033H716.276a3.036,3.036,0,0,1,3.033,3.033v83.71A3.036,3.036,0,0,1,716.276,507.892ZM523.783,419.329a1.822,1.822,0,0,0-1.82,1.82v83.71a1.822,1.822,0,0,0,1.82,1.82H716.276a1.822,1.822,0,0,0,1.82-1.82v-83.71a1.822,1.822,0,0,0-1.82-1.82Z" transform="translate(12148.75 3135.022)" fill="#e6e6e6"/>
      <path id="Path_290" data-name="Path 290" d="M545.07,443.616a1.82,1.82,0,1,0,0,3.64h25.477a1.82,1.82,0,1,0,0-3.639Z" transform="translate(12135.349 3119.834)" fill="#e6e6e6"/>
      <path id="Path_291" data-name="Path 291" d="M726.01,473.842v33.747H554.21V489.82c1.19-.764,2.386-1.524,3.594-2.26,5.158-3.156,10.678-6.108,16.695-7.2a25.2,25.2,0,0,1,8.619-.108,49.18,49.18,0,0,1,8.77,2.582,59.891,59.891,0,0,0,8.6,2.7,25.183,25.183,0,0,0,8.723.172c5.524-.829,10.714-3.049,15.883-5.057,5.2-2.019,10.56-3.927,16.188-4.178,5.556-.251,11.045,1.062,16.317,2.69,10.75,3.318,21.727,8.239,33.109,4.863,11.559-3.422,22.19-13.3,35-10.369a.482.482,0,0,1,.3.19Z" transform="translate(12128.821 3102.264)" fill="#e6e6e6"/>
      <path id="Path_292" data-name="Path 292" d="M725.828,474.43a.519.519,0,0,1-.588.258,19.155,19.155,0,0,0-4.655-.481c-12.6.222-22.287,10.365-34.607,11.883-11.108,1.366-21.563-4.035-32.007-6.858-5.427-1.467-11.022-2.245-16.606-1.248-5.541.986-10.742,3.253-15.964,5.265-5.028,1.937-10.254,3.737-15.7,3.827-5.986.1-11.377-2.367-16.929-4.247A30.144,30.144,0,0,0,579.863,481a26.952,26.952,0,0,0-8.78,1.359c-5.9,1.876-11.216,5.219-16.391,8.54a.46.46,0,0,1-.3.083.556.556,0,0,1-.237-1.011l.237-.151c1.187-.764,2.382-1.524,3.587-2.26,5.147-3.156,10.656-6.108,16.66-7.2a25.1,25.1,0,0,1,8.6-.108,49,49,0,0,1,8.751,2.582,59.674,59.674,0,0,0,8.583,2.7,25.077,25.077,0,0,0,8.7.172c5.513-.829,10.692-3.049,15.849-5.057,5.19-2.019,10.537-3.927,16.154-4.178,5.545-.251,11.022,1.062,16.283,2.69,10.728,3.318,21.681,8.239,33.04,4.863,11.535-3.422,22.144-13.3,34.927-10.369a.48.48,0,0,1,.3.19A.553.553,0,0,1,725.828,474.43Z" transform="translate(12129.003 3102.264)" fill="#4753a7"/>
      <circle id="Ellipse_91" data-name="Ellipse 91" cx="2.511" cy="2.511" r="2.511" transform="translate(12704.191 3580.442)" fill="#4753a7"/>
      <circle id="Ellipse_92" data-name="Ellipse 92" cx="2.511" cy="2.511" r="2.511" transform="translate(12767.675 3577.214)" fill="#4753a7"/>
      <circle id="Ellipse_93" data-name="Ellipse 93" cx="2.511" cy="2.511" r="2.511" transform="translate(12845.146 3573.986)" fill="#4753a7"/>
      <path id="Path_293" data-name="Path 293" d="M606.57,593.616a1.82,1.82,0,0,0,0,3.64h25.477a1.82,1.82,0,0,0,0-3.64Z" transform="translate(12098.72 3030.493)" fill="#e6e6e6"/>
      <circle id="Ellipse_94" data-name="Ellipse 94" cx="6.875" cy="6.875" r="6.875" transform="translate(12682.036 3618.853)" fill="#4753a7"/>
      <path id="Path_294" data-name="Path 294" d="M758.57,593.616a1.82,1.82,0,0,0,0,3.64h25.477a1.82,1.82,0,0,0,0-3.64Z" transform="translate(12008.188 3030.493)" fill="#e6e6e6"/>
      <circle id="Ellipse_95" data-name="Ellipse 95" cx="6.875" cy="6.875" r="6.875" transform="translate(12743.504 3618.853)" fill="#4753a7"/>
      <path id="Path_295" data-name="Path 295" d="M910.57,593.616a1.82,1.82,0,0,0,0,3.64h25.477a1.82,1.82,0,0,0,0-3.64Z" transform="translate(11917.655 3030.493)" fill="#e6e6e6"/>
      <circle id="Ellipse_96" data-name="Ellipse 96" cx="6.875" cy="6.875" r="6.875" transform="translate(12804.973 3618.853)" fill="#4753a7"/>
      <path id="Path_78" data-name="Path 78" d="M826.859,324.8H731.892c-1.851,0-3.352-1.069-3.354-2.386V301.77c0-1.317,1.5-2.386,3.354-2.386h94.968c1.851,0,3.352,1.069,3.354,2.386V322.41C830.211,323.728,828.711,324.8,826.859,324.8Zm-94.968-24.46c-1.111,0-2.011.641-2.012,1.432V322.41c0,.79.9,1.431,2.012,1.432h94.968c1.111,0,2.011-.641,2.012-1.432V301.77c0-.79-.9-1.431-2.012-1.432Z" transform="translate(12024.99 3205.739)" fill="#e6e6e6"/>
      <path id="Path_296" data-name="Path 296" d="M786.951,328.391a2.024,2.024,0,0,0-2.022,2.022v14.154a2.024,2.024,0,0,0,2.022,2.022h72.387a2.024,2.024,0,0,0,2.022-2.022V330.413a2.024,2.024,0,0,0-2.022-2.022Z" transform="translate(11991.403 3188.463)" fill="#4753a7"/>
      <circle id="Ellipse_97" data-name="Ellipse 97" cx="4.448" cy="4.448" r="4.448" transform="translate(12784.016 3521.706)" fill="#fff"/>
      <path id="Path_297" data-name="Path 297" d="M862.381,346.616a1.82,1.82,0,1,0,0,3.64h25.477a1.82,1.82,0,0,0,0-3.64Z" transform="translate(11946.357 3177.608)" fill="#fff"/>
      <path id="Path_78-2" data-name="Path 78" d="M650.859,205.8H555.892c-1.851,0-3.352-1.069-3.354-2.386V182.77c0-1.317,1.5-2.386,3.354-2.386h94.968c1.851,0,3.352,1.069,3.354,2.386V203.41C654.211,204.728,652.711,205.8,650.859,205.8Zm-94.968-24.46c-1.111,0-2.011.641-2.012,1.432V203.41c0,.79.9,1.431,2.012,1.432h94.968c1.111,0,2.011-.641,2.012-1.432V182.77c0-.79-.9-1.431-2.012-1.432Z" transform="translate(12129.817 3276.616)" fill="#e6e6e6"/>
      <path id="Path_298" data-name="Path 298" d="M610.951,209.391a2.024,2.024,0,0,0-2.022,2.022v14.154a2.024,2.024,0,0,0,2.022,2.022h72.387a2.024,2.024,0,0,0,2.022-2.022V211.413a2.024,2.024,0,0,0-2.022-2.022Z" transform="translate(12096.23 3259.339)" fill="#4753a7"/>
      <circle id="Ellipse_98" data-name="Ellipse 98" cx="4.448" cy="4.448" r="4.448" transform="translate(12712.843 3473.583)" fill="#fff"/>
      <path id="Path_299" data-name="Path 299" d="M686.381,227.616a1.82,1.82,0,1,0,0,3.64h25.477a1.82,1.82,0,0,0,0-3.64Z" transform="translate(12051.183 3248.484)" fill="#fff"/>
    </g>
  </g>
</svg>
