<svg xmlns="http://www.w3.org/2000/svg" width="501" height="372" viewBox="0 0 501 372">
  <g id="Group_323" data-name="Group 323" transform="translate(-1194 -236)">
    <g id="Group_51" data-name="Group 51" transform="translate(-6191 -3868)">
      <rect id="Rectangle_326" data-name="Rectangle 326" width="501" height="344" rx="10" transform="translate(7385 4132)" fill="#fff"/>
      <g id="Group_50" data-name="Group 50" transform="translate(491.531 6)">
        <path id="Path_74" data-name="Path 74" d="M699.7,197.268h-487a7.008,7.008,0,0,0-7,7v330a7.008,7.008,0,0,0,7,7h487a7.008,7.008,0,0,0,7-7v-330a7.008,7.008,0,0,0-7-7Zm5,337a5,5,0,0,1-5,5h-487a5,5,0,0,1-5-5v-330a5,5,0,0,1,5-5h487a5,5,0,0,1,5,5Z" transform="translate(6687.772 3928.732)" opacity="0.41"/>
        <rect id="Rectangle_325" data-name="Rectangle 325" width="499" height="2" transform="translate(6894.469 4154.04)" opacity="0.3"/>
        <circle id="Ellipse_35" data-name="Ellipse 35" cx="6" cy="6" r="6" transform="translate(6905.469 4135)" opacity="0.3"/>
        <circle id="Ellipse_36" data-name="Ellipse 36" cx="6" cy="6" r="6" transform="translate(6922.719 4135)" opacity="0.3"/>
        <circle id="Ellipse_37" data-name="Ellipse 37" cx="6" cy="6" r="6" transform="translate(6939.969 4135)" opacity="0.3"/>
        <path id="Path_75" data-name="Path 75" d="M609.524,293.732h-310a15.5,15.5,0,1,1,0-31h310a15.5,15.5,0,0,1,0,31Zm-310-29a13.5,13.5,0,1,0,0,27h310a13.5,13.5,0,0,0,0-27Z" transform="translate(6687.772 3928.732)" opacity="0.197"/>
        <path id="Path_79" data-name="Path 79" d="M388.524,285.232h-84a7,7,0,1,1,0-14h84a7,7,0,0,1,0,14Z" transform="translate(6687.772 3928.732)" fill="#6470c2"/>
        <path id="Path_80" data-name="Path 80" d="M599.024,281.732a7,7,0,1,1,7-7A7,7,0,0,1,599.024,281.732Zm0-12a5,5,0,1,0,5,5,5,5,0,0,0-5-5Z" transform="translate(6687.772 3928.732)" opacity="0.45"/>
        <path id="Path_81" data-name="Path 81" d="M609.852,288.065a1,1,0,0,1-.707-.293l-7.026-7.026a1,1,0,0,1,1.414-1.414l7.026,7.026a1,1,0,0,1-.707,1.707Z" transform="translate(6687.772 3928.732)" opacity="0.45"/>
      </g>
    </g>
    <path id="Rectangle_327" data-name="Rectangle 327" d="M14,0H437a14,14,0,0,1,14,14v0a0,0,0,0,1,0,0H0a0,0,0,0,1,0,0v0A14,14,0,0,1,14,0Z" transform="translate(1218 250)" fill="#e4e4e4" opacity="0.322"/>
    <path id="Rectangle_328" data-name="Rectangle 328" d="M14,0H343a14,14,0,0,1,14,14v0a0,0,0,0,1,0,0H0a0,0,0,0,1,0,0v0A14,14,0,0,1,14,0Z" transform="translate(1266 236)" fill="#e4e4e4" opacity="0.128"/>
    <g id="Group_63" data-name="Group 63" transform="translate(-7547.221 -4244)">
      <g id="Group_43" data-name="Group 43" transform="translate(8823 4649)">
        <rect id="Rectangle_113" data-name="Rectangle 113" width="50.037" height="0.953" transform="translate(217.304 19.538)" fill="#ccc"/>
        <rect id="Rectangle_114" data-name="Rectangle 114" width="158.689" height="0.953" transform="translate(19.538 19.538)" fill="#ccc"/>
        <circle id="Ellipse_115" data-name="Ellipse 115" cx="19.538" cy="19.538" r="19.538" transform="translate(0 0.476)" fill="#4753a7"/>
        <circle id="Ellipse_116" data-name="Ellipse 116" cx="19.538" cy="19.538" r="19.538" transform="translate(89.113 0.476)" fill="#4753a7"/>
        <path id="Path_748" data-name="Path 748" d="M855.157,223.658a20.015,20.015,0,1,1,20.015-20.015A20.015,20.015,0,0,1,855.157,223.658Zm0-39.077a19.062,19.062,0,1,0,19.062,19.062A19.062,19.062,0,0,0,855.157,184.581Z" transform="translate(-657.394 -183.628)" fill="#ccc"/>
        <path id="Path_749" data-name="Path 749" d="M1042.157,223.658a20.015,20.015,0,1,1,20.015-20.015A20.015,20.015,0,0,1,1042.157,223.658Zm0-39.077a19.062,19.062,0,1,0,19.062,19.062A19.062,19.062,0,0,0,1042.157,184.581Z" transform="translate(-755.281 -183.628)" fill="#ccc"/>
        <path id="Path_395" data-name="Path 395" d="M299.638,226.6a1.582,1.582,0,0,1-.952-.317l-.017-.013-3.586-2.743A1.594,1.594,0,1,1,297.023,221l2.323,1.781,5.488-7.161a1.593,1.593,0,0,1,2.233-.3h0l-.034.047.035-.047a1.6,1.6,0,0,1,.294,2.234l-6.456,8.418a1.594,1.594,0,0,1-1.269.621Z" transform="translate(-281.604 -200.764)" fill="#fff"/>
      </g>
      <g id="Group_46" data-name="Group 46" transform="translate(8987.36 4725.445)">
        <path id="Path_138" data-name="Path 138" d="M759.663,580.451h-166.9a3.094,3.094,0,0,1-3.091-3.091v-41.4a3.094,3.094,0,0,1,3.091-3.091h166.9a3.094,3.094,0,0,1,3.091,3.091v41.4a3.094,3.094,0,0,1-3.091,3.091Zm-166.9-46.346a1.857,1.857,0,0,0-1.855,1.855v41.4a1.856,1.856,0,0,0,1.855,1.855h166.9a1.856,1.856,0,0,0,1.855-1.855v-41.4a1.856,1.856,0,0,0-1.855-1.855Z" transform="translate(-589.673 -532.869)" fill="#e6e6e6"/>
        <path id="Path_139" data-name="Path 139" d="M688.5,556.72a2.1,2.1,0,1,0,0,4.2h98.921a2.1,2.1,0,1,0,0-4.2Z" transform="translate(-630.397 -542.911)" fill="#e6e6e6"/>
        <path id="Path_140" data-name="Path 140" d="M688.5,578.466a2.1,2.1,0,1,0,0,4.2h42.566a2.1,2.1,0,0,0,0-4.2Z" transform="translate(-630.397 -552.067)" fill="#e6e6e6"/>
        <g id="Group_45" data-name="Group 45" transform="translate(16.552 9.517)">
          <circle id="Ellipse_18" data-name="Ellipse 18" cx="12.59" cy="12.59" r="12.59" fill="#e6e6e6"/>
          <path id="Path_395-2" data-name="Path 395" d="M300.84,229.3a1.95,1.95,0,0,1-1.173-.39l-.021-.016-4.419-3.38a1.965,1.965,0,0,1,2.39-3.119l2.862,2.195,6.763-8.824a1.963,1.963,0,0,1,2.752-.364h0l-.042.058L310,215.4a1.965,1.965,0,0,1,.363,2.752l-7.955,10.38a1.964,1.964,0,0,1-1.562.766Z" transform="translate(-290.228 -209.71)" fill="#4753a7"/>
        </g>
      </g>
    </g>
  </g>
</svg>
