<svg xmlns="http://www.w3.org/2000/svg" width="501" height="372" viewBox="0 0 501 372">
  <g id="Group_327" data-name="Group 327" transform="translate(-1194 -236)">
    <g id="Group_51" data-name="Group 51" transform="translate(-6191 -3868)">
      <rect id="Rectangle_326" data-name="Rectangle 326" width="501" height="344" rx="10" transform="translate(7385 4132)" fill="#fff"/>
      <g id="Group_50" data-name="Group 50" transform="translate(491.531 6)">
        <path id="Path_74" data-name="Path 74" d="M699.7,197.268h-487a7.008,7.008,0,0,0-7,7v330a7.008,7.008,0,0,0,7,7h487a7.008,7.008,0,0,0,7-7v-330a7.008,7.008,0,0,0-7-7Zm5,337a5,5,0,0,1-5,5h-487a5,5,0,0,1-5-5v-330a5,5,0,0,1,5-5h487a5,5,0,0,1,5,5Z" transform="translate(6687.772 3928.732)" opacity="0.41"/>
        <rect id="Rectangle_325" data-name="Rectangle 325" width="499" height="2" transform="translate(6894.469 4154.04)" opacity="0.3"/>
        <circle id="Ellipse_35" data-name="Ellipse 35" cx="6" cy="6" r="6" transform="translate(6905.469 4135)" opacity="0.3"/>
        <circle id="Ellipse_36" data-name="Ellipse 36" cx="6" cy="6" r="6" transform="translate(6922.719 4135)" opacity="0.3"/>
        <circle id="Ellipse_37" data-name="Ellipse 37" cx="6" cy="6" r="6" transform="translate(6939.969 4135)" opacity="0.3"/>
        <path id="Path_75" data-name="Path 75" d="M609.524,293.732h-310a15.5,15.5,0,1,1,0-31h310a15.5,15.5,0,0,1,0,31Zm-310-29a13.5,13.5,0,1,0,0,27h310a13.5,13.5,0,0,0,0-27Z" transform="translate(6687.772 3928.732)" opacity="0.197"/>
        <path id="Path_79" data-name="Path 79" d="M388.524,285.232h-84a7,7,0,1,1,0-14h84a7,7,0,0,1,0,14Z" transform="translate(6687.772 3928.732)" fill="#6470c2"/>
        <path id="Path_80" data-name="Path 80" d="M599.024,281.732a7,7,0,1,1,7-7A7,7,0,0,1,599.024,281.732Zm0-12a5,5,0,1,0,5,5,5,5,0,0,0-5-5Z" transform="translate(6687.772 3928.732)" opacity="0.45"/>
        <path id="Path_81" data-name="Path 81" d="M609.852,288.065a1,1,0,0,1-.707-.293l-7.026-7.026a1,1,0,0,1,1.414-1.414l7.026,7.026a1,1,0,0,1-.707,1.707Z" transform="translate(6687.772 3928.732)" opacity="0.45"/>
      </g>
    </g>
    <path id="Rectangle_327" data-name="Rectangle 327" d="M14,0H437a14,14,0,0,1,14,14v0a0,0,0,0,1,0,0H0a0,0,0,0,1,0,0v0A14,14,0,0,1,14,0Z" transform="translate(1218 250)" fill="#e4e4e4" opacity="0.322"/>
    <path id="Rectangle_328" data-name="Rectangle 328" d="M14,0H343a14,14,0,0,1,14,14v0a0,0,0,0,1,0,0H0a0,0,0,0,1,0,0v0A14,14,0,0,1,14,0Z" transform="translate(1266 236)" fill="#e4e4e4" opacity="0.128"/>
    <g id="undraw_connected_world_wuay" transform="translate(1302 376)">
      <path id="Path_300" data-name="Path 300" d="M255.64,60.822C225.586,19,162.1,2.038,99.664,20.308,66.655,29.968,34.829,49.321,19.057,86.8c-28.195,66.991,31,88.386,69.713,95.2a209.336,209.336,0,0,1,52.456,16.377c28.982,13.567,80.283,25.588,118.967-30.923C288.23,126.495,275.658,88.679,255.64,60.822Z" transform="translate(-11.697 -13.011)" fill="#f2f2f2" opacity="0.49"/>
      <path id="Path_301" data-name="Path 301" d="M134.171,243.465a7.739,7.739,0,0,0-.506-1.936.877.877,0,0,0-.446-.549.918.918,0,0,0-.442,0l-2.27.347a.87.87,0,0,0-.518.2c-.3.311,0,.812-.014,1.241a1.166,1.166,0,0,1-.9,1,3.415,3.415,0,0,1-1.436-.018l-3.174-.493a5.234,5.234,0,0,0,2.4-1.6c.418-.495.64-1.419.036-1.653a1.482,1.482,0,0,0-.551-.044c-1.438.011-2.57-1.19-3.916-1.7a4.33,4.33,0,0,0-4.873,1.453l1.691.082a.751.751,0,0,1,.45.12c.371.3-.09.889-.038,1.366.068.619.89.752,1.51.814s1.406.566,1.108,1.114c-3.116,1.073-6.287-2.1-9.56-1.708a19.416,19.416,0,0,0-2.419.629c-4.94,1.25-10.047-2.085-15.093-1.379a19.167,19.167,0,0,0-3.295.869,4.442,4.442,0,0,0-1.9.992,1.525,1.525,0,0,0-.216,1.964,11.056,11.056,0,0,1-3.874-.368,2.171,2.171,0,0,1,1.116,1.913,22.989,22.989,0,0,0-5.889,1.8,9.918,9.918,0,0,0,1.219,1.624L79.792,251.2a1.47,1.47,0,0,1,.814,2.147c.9-.4,1.462-1.44,2.426-1.65a3.27,3.27,0,0,1,1.875.364,2.929,2.929,0,0,0,1.88.3c.621-.182,1.079-.987.684-1.5a32.118,32.118,0,0,1,8.159-1.275,1.023,1.023,0,0,1,.618.117c.36.25.265.789.246,1.226s.321,1.012.712.815c-.46.4-.067,1.149.374,1.569s.973,1,.7,1.543c-.07.142-.19.256-.258.4-.2.424.118.918.493,1.2a4.2,4.2,0,0,1,1.095.868c.26.39.142,1.072-.324,1.127l-1.324-1.681a3.446,3.446,0,0,0-.894,1.695,3.556,3.556,0,0,1,.44,4.864,12.153,12.153,0,0,1-2.2,1.685,3.023,3.023,0,0,0-1.433,2.261,11.744,11.744,0,0,0,.472,4.572,70.428,70.428,0,0,0,3.824,7.977c.378.677.867,1.418,1.633,1.535q-1.453-3.536-2.615-7.183a1.647,1.647,0,0,1,1.384.451,2.87,2.87,0,0,1,.269,1.21,3.748,3.748,0,0,0,.478,1.124l4.625,8.238a3.409,3.409,0,0,0,1.556,1.692,8.8,8.8,0,0,1,1.442.4c.338.2.566.554.91.742.974.531,2.329-.488,3.239.147a9.111,9.111,0,0,1,.666.677c.841.728,2.22.241,3.191.784a3.771,3.771,0,0,1,1.283,1.685c.836,1.589,2.188,3.146,3.979,3.273a11.1,11.1,0,0,1,1.687.058c.55.125,1.091.605,1,1.162-.151.955.321,2,.194,2.96-.231,1.746-2.708,2.514-2.921,4.262a9.889,9.889,0,0,1-.065,1.153c-.112.459-.457.833-.579,1.29a2.45,2.45,0,0,0,1.068,2.308,6.232,6.232,0,0,1,1.865,1.9,9.789,9.789,0,0,1,.328,2.8c.279,2.048,2.048,3.566,3.869,4.545a4.042,4.042,0,0,1,1.509,1.1,6.006,6.006,0,0,1,.578,2.373c.383,1.976,2.047,3.6,2.094,5.617.034,1.43-.762,2.728-1.237,4.078a9.51,9.51,0,0,0,.777,7.887,12.632,12.632,0,0,1,1.032,1.816c.449,1.161.3,2.48.717,3.654.547,1.552,2.049,2.833,1.905,4.472a5.438,5.438,0,0,0,3.7,2.534l2.714.756a3.488,3.488,0,0,0,1.592.186,1.2,1.2,0,0,0,1.021-1.084,9.918,9.918,0,0,1-3.8-1.431,3.383,3.383,0,0,1-1.433-3.555c.193-.6.6-1.3.213-1.8-.224-.285-.632-.36-.885-.62a1.353,1.353,0,0,1,.025-1.576,5.323,5.323,0,0,0,.806-1.48,1.544,1.544,0,0,0-.724-1.606,3.838,3.838,0,0,0,1.344-.862,1.31,1.31,0,0,0,.239-1.484,2.589,2.589,0,0,0,2.342-.475,2.1,2.1,0,0,0,.232-1.9,8.114,8.114,0,0,1-.469-1.93,35.169,35.169,0,0,0,5.706-.193,3.7,3.7,0,0,0-1.735-2.173,3.012,3.012,0,0,0,1.91-2,5.141,5.141,0,0,0,.034-2.58,1.384,1.384,0,0,1-.026-.676,1.317,1.317,0,0,1,.679-.656l4.257-2.445a2.48,2.48,0,0,0,.681-.5,2.022,2.022,0,0,0,.152-1.964,9.864,9.864,0,0,1-.682-1.942c-.263-2.041,1.921-3.5,2.659-5.426a8.176,8.176,0,0,0,.4-2.379,2.825,2.825,0,0,0-.6-2.428c-.637-.534-1.632-.415-2.3-.912-.611-.456-.822-1.341-1.489-1.709-.606-.334-1.366-.122-2.04-.279-1.187-.277-1.934-1.645-3.146-1.771-.684-.071-1.458.263-2.018-.135-.494-.351-.514-1.056-.608-1.655a4.621,4.621,0,0,0-3.73-3.742,5.219,5.219,0,0,1-2.072-.458c-.607-.392-.886-1.127-1.363-1.67a5.7,5.7,0,0,0-3.115-1.454l-4.615-1.085c-.819-.193-1.875-.295-2.315.423a3.317,3.317,0,0,0-.274.861,2.667,2.667,0,0,1-2.508,1.888,2.966,2.966,0,0,0-1.749-1.353,10.9,10.9,0,0,1-1.415-.337,1.988,1.988,0,0,1-.862-2.757,2.474,2.474,0,0,0-.423-2.976,4.016,4.016,0,0,0-2.972-.8c-.276-.6.185-1.28.682-1.717s1.1-.867,1.208-1.519c.17-1.027-1.14-1.806-2.134-1.5a3.7,3.7,0,0,0-2.049,2.224,6.549,6.549,0,0,1-.825,1.582,1.621,1.621,0,0,1-1.57.643c-.819-.209-1.135-1.182-1.316-2.008a13.057,13.057,0,0,1-.437-3.363,4.4,4.4,0,0,1,1.268-3.063c1.361-1.25,3.45-1.127,5.287-.928a1.343,1.343,0,0,1,.138-1.773,2.016,2.016,0,0,1,1.828-.449,2.518,2.518,0,0,1,1.416.847,13.3,13.3,0,0,1,1.065,2.218c.395.722,1.282,1.339,2.008.951a1.692,1.692,0,0,0,.571-1.9,7.138,7.138,0,0,1-.431-2.077c.108-1.352,1.51-2.167,2.747-2.724s2.654-1.306,2.85-2.649a2.415,2.415,0,0,1,.147-.77,1.51,1.51,0,0,1,.554-.521c3.611-2.386,7.281-4.8,11.408-6.105.215-.068.24.008.459-.046.306-.177.1-.667-.19-.864s-.686-.349-.761-.694c-.055-.254.1-.5.134-.761a.95.95,0,0,0-1.247-.962c-.331-.439.324-.949.855-1.1a23.216,23.216,0,0,1,4.877-.8.879.879,0,0,1,.555.094.664.664,0,0,1,.045.906,5.332,5.332,0,0,1-.746.678,2.037,2.037,0,0,0-.528,2.049,4.644,4.644,0,0,0,2.751.735c.954-.154,1.8-1.226,1.352-2.082-.417-.8-1.671-.977-1.887-1.85-.252-1.023,1.2-1.932.869-2.934-.143-.439-.58-.7-.916-1.014a2.75,2.75,0,0,1-.6-3.05,3.47,3.47,0,0,1-3.043-.952c-.728-.735-1.309-1.893-2.342-1.861-.949.03-1.766,1.137-2.652.8-.218-.083-.448-.252-.66-.153a.545.545,0,0,0-.246.408c-.225,1.078.162,2.305-.425,3.237-.639,1.013-2.117,1.154-2.892,2.068-.421.5-.584,1.164-.97,1.687s-1.207.855-1.671.4a2.3,2.3,0,0,0-.626-2.8,6.144,6.144,0,0,0-1.382-.672,8.2,8.2,0,0,1-1.544-.861,1.521,1.521,0,0,1-.567-.606,1.382,1.382,0,0,1,.039-.959,3.922,3.922,0,0,1,3.121-2.587c.618-.084,1.337-.054,1.745-.525.216-.249.33-.626.644-.727a.949.949,0,0,1,.594.073l2.306.812a1.618,1.618,0,0,0,.821.136.557.557,0,0,0,.482-.585c-.074-.383-.663-.567-.609-.953a.636.636,0,0,1,.193-.324,8.243,8.243,0,0,1,6.538-2.582c.291.478-.169,1.044-.552,1.452s-.691,1.137-.228,1.451a1.27,1.27,0,0,0,.614.138,5.36,5.36,0,0,1,1.634.5q1.2.52,2.344,1.138a2.972,2.972,0,0,1,.059-1.51,1.022,1.022,0,0,1,1.211-.659c.458.177.693.784,1.181.839.651.074.908-.888.636-1.484s-.81-1.1-.855-1.749c-.03-.441.137-.988-.215-1.255a.959.959,0,0,0-.416-.146l-8.8-1.619c-.522-.1-1.277-.022-1.3.508-.013.3.252.589.134.861-.125.291-.536.264-.835.367a1.141,1.141,0,0,0-.653,1.2,3.338,3.338,0,0,0,.551,1.352C135.61,243.748,134.743,243.7,134.171,243.465Z" transform="translate(-64.467 -187.38)" fill="#3f3d56"/>
      <path id="Path_302" data-name="Path 302" d="M278.8,228.554a2.848,2.848,0,0,0-3.129.937.627.627,0,0,0-.145.66c.174.3.617.179.943.073a2.374,2.374,0,0,1,1.49-.036c.307.105.581.291.889.393a.9.9,0,0,0,.913-.133,1.188,1.188,0,0,0,.225-.853.685.685,0,0,0-.175-.564.9.9,0,0,0-.4-.12,1.392,1.392,0,0,1-.815-.476" transform="translate(-216.113 -179.935)" fill="#3f3d56"/>
      <path id="Path_303" data-name="Path 303" d="M301.706,225.123a.725.725,0,0,0-.7,1.02,2.937,2.937,0,0,0,1.171.076,1,1,0,0,0,.818-.75,1.884,1.884,0,0,1-1.334-.255" transform="translate(-235.848 -177.387)" fill="#3f3d56"/>
      <path id="Path_304" data-name="Path 304" d="M341.28,215.268a13.469,13.469,0,0,0-3,1.02,2.256,2.256,0,0,1,1.441,2.266,1.18,1.18,0,0,0,.014.56c.11.267.43.368.711.436a4.686,4.686,0,0,0,1.559.2,1.588,1.588,0,0,0,1.29-.789,5.615,5.615,0,0,1,.268-.634c.673-1.026,2.674.214,3.4-.777.255-.349.231-.875.563-1.151a1.266,1.266,0,0,1,.579-.221,40.668,40.668,0,0,1,4.4-.627c.7-.061,1.612-.312,1.618-1.014a12.186,12.186,0,0,0-7.773,1.046c-.867.434-2.013,1.347-2.847.772-.313-.215-.3-.8-.727-1.038A2.193,2.193,0,0,0,341.28,215.268Z" transform="translate(-264.782 -169.006)" fill="#3f3d56"/>
      <path id="Path_305" data-name="Path 305" d="M388.414,216.425l1.237.238a1.6,1.6,0,0,0-1.668,1.737c1.159.387,2.422.01,3.642.062s2.64.923,2.432,2.127c-.063.364-.273.728-.164,1.08a4.018,4.018,0,0,0,.418.65,1.457,1.457,0,0,1-.272,1.506c-.324.431-.759.776-1.044,1.234-.707,1.14-.305,2.614.116,3.888a3.428,3.428,0,0,0,.659,1.316,3.468,3.468,0,0,0,2.552.734,2.254,2.254,0,0,0,1.841-.537c.547-.671.165-1.717.525-2.5a2.79,2.79,0,0,1,1.916-1.239,28.675,28.675,0,0,0,4.1-1.339c1.625-.747,3.143-1.912,4.928-2.008a6.765,6.765,0,0,0,1.5-.105,1.138,1.138,0,0,0,.9-1.055c-.031-.428-.393-.741-.676-1.064s-.5-.818-.245-1.159l4.68-.874c-.332-.9-.59-2.095.172-2.683.275-.212.643-.3.878-.554a1.135,1.135,0,0,0-.262-1.563,3.006,3.006,0,0,0-1.674-.507,44.914,44.914,0,0,0-6.172.055l-12.058.661a8.81,8.81,0,0,0-2.485.253,11.468,11.468,0,0,1-1.793.813C391.074,215.869,389.614,215.681,388.414,216.425Z" transform="translate(-303.297 -168.552)" fill="#3f3d56"/>
      <path id="Path_306" data-name="Path 306" d="M486.665,266.078a.5.5,0,0,0-.36.082.455.455,0,0,0-.117.278,1.834,1.834,0,0,0,.266,1.313,1.285,1.285,0,0,0,1.177.564c.557-.071.968-.546,1.48-.778.789-.357,4.141-.914,1.823-2.167-.8-.432-1.315-.051-1.945.234A4.427,4.427,0,0,1,486.665,266.078Z" transform="translate(-379.384 -208.426)" fill="#3f3d56"/>
      <path id="Path_307" data-name="Path 307" d="M576.21,219.859a1.324,1.324,0,0,0-.644.561.566.566,0,0,0,.212.751.845.845,0,0,0,.316.05l1.1.033c.468.014,1.052.114,1.178.564.093.335-.116.765.136,1a.71.71,0,0,0,.375.146,2.552,2.552,0,0,0,1.109.036c.8-.215.38-.7.632-1.139.386-.666.319-.263,1-.645.5-.282,1.151-.793.732-1.512C581.628,218.458,577.286,219.322,576.21,219.859Z" transform="translate(-448.619 -172.693)" fill="#3f3d56"/>
      <path id="Path_308" data-name="Path 308" d="M658.273,219.383l-.639.085a25.751,25.751,0,0,0-4.28.819,7.122,7.122,0,0,0,1.874.46,5.756,5.756,0,0,1,1.05.149c.613.183,1.231.654,1.824.413.367-.15.487-.532.792-.735.21-.14,1.007-.367,1.1-.508C660.71,218.925,658.826,219.309,658.273,219.383Z" transform="translate(-508.951 -172.846)" fill="#3f3d56"/>
      <path id="Path_309" data-name="Path 309" d="M677.559,230.671A11.989,11.989,0,0,0,675.2,232.4a1.428,1.428,0,0,0-.58,1.045c.036.547.619.864,1.123,1.077l2.044.865c.248-.349.021-.832-.235-1.175s-.561-.741-.448-1.154c.129-.472.7-.632,1.186-.714.786-.132,2.9-.122,2.65-1.388C680.641,229.464,678.348,230.23,677.559,230.671Z" transform="translate(-525.43 -181.228)" fill="#3f3d56"/>
      <path id="Path_310" data-name="Path 310" d="M685.38,578.414a1.95,1.95,0,0,0,.124,1.719,1.741,1.741,0,0,0,1.787.618,3.22,3.22,0,0,0,1.659-1.067,5.715,5.715,0,0,0,.954-1.464,11.425,11.425,0,0,0,.707-2.589l.635-3.332c.142-.745.136-3.027-1.232-2.284a19.506,19.506,0,0,0-1.631,2.262,7.316,7.316,0,0,0-1.171,2.609C686.746,576.131,685.81,577.168,685.38,578.414Z" transform="translate(-533.662 -444.55)" fill="#3f3d56"/>
      <path id="Path_311" data-name="Path 311" d="M1000.294,681.465a9.969,9.969,0,0,1-1.3-.619,10.962,10.962,0,0,0-.659,3.593l3.064-1.734c.461-.261.983-.623.974-1.153a.365.365,0,0,0-.169-.332.412.412,0,0,0-.215-.025,5.184,5.184,0,0,0-1.3.417,1.583,1.583,0,0,1-1.323.007" transform="translate(-776.295 -530.553)" fill="#3f3d56"/>
      <path id="Path_312" data-name="Path 312" d="M1061.776,684.483a6.632,6.632,0,0,0-.983.353,14.033,14.033,0,0,0-1.814,1.509,7.2,7.2,0,0,1-2.05.939.491.491,0,0,0,.115.724,1.422,1.422,0,0,0,.809.182,4.275,4.275,0,0,0,2.178-.336,6.857,6.857,0,0,0,1.025-.814,10.86,10.86,0,0,1,2.581-1.459,2.963,2.963,0,0,0,.9-.538c.569-.56.609-1.425-.211-1.615C1063.663,683.273,1062.407,684.279,1061.776,684.483Z" transform="translate(-821.613 -532.54)" fill="#3f3d56"/>
      <path id="Path_313" data-name="Path 313" d="M1101.275,660.229a2.556,2.556,0,0,0-.782-2.094,3.986,3.986,0,0,1-.466,2.231c-.309.455-.794.762-1.132,1.194a1.163,1.163,0,0,0-.092,1.5,1.489,1.489,0,0,0,.882.3,2.66,2.66,0,0,0,2.261-.426c.3-.312.45-.774.819-1a1,1,0,0,0,.359-.257c.152-.242-.09-.562-.362-.649s-.573-.046-.847-.129-.526-.391-.385-.64" transform="translate(-853.97 -512.952)" fill="#3f3d56"/>
      <path id="Path_314" data-name="Path 314" d="M1011.5,532.607a3.554,3.554,0,0,1-1.268.075,4.593,4.593,0,0,1-1.82-1.1,8.03,8.03,0,0,0-4.691-1.639c-1.544-.029-3.1.389-4.62.1a1.822,1.822,0,0,0,1.074,1.21c.5.246,1.059.369,1.564.61a3.735,3.735,0,0,1,1.809,1.882,5.313,5.313,0,0,0,.512,1.126,2.6,2.6,0,0,0,2.3.772,7.481,7.481,0,0,1,3.271.021,8.4,8.4,0,0,1,2,1.531,2.245,2.245,0,0,0,2.325.544,3.843,3.843,0,0,1-2.659-3.7c.736.068,2.856.042,2.742-1.209C1013.942,531.775,1012.133,532.493,1011.5,532.607Z" transform="translate(-776.889 -413.612)" fill="#3f3d56"/>
      <path id="Path_315" data-name="Path 315" d="M935.725,567.6c.131-.717.845-1.35.623-2.043a1.258,1.258,0,0,0-1.214-.728c-.5-.012-1,.138-1.5.152a7.307,7.307,0,0,0-.984.014c-1,.164-1.616,1.212-2.558,1.585a15.529,15.529,0,0,1-1.812.34c-1.352.356-2.208,1.634-3.154,2.664a11.256,11.256,0,0,1-5.713,3.331,5.217,5.217,0,0,0-2.207.791,4.464,4.464,0,0,0-1.189,2.825,46.662,46.662,0,0,1-2.271,8.338l3.211.41a4.365,4.365,0,0,0,1.832-.027,5.318,5.318,0,0,0,1.2-.642,12.027,12.027,0,0,1,4.7-1.7,4.989,4.989,0,0,1,2.512.176,2.336,2.336,0,0,1,1.532,1.868,1.973,1.973,0,0,1,1.972.479,3.428,3.428,0,0,1,.941,1.879c.085.439.169.966.577,1.15.333.15.714-.012,1.078-.041,1.235-.1,2.259,1.341,3.473,1.093,1.3-.266,1.621-2.215,2.891-2.606.729-.224,1.752.048,2.1-.63.308-.6-.306-1.288-.243-1.957.078-.824,1.05-1.174,1.8-1.526a5.614,5.614,0,0,0,2.559-7.257c-.742-1.52-2.2-2.716-2.472-4.386-.208-1.285.3-2.783-.52-3.794-.417-.514-1.122-.8-1.37-1.412a6.967,6.967,0,0,1-.177-1.233c-.084-.408-.44-.835-.843-.729-1.17.307-1.543,3.921-2.17,4.8A1.453,1.453,0,0,1,935.725,567.6Z" transform="translate(-710.742 -439.98)" fill="#3f3d56"/>
      <path id="Path_316" data-name="Path 316" d="M909.6,547.347a1.884,1.884,0,0,0-1.219-.062c-.383.16-.607.723-.3,1a41.285,41.285,0,0,1,7.21.14c2.748.376,5.467,1.309,8.227,1.034a41.865,41.865,0,0,0-4.8-1.114l-2.7-.516a20.91,20.91,0,0,0-2.194-.339C912.278,547.364,911.111,547.772,909.6,547.347Z" transform="translate(-706.238 -426.986)" fill="#3f3d56"/>
      <path id="Path_317" data-name="Path 317" d="M918.089,500.628c-.2-.017-.447-.031-.55.141s.014.381-.039.565c-.073.251-.4.316-.661.281a1.266,1.266,0,0,0-.769.009.652.652,0,0,0-.252.741,1.907,1.907,0,0,0,.445.709,7.244,7.244,0,0,0,1.154,1.158c.827.61,1.947.9,2.467,1.79a1.188,1.188,0,0,0,.33.444.916.916,0,0,0,.845-.085l.943-.431a1.071,1.071,0,0,0,.441-.3.969.969,0,0,0-.1-1.023,1.758,1.758,0,0,1-.374-1c.069-.644.9-.89,1.238-1.441s.12-1.271.159-1.923c.046-.762.525-1.754-.245-2.323-.655-.484-1.281-.037-1.751.5C920.38,499.56,919.912,500.781,918.089,500.628Z" transform="translate(-712.324 -388.645)" fill="#3f3d56"/>
      <path id="Path_318" data-name="Path 318" d="M950.869,452.368c.322.617.994.985,1.345,1.585.381.651.337,1.492.75,2.123.424.647,1.276.991,1.514,1.727.259.8-.329,1.781.14,2.483a1.042,1.042,0,0,0,1.529.141,1.122,1.122,0,0,0-.046-1.565c-.278-.253-.677-.363-.909-.659a1.383,1.383,0,0,1-.235-.573,3.752,3.752,0,0,1,.059-1.8.8.8,0,0,0,.045-.47c-.1-.3-.515-.325-.8-.466-.655-.32-.639-1.244-.525-1.964-.076.479-1.784-.336-1.962-.607-.355-.539-.162-1.58-.232-2.176A1.694,1.694,0,0,0,950.869,452.368Z" transform="translate(-739.377 -351.772)" fill="#3f3d56"/>
      <path id="Path_319" data-name="Path 319" d="M869.686,500.2c-.315-.353-.79-.722-1.212-.509a.768.768,0,0,0-.285.946,2.084,2.084,0,0,0,.688.82,24,24,0,0,1,2.6,2.226c1.375,1.511,2.1,3.549,3.6,4.941a2.018,2.018,0,0,0,1.133.613.88.88,0,0,0,.975-.673,1.283,1.283,0,0,0-.452-.944c-.581-.632-1.216-1.213-1.765-1.873a1.574,1.574,0,0,1-.451-.942c0-.355.321-.727.666-.639-.419-.107-.729-.8-1.344-.936-.514-.11-.638.208-1.249-.054C871.417,502.678,870.5,501.116,869.686,500.2Z" transform="translate(-675.396 -390.118)" fill="#3f3d56"/>
      <path id="Path_320" data-name="Path 320" d="M975.5,348.111a9.644,9.644,0,0,1-.985-.352c-.866-.26-2.011.376-1.9,1.273.077.6.631,1,.937,1.514a3.364,3.364,0,0,1,.094,2.6,2.028,2.028,0,0,1-.328.739,2.5,2.5,0,0,1-.776.558,10.377,10.377,0,0,0-3.036,2.579.744.744,0,0,0-.183.346c-.041.3.263.523.435.776.382.561.106,1.315.144,1.993a.564.564,0,0,0,.237.494c.23.117.5-.082.628-.308.414-.75.1-1.955.879-2.317.147-.068.325-.1.423-.226.156-.2.005-.508.084-.753.118-.368.621-.384,1.007-.368a5.715,5.715,0,0,0,1.963-.261,1.307,1.307,0,0,0,.65-.376,1.415,1.415,0,0,0,.165-1.071,14.514,14.514,0,0,0-1.715-5.232,3.118,3.118,0,0,0,2.014-.193c.33-.2.725-.795.562-1.2C976.546,347.679,976.078,348.218,975.5,348.111Z" transform="translate(-753.813 -272.38)" fill="#3f3d56"/>
      <path id="Path_321" data-name="Path 321" d="M511.323,377.9a2.629,2.629,0,0,1,.018,1.321.9.9,0,0,1-1.022.645c-.331-.1-.522-.433-.757-.687-1.307-1.411-4.256-.594-5.064-2.34-.33-.713-.106-1.566-.33-2.318a2.063,2.063,0,0,0-2.09-1.42,4.293,4.293,0,0,0-1.2.359,30.321,30.321,0,0,1-7.967,1.993,6.547,6.547,0,0,0-1.531.279,4.848,4.848,0,0,0-2.435,2.51,19.416,19.416,0,0,1-1.681,3.155,14.012,14.012,0,0,1-2.852,2.437,2.91,2.91,0,0,0-.941.986,3.086,3.086,0,0,0-.189,1.465l.205,6.041a5.455,5.455,0,0,0,.407,2.277,14.957,14.957,0,0,0,1.887,2.2,4.317,4.317,0,0,1,.9,2.757c-.013.4-.052.873.259,1.124a1.139,1.139,0,0,0,.637.183l8.172.669c1.438.118,3.031.311,3.969,1.406.443.517.8,1.26,1.477,1.316a5.488,5.488,0,0,0,.865-.119,2.125,2.125,0,0,1,1.787,1.113,4.938,4.938,0,0,1,.793,3.169c-.067.7-.284,1.381-.331,2.083-.178,2.671,2.086,4.991,2.13,7.668a9.561,9.561,0,0,1-1.45,4.441c1.176,1.781.213,4.154.681,6.236.444,1.976,2.092,3.523,2.5,5.506.188.908.2,2.025,1,2.493a2.278,2.278,0,0,0,1.131.226,14.907,14.907,0,0,0,6.789-1.546,3.55,3.55,0,0,0,2.189-2.316c.139-.88-.307-1.865.147-2.631.535-.9,1.907-.832,2.695-1.527,1.278-1.127.281-3.277.8-4.9.465-1.459,2.068-2.234,2.862-3.544a6.3,6.3,0,0,0,.665-1.8,25.706,25.706,0,0,0,.677-4.6,27.532,27.532,0,0,1,.208-2.816c.856-5.32,6.115-8.882,7.823-13.992.163-.488.24-1.138-.195-1.414a1.243,1.243,0,0,0-.827-.086l-3.767.475a2.594,2.594,0,0,1-1.394-.08.894.894,0,0,1-.51-1.151c.64-1.159-.676-2.623-1.261-3.811a56.237,56.237,0,0,0-5.6-9.082.923.923,0,0,1-.246-.533l1.069.036c-.361-1.295-.956-2.712-2.215-3.186a5.512,5.512,0,0,0-2.25-.133A32.88,32.88,0,0,1,511.323,377.9Z" transform="translate(-377.147 -292.058)" fill="#3f3d56"/>
      <path id="Path_322" data-name="Path 322" d="M541.858,234.551a3.651,3.651,0,0,0,2.023,1.345c1.449.185,2.491-1.313,3.154-2.614a1.277,1.277,0,0,0,1.333,1.182,2.631,2.631,0,0,0,1-.392,19.751,19.751,0,0,1,9.357-2.419,1.011,1.011,0,0,1,.772-1.111c.665-.132,1.264.443,1.585,1.041a5.73,5.73,0,0,0,1.031,1.737c.51.447,1.5.428,1.7-.22.193-.622-.454-1.152-.992-1.518s-1.105-1.045-.743-1.586a48.336,48.336,0,0,1,8.327-1.34,3.487,3.487,0,0,0,1.4-.241,1.089,1.089,0,0,0,.655-1.152,3.174,3.174,0,0,1-3.312-1.249c3.9-.322,8.053-.6,11.512,1.24.415.891-1.7,1.632-1.134,2.436a1.024,1.024,0,0,0,.856.292,42.432,42.432,0,0,0,7.2-.274,9.637,9.637,0,0,1,2.617-.212c1.452.179,2.694,1.148,4.123,1.464a2.206,2.206,0,0,0,1.724-.205,1.093,1.093,0,0,0,.3-1.548c1.345-1.318,3.578-.992,5.352-.36s3.456,1.649,5.334,1.79c1.347.1,2.712-.261,4.043-.031a25.164,25.164,0,0,1,2.432.745,18.592,18.592,0,0,0,4.786.362,33.537,33.537,0,0,1,11.951,2.375,3.553,3.553,0,0,1,1.329.785,1.3,1.3,0,0,1,.3,1.429l-3.932-.575c.37.729,1.329.854,2.107,1.105s1.585,1.111,1.118,1.782c-.843-.269-1.608.575-2.034,1.35s-.945,1.7-1.829,1.752c-.791.042-1.749-.632-2.264-.03a15.443,15.443,0,0,1,1.82,2.909c.51,1.062.873,2.4.184,3.355a.87.87,0,0,1-.465.361c-.563.142-.928-.546-1.332-.963a4.833,4.833,0,0,0-1.966-.921c-.688-.247-1.414-.732-1.468-1.461a2.919,2.919,0,0,1,.383-1.295,4.989,4.989,0,0,0,.379-2.238,2.542,2.542,0,0,0-.653-1.686,1.309,1.309,0,0,0-1.68-.173c-.221.184-.4.478-.687.489-.508.019-.9-.866-1.307-.564a1.389,1.389,0,0,1-.189.929c-1.22,1.061-3.094.612-4.667.987a8.763,8.763,0,0,0-2.129.93,1.37,1.37,0,0,0-.609.511.942.942,0,0,0,.366,1.124,2.906,2.906,0,0,0,1.207.412,11.876,11.876,0,0,1,5.376,2.157,5.278,5.278,0,0,1,2.027,5.159l-3.781-3.613q.215,2.275.244,4.563a2.051,2.051,0,0,1-.12.878c-.27.6-1,.8-1.64.927a1.285,1.285,0,0,0-.986,1.646,5.368,5.368,0,0,0,1.314,1.9,3.639,3.639,0,0,1,1.1,2c.068.772-.515,1.643-1.288,1.59a1.7,1.7,0,0,1-1.272-1.1,6.976,6.976,0,0,0-.775-1.577c-1.138-1.368-3.693-.782-4.712-2.241a2.3,2.3,0,0,0-.477,2.193,1.208,1.208,0,0,1,1.479.41,10.106,10.106,0,0,1,.8,1.469c.377.654.978,1.233,1.031,1.986a6.486,6.486,0,0,0,.014.854,3.453,3.453,0,0,0,.747,1.165,3.345,3.345,0,0,1,.19,3.113,9.6,9.6,0,0,1-1.835,2.664,32.129,32.129,0,0,1-4,4.024,4.2,4.2,0,0,0-1.134,1.141,1.238,1.238,0,0,0,.128,1.493c-.289.014-.806.156-1.1.171a25.469,25.469,0,0,1-.066-3.483c-1.139-.547-2.366.918-2.219,2.173s1.055,2.263,1.7,3.349a3.957,3.957,0,0,1,.666,2.631,1.934,1.934,0,0,1-1.891,1.67c-1.465-.128-2.077-2.23-3.527-2.471a.593.593,0,0,0-.382.038c-.215.118-.253.406-.265.651a8.084,8.084,0,0,0,.359,3.565c.687,1.624,2.463,2.987,2.091,4.711-2.007-.933-3.05-3.184-3.524-5.345s-.553-4.431-1.4-6.475c-.645.827-2,.143-2.589-.724-.559-.822-.9-1.773-1.444-2.606a3.2,3.2,0,0,0-2.365-1.625,4.227,4.227,0,0,0-2.738,1.341,6.382,6.382,0,0,0-1.7,1.9,8.571,8.571,0,0,0-.437,3.679,5.618,5.618,0,0,1-1.233,3.756,2.725,2.725,0,0,1-3.627.441,4.087,4.087,0,0,1-1.013-1.824,89.266,89.266,0,0,1-2.743-9.792c-.17.756-.834,1.731-1.469,1.286a1.317,1.317,0,0,1-.338-.436,9.774,9.774,0,0,0-5.589-3.93c-2.214-.721-4.544-1.058-6.733-1.85a17.058,17.058,0,0,1-3.493-1.74,2.747,2.747,0,0,0-.168,2.81,2.238,2.238,0,0,0,2.526,1.057c.486-.155.9-.493,1.379-.66a1.076,1.076,0,0,1,1.341.38c.2.445-.1.983.048,1.448.231.707,1.3.762,1.671,1.406a1.3,1.3,0,0,1-.347,1.5,6.283,6.283,0,0,1-1.409.868c-1.57.873-2.686,2.363-4.058,3.523s-3.308,2.006-4.943,1.262c.39-1.974-1.961-3.423-2.394-5.388-.142-.647-.069-1.334-.272-1.964a6.4,6.4,0,0,0-1.768-2.231,8.757,8.757,0,0,1-2.4-6.371,8.945,8.945,0,0,0,0-2.429,1.82,1.82,0,0,0-1.652-1.522c-1.855.082-4.191.22-5.164-1.361a1.46,1.46,0,0,1,0-1.823,1.763,1.763,0,0,1,1.342-.23l4.179.411a4.618,4.618,0,0,0,2.872-.335c.839-.511,1.2-1.867.426-2.468-.567-.439-1.584-.415-1.749-1.114-.137-.582.506-1.242.159-1.728-.249-.349-.81-.252-1.149.009a7.366,7.366,0,0,1-.966.841,2.939,2.939,0,0,1-2.181-.208c-.717-.224-1.679-.244-2.027.423-.389.745.345,1.722-.041,2.468-.511.987-2.24.425-2.957,1.274-.823.974.56,2.427.282,3.672a2.286,2.286,0,0,1-2.252-.127,2.187,2.187,0,0,1-.945-2.037c.069-.56.361-1.132.165-1.661a1.949,1.949,0,0,0-.987-.9l-4.061-2.244a1.836,1.836,0,0,0,.7,2.092,7.213,7.213,0,0,1,1.734,1.612,2.116,2.116,0,0,1-.8,2.79.489.489,0,0,1-.4.07.562.562,0,0,1-.261-.351,8.648,8.648,0,0,0-3.512-4.6c-1.72-.958-4.191-.761-5.319.853-.268.383-.448.82-.681,1.225-1.24,2.153-3.9,3.172-6.381,3.105a1.268,1.268,0,0,1-.7-.164c-.4-.277-.383-.865-.322-1.349l.261-2.053a1.632,1.632,0,0,1,.454-1.126c.46-.363,1.124-.134,1.71-.142a2.166,2.166,0,0,0,1.966-1.518,2.442,2.442,0,0,0-.68-2.428c-.268-.252-.629-.569-.487-.909a.752.752,0,0,1,.527-.355c1.052-.306,2.164-.386,3.2-.746a3.322,3.322,0,0,0,2.283-2.166c.075-.327.109-.724.4-.886a1.209,1.209,0,0,1,.466-.1A2.268,2.268,0,0,0,526.2,243.3a1.48,1.48,0,0,1,1.67.277,4.7,4.7,0,0,0,1.487,1.014c1.088.3,2.139-.667,3.267-.672a4.208,4.208,0,0,0,1.411.005c.452-.163.722-.613,1.069-.946s.956-.535,1.277-.177l-.273-2.021a3.974,3.974,0,0,0,3.234-.585L535.81,239a.766.766,0,0,1-.33-.176c-.256-.276,0-.706.207-1.02.5-.751.583-1.988-.238-2.361a2.016,2.016,0,0,0-1.74.351l-2.574,1.435c-.082.489.517.767.887,1.1a1.488,1.488,0,0,1-.97,2.6,1.854,1.854,0,0,1,.331,1.572l-1.732.125a.75.75,0,0,1-.562-.11c-.185-.165-.16-.453-.2-.7a1.512,1.512,0,0,0-1.269-1.108,4.462,4.462,0,0,0-1.773.164,1.058,1.058,0,0,1-.762-.018.761.761,0,0,1-.3-.381,1.956,1.956,0,0,1,.394-1.877,10.421,10.421,0,0,1,1.477-1.358,8.606,8.606,0,0,0,2.559-3.969c.953-.4,1.941-.942,2.894-1.342a8.856,8.856,0,0,1,4.76-.922l3.229.062a7.742,7.742,0,0,1,2.822.406,2.631,2.631,0,0,1,1.722,2.107.647.647,0,0,1-.207.591.763.763,0,0,1-.408.092C543.13,234.3,542.75,234.519,541.858,234.551Z" transform="translate(-401.046 -177.896)" fill="#3f3d56"/>
      <path id="Path_323" data-name="Path 323" d="M513.757,306.042a.945.945,0,0,0,.258-.95,1.767,1.767,0,0,0-1.83.346,3.088,3.088,0,0,0-.49.648,2.89,2.89,0,0,0-.554,2.293.651.651,0,0,0,.3.408.784.784,0,0,0,.348.054,11.645,11.645,0,0,0,1.4-.086c.285-.035.616-.115.726-.38.145-.348-.206-.743-.1-1.106a1.209,1.209,0,0,1,.3-.427.565.565,0,0,0,.176-.474c-.041-.17-.3-.267-.4-.119" transform="translate(-398.682 -239.268)" fill="#3f3d56"/>
      <path id="Path_324" data-name="Path 324" d="M527.752,295.418a3.913,3.913,0,0,0-1.267-.08.552.552,0,0,0-.27.061.45.45,0,0,0-.166.241,1.2,1.2,0,0,0,.7,1.467,1.5,1.5,0,0,1,.432.174c.358.278.13.846.2,1.295.076.5.564.926.474,1.428-.07.4-.492.708-.424,1.1.071.414.6.539,1.016.572a1.277,1.277,0,0,0,.72-.082,1.114,1.114,0,0,0,.454-.658,4.216,4.216,0,0,0,.212-1.587,1.5,1.5,0,0,0-.179-.7,3.914,3.914,0,0,0-.418-.479C528.427,297.239,529.272,295.846,527.752,295.418Z" transform="translate(-410.253 -231.786)" fill="#3f3d56"/>
      <path id="Path_325" data-name="Path 325" d="M400.653,390.527S339.17,355.235,312.7,361.922c0,0-56.1,6.037-62.6,19.318,0,0-17.832-55.725-24.333-57.582" transform="translate(-177.594 -253.748)" fill="none" stroke="#6c63ff" stroke-miterlimit="10" stroke-width="2" opacity="0.8"/>
      <path id="Path_326" data-name="Path 326" d="M250.1,379.96c10.309-27.491,103.184-57.954,103.184-57.954C340.1,325.35,312.7,360.642,312.7,360.642s-57.954-42.165-86.931-38.264c0,0,127.61,4.179,174.883,66.87" transform="translate(-177.594 -252.468)" fill="none" stroke="#6c63ff" stroke-miterlimit="10" stroke-width="2" opacity="0.8"/>
      <circle id="Ellipse_99" data-name="Ellipse 99" cx="2.693" cy="2.693" r="2.693" transform="translate(45.483 67.216)" fill="#4753a7"/>
      <circle id="Ellipse_100" data-name="Ellipse 100" cx="2.693" cy="2.693" r="2.693" transform="translate(69.816 124.799)" fill="#4753a7"/>
      <circle id="Ellipse_101" data-name="Ellipse 101" cx="2.693" cy="2.693" r="2.693" transform="translate(173 66.845)" fill="#4753a7"/>
      <circle id="Ellipse_102" data-name="Ellipse 102" cx="2.693" cy="2.693" r="2.693" transform="translate(220.366 134.086)" fill="#4753a7"/>
      <circle id="Ellipse_103" data-name="Ellipse 103" cx="2.693" cy="2.693" r="2.693" transform="translate(132.414 105.481)" fill="#4753a7"/>
    </g>
  </g>
</svg>
