<svg xmlns="http://www.w3.org/2000/svg" width="501" height="372" viewBox="0 0 501 372">
  <g id="Group_324" data-name="Group 324" transform="translate(-1194 -236)">
    <g id="Group_58" data-name="Group 58" transform="translate(-6191 -3868)">
      <rect id="Rectangle_326" data-name="Rectangle 326" width="501" height="344" rx="10" transform="translate(7385 4132)" fill="#fff"/>
      <g id="Group_50" data-name="Group 50" transform="translate(491.531 6)">
        <path id="Path_74" data-name="Path 74" d="M699.7,197.268h-487a7.008,7.008,0,0,0-7,7v330a7.008,7.008,0,0,0,7,7h487a7.008,7.008,0,0,0,7-7v-330a7.008,7.008,0,0,0-7-7Zm5,337a5,5,0,0,1-5,5h-487a5,5,0,0,1-5-5v-330a5,5,0,0,1,5-5h487a5,5,0,0,1,5,5Z" transform="translate(6687.772 3928.732)" opacity="0.41"/>
        <rect id="Rectangle_325" data-name="Rectangle 325" width="499" height="2" transform="translate(6894.469 4154.04)" opacity="0.3"/>
        <circle id="Ellipse_35" data-name="Ellipse 35" cx="6" cy="6" r="6" transform="translate(6905.469 4135)" opacity="0.3"/>
        <circle id="Ellipse_36" data-name="Ellipse 36" cx="6" cy="6" r="6" transform="translate(6922.719 4135)" opacity="0.3"/>
        <circle id="Ellipse_37" data-name="Ellipse 37" cx="6" cy="6" r="6" transform="translate(6939.969 4135)" opacity="0.3"/>
        <path id="Path_75" data-name="Path 75" d="M609.524,293.732h-310a15.5,15.5,0,1,1,0-31h310a15.5,15.5,0,0,1,0,31Zm-310-29a13.5,13.5,0,1,0,0,27h310a13.5,13.5,0,0,0,0-27Z" transform="translate(6687.772 3928.732)" opacity="0.198"/>
        <path id="Path_79" data-name="Path 79" d="M388.524,285.232h-84a7,7,0,1,1,0-14h84a7,7,0,0,1,0,14Z" transform="translate(6687.772 3928.732)" fill="#6470c2"/>
        <path id="Path_80" data-name="Path 80" d="M599.024,281.732a7,7,0,1,1,7-7A7,7,0,0,1,599.024,281.732Zm0-12a5,5,0,1,0,5,5,5,5,0,0,0-5-5Z" transform="translate(6687.772 3928.732)" opacity="0.452"/>
        <path id="Path_81" data-name="Path 81" d="M609.852,288.065a1,1,0,0,1-.707-.293l-7.026-7.026a1,1,0,0,1,1.414-1.414l7.026,7.026a1,1,0,0,1-.707,1.707Z" transform="translate(6687.772 3928.732)" opacity="0.452"/>
      </g>
    </g>
    <path id="Rectangle_327" data-name="Rectangle 327" d="M14,0H437a14,14,0,0,1,14,14v0a0,0,0,0,1,0,0H0a0,0,0,0,1,0,0v0A14,14,0,0,1,14,0Z" transform="translate(1220 250)" fill="#e4e4e4" opacity="0.322"/>
    <path id="Rectangle_328" data-name="Rectangle 328" d="M14,0H343a14,14,0,0,1,14,14v0a0,0,0,0,1,0,0H0a0,0,0,0,1,0,0v0A14,14,0,0,1,14,0Z" transform="translate(1268 236)" fill="#e4e4e4" opacity="0.128"/>
    <g id="Group_61" data-name="Group 61" transform="translate(-8010.035 -3622)">
      <circle id="Ellipse_83" data-name="Ellipse 83" cx="7.441" cy="7.441" r="7.441" transform="translate(9348.145 4007.706)" fill="#e6e7e8"/>
      <path id="Path_254" data-name="Path 254" d="M519.385,310.475H324.665a2.216,2.216,0,1,1,0-4.432h194.72a2.216,2.216,0,1,1,0,4.432Z" transform="translate(9025.695 3721.15)" fill="#e6e7e8"/>
      <path id="Path_255" data-name="Path 255" d="M468.316,325.877H324.665a2.216,2.216,0,1,1,0-4.432H468.316a2.216,2.216,0,1,1,0,4.432Z" transform="translate(9025.695 3714.504)" fill="#e6e7e8"/>
      <circle id="Ellipse_84" data-name="Ellipse 84" cx="7.441" cy="7.441" r="7.441" transform="translate(9348.145 4123.853)" fill="#e6e7e8"/>
      <path id="Path_256" data-name="Path 256" d="M519.385,514.78H324.665a2.216,2.216,0,1,1,0-4.432h194.72a2.478,2.478,0,0,1,2.339,2.387,2.188,2.188,0,0,1-2.339,2.045Z" transform="translate(9025.695 3632.992)" fill="#e6e7e8"/>
      <path id="Path_257" data-name="Path 257" d="M468.316,530.182H324.665a2.216,2.216,0,0,1,0-4.432H468.316a2.216,2.216,0,0,1,0,4.432Z" transform="translate(9025.695 3626.347)" fill="#e6e7e8"/>
      <circle id="Ellipse_85" data-name="Ellipse 85" cx="7.441" cy="7.441" r="7.441" transform="translate(9348.145 4061.402)" fill="#e6e7e8"/>
      <path id="Path_258" data-name="Path 258" d="M519.385,404.927H324.665a2.216,2.216,0,0,1,0-4.432h194.72a2.216,2.216,0,1,1,0,4.432Z" transform="translate(9025.695 3680.394)" fill="#e6e7e8"/>
      <path id="Path_259" data-name="Path 259" d="M492.268,420.328h-167.6a2.216,2.216,0,1,1,0-4.432h167.6a2.216,2.216,0,0,1,0,4.432Z" transform="translate(9025.695 3673.748)" fill="#e6e7e8"/>
      <path id="Path_260" data-name="Path 260" d="M480.893,435.73H324.665a2.216,2.216,0,1,1,0-4.432H480.893a2.216,2.216,0,0,1,0,4.432Z" transform="translate(9025.695 3667.103)" fill="#e6e7e8"/>
      <circle id="Ellipse_86" data-name="Ellipse 86" cx="55.107" cy="55.107" r="55.107" transform="translate(9454.713 4090.583)" fill="#4753a7"/>
      <circle id="Ellipse_87" data-name="Ellipse 87" cx="7.872" cy="7.872" r="7.872" transform="translate(9501.872 4149.172)" fill="#fff"/>
      <circle id="Ellipse_88" data-name="Ellipse 88" cx="3.633" cy="3.633" r="3.633" transform="translate(9506.111 4153.411)" fill="#4753a7"/>
      <path id="Path_261" data-name="Path 261" d="M602.1,538.676H573.025a10.871,10.871,0,0,1-10.859-10.859V514.486a10.872,10.872,0,0,1,10.859-10.859H602.1a10.872,10.872,0,0,1,10.859,10.859v13.331A10.871,10.871,0,0,1,602.1,538.675Zm-29.075-33.912a9.733,9.733,0,0,0-9.722,9.722v13.331a9.733,9.733,0,0,0,9.722,9.722H602.1a9.733,9.733,0,0,0,9.722-9.722V514.486a9.733,9.733,0,0,0-9.722-9.722Z" transform="translate(8922.258 3635.893)" fill="#fff"/>
      <path id="Path_262" data-name="Path 262" d="M573.573,533.593h25.807a10.2,10.2,0,0,0,10.2-10.2V512.237a10.153,10.153,0,0,0-.673-3.619,10.173,10.173,0,0,1,4.054,8.127V527.9a10.2,10.2,0,0,1-10.2,10.2H576.954a10.2,10.2,0,0,1-9.528-6.582A10.142,10.142,0,0,0,573.573,533.593Z" transform="translate(8919.988 3633.739)" fill="#fff"/>
      <path id="Path_277" data-name="Path 277" d="M611.081,486.53h-35.2V476.173c0-8.356,7.9-15.154,17.6-15.154s17.6,6.8,17.6,15.154Zm-34.063-1.137h32.926v-9.22c0-7.729-7.385-14.017-16.463-14.017s-16.463,6.288-16.463,14.017Z" transform="translate(8916.341 3654.278)" fill="#fff"/>
      <path id="Path_278" data-name="Path 278" d="M606.69,485.577H588.66a3.063,3.063,0,0,1-3.059-3.06V478.4c0-5.747,5.417-10.422,12.074-10.422s12.074,4.675,12.074,10.422v4.122a3.063,3.063,0,0,1-3.059,3.06Zm-9.015-16.466c-6.031,0-10.937,4.165-10.937,9.285v4.122a1.925,1.925,0,0,0,1.922,1.923h18.03a1.925,1.925,0,0,0,1.922-1.923V478.4C608.612,473.276,603.706,469.111,597.675,469.111Z" transform="translate(8912.146 3651.277)" fill="#fff"/>
    </g>
  </g>
</svg>
